<?xml version="1.0" standalone="no"?>
<!DOCTYPE svg PUBLIC "-//W3C//DTD SVG 1.1//EN" "http://www.w3.org/Graphics/SVG/1.1/DTD/svg11.dtd" >
<svg xmlns="http://www.w3.org/2000/svg">
<metadata>
Created by FontForge 20120731 at Tue Jun 27 16:23:32 2017
 By admin
</metadata>
<defs>
<font id="iconfont" horiz-adv-x="1024" >
  <font-face 
    font-family="iconfont"
    font-weight="500"
    font-stretch="normal"
    units-per-em="1024"
    panose-1="2 0 6 3 0 0 0 0 0 0"
    ascent="896"
    descent="-128"
    x-height="792"
    bbox="-2 -145 1153 896"
    underline-thickness="0"
    underline-position="0"
    unicode-range="U+0078-E809"
  />
<missing-glyph 
 />
    <glyph glyph-name=".notdef" 
 />
    <glyph glyph-name=".notdef" 
 />
    <glyph glyph-name=".null" horiz-adv-x="0" 
 />
    <glyph glyph-name="nonmarkingreturn" horiz-adv-x="341" 
 />
    <glyph glyph-name="x" unicode="x" horiz-adv-x="1001" 
d="M281 543q-27 -1 -53 -1h-83q-18 0 -36.5 -6t-32.5 -18.5t-23 -32t-9 -45.5v-76h912v41q0 16 -0.5 30t-0.5 18q0 13 -5 29t-17 29.5t-31.5 22.5t-49.5 9h-133v-97h-438v97zM955 310v-52q0 -23 0.5 -52t0.5 -58t-10.5 -47.5t-26 -30t-33 -16t-31.5 -4.5q-14 -1 -29.5 -0.5
t-29.5 0.5h-32l-45 128h-439l-44 -128h-29h-34q-20 0 -45 1q-25 0 -41 9.5t-25.5 23t-13.5 29.5t-4 30v167h911zM163 247q-12 0 -21 -8.5t-9 -21.5t9 -21.5t21 -8.5q13 0 22 8.5t9 21.5t-9 21.5t-22 8.5zM316 123q-8 -26 -14 -48q-5 -19 -10.5 -37t-7.5 -25t-3 -15t1 -14.5
t9.5 -10.5t21.5 -4h37h67h81h80h64h36q23 0 34 12t2 38q-5 13 -9.5 30.5t-9.5 34.5q-5 19 -11 39h-368zM336 498v228q0 11 2.5 23t10 21.5t20.5 15.5t34 6h188q31 0 51.5 -14.5t20.5 -52.5v-227h-327z" />
    <glyph glyph-name="jia" unicode="&#xe63f;" 
d="M926 512q19 0 37 -7.5t31 -20.5t20.5 -31t7.5 -37q0 -21 -7.5 -38.5t-20.5 -30t-31 -20.5t-37 -8h-288v-287q0 -21 -7.5 -38.5t-20.5 -30t-31 -20.5t-37 -8q-21 0 -38.5 8t-30 20.5t-20.5 30t-8 38.5v287h-287q-21 0 -38.5 8t-30 20.5t-20.5 30t-8 38.5q0 19 8 37
t20.5 31t30 20.5t38.5 7.5h287v288q0 19 8 37t20.5 31t30 20.5t38.5 7.5q40 0 68 -28t28 -68v-288h288z" />
    <glyph glyph-name="jian" unicode="&#xe640;" horiz-adv-x="1026" 
d="M901 253l-781 3q-25 0 -47.5 8.5t-39 25t-26 39.5t-9.5 53q0 29 9.5 53t26 40.5t39 25.5t47.5 9h781q25 0 47 -9t38 -25.5t26 -40.5t10 -53q0 -30 -10 -53.5t-26 -40.5t-38 -26t-47 -9z" />
    <glyph glyph-name="dianji" unicode="&#xe621;" 
d="M957 739q9 -10 14 -26.5t-6 -34.5l-11 -16.5t-8 -12.5q-4 -6 -7 -11l-144 88q6 8 14 20.5t13 19.5q15 18 34.5 21t32.5 -1q14 -3 34.5 -16t33.5 -31zM548 319q3 5 13 22t25.5 43t34.5 56.5t38 62.5q46 74 101 166l144 -88q-55 -93 -100 -166q-20 -32 -38 -62.5t-33 -55.5
t-25.5 -40.5t-11.5 -18.5q-5 -8 -11 -16.5t-14 -13.5q-9 -6 -24.5 -15.5t-32.5 -18.5t-32 -18t-23 -13q-15 -7 -24.5 -2.5t-7.5 22.5q1 9 1.5 26.5t1 36t1.5 34.5t4 23q2 10 4.5 18t8.5 18zM784 292q41 -21 68 -53t27 -71q0 -41 -29 -77.5t-79.5 -63.5t-118.5 -43t-148 -16
q-82 0 -149.5 15.5t-116 42t-75.5 62.5t-27 77t26 78.5t75.5 65.5t120 44t159.5 15l-32 -66q-51 -2 -94.5 -14t-74.5 -31t-48 -43t-15 -48q2 -27 24.5 -48t58 -35t80.5 -21.5t92 -7.5q61 -1 111 9.5t84.5 28t53.5 39.5t19 45q0 19 -9 31t-22 20z" />
    <glyph glyph-name="dianpu" unicode="&#xe641;" 
d="M1024 594q0 -4 -0.5 -8t-2.5 -8q2 -8 2.5 -14.5t0.5 -13.5q0 -27 -7.5 -51t-22.5 -43v-525q0 -24 -17.5 -41.5t-42.5 -17.5h-844q-24 0 -41.5 17.5t-17.5 41.5v525q-31 38 -31 94q0 7 0.5 13.5t1.5 14.5q-2 10 -2 16v212q0 25 17.5 42t42.5 17h905q24 0 41.5 -17
t17.5 -42v-212zM903 391q-11 -4 -24 -5.5t-25 -1.5q-34 0 -63.5 12t-52.5 31.5t-37 47t-17 59.5h-2q-3 -32 -17.5 -59.5t-37 -47t-52 -31.5t-63.5 -12t-63.5 12t-52 31.5t-37 47t-17.5 59.5h-1q-3 -32 -17.5 -59.5t-37.5 -47t-52.5 -31.5t-62.5 -12q-29 0 -51 7v-368
q0 -26 18 -43.5t42 -17.5h663q25 0 42.5 17.5t17.5 43.5v368z" />
    <glyph glyph-name="jiantoushang" unicode="&#xe65d;" horiz-adv-x="1000" 
d="M788 546l-230 229q-11 12 -26.5 12t-26.5 -10q-22 7 -39 -10l-224 -224q-11 -11 -11 -26.5t11 -27.5l27 -26q11 -12 27 -12t27 12l133 133v-486q0 -15 11.5 -26.5t26.5 -11.5h38q16 0 27 11.5t11 26.5v489l136 -135q11 -12 27 -12t27 12l28 27q11 12 11 28t-11 27z" />
    <glyph glyph-name="zhuye" unicode="&#xe635;" horiz-adv-x="1000" 
d="M827 499v241h-125v-111l-187 194l-439 -454h125v-329h167v164h292v-164h167v329h125z" />
    <glyph glyph-name="shoucang" unicode="&#xe649;" 
d="M282 -32q-41 0 -67 32q-23 29 -15 63q5 18 51 204q-143 123 -147 126q-46 40 -39 88q4 27 22 45.5t45 23.5h2l215 20l78 181q10 24 26 40q24 23 59 23h1q36 0 61 -28q11 -11 20 -29l1 -2l77 -184l216 -20l3 -1q29 -6 45 -21q24 -21 24 -57q0 -32 -31 -66q-4 -4 -5 -6
l-2 -2l-1 -1q-1 -1 -143 -129q41 -196 43 -214q5 -35 -16 -59q-23 -26 -64 -26q-17 0 -45 12l-2 1l-181 105q-176 -101 -196 -111q-17 -8 -35 -8zM196 451q47 -40 147 -126l25 -21l-8 -31l-1.5 -6.5t-4.5 -17.5t-6.5 -25t-7.5 -30.5l-8 -33t-8.5 -34t-7.5 -31.5
q66 38 170 98l27 15l194 -113q-15 73 -38 181l-6 29l23 20q14 14 140 127l-227 21l-87 210l-92 -211z" />
    <glyph glyph-name="zuoshuangyinhao" unicode="&#xe605;" horiz-adv-x="1000" 
d="M221 378h222v-426h-426v378q-19 358 359 542l96 -145q-242 -126 -251 -349zM763 378h223v-426h-426v378q-20 358 358 542l97 -145q-252 -136 -252 -349z" />
    <glyph glyph-name="youshuangyinhao" unicode="&#xe606;" horiz-adv-x="1000" 
d="M810 446h-222v426h426v-378q19 -358 -359 -542l-96 145q242 126 251 349zM268 446h-223v426h426v-378q20 -358 -358 -542l-97 145q252 136 252 349z" />
    <glyph glyph-name="guanjianci" unicode="&#xe611;" horiz-adv-x="1048" 
d="M855 441q16 -55 16 -112q0 -109 -53.5 -202t-146.5 -146.5t-202 -53.5t-201.5 53.5t-146.5 146.5t-54 202t54 201.5t146.5 146.5t201.5 54q53 0 103 -13l18 52q-59 16 -121 16q-93 0 -177.5 -36.5t-145.5 -97.5t-97.5 -145.5t-36.5 -177.5t36.5 -177.5t97.5 -146
t145.5 -97.5t177.5 -36t177.5 36t146 97.5t97.5 146t36 177.5q0 68 -19 132zM469 493q12 0 24 -1l18 52q-21 4 -42 4q-91 0 -155 -64t-64 -155t64 -155t155 -64t155 64t64 155q0 23 -4 45l-52 -20q2 -13 2 -25q0 -68 -48.5 -116.5t-116.5 -48.5t-116 48.5t-48 116.5t48 116
t116 48zM1036 694h-201v202l-55 -56v0l-146 -146v0v-162l-201 -201l38 -39l201 201h163v1v-1l146 146v0v0zM814 548h-126v125l92 92v-126h125z" />
    <glyph glyph-name="riqi" unicode="&#xe63e;" 
d="M293 804h-55v-237h55v237zM677 731h-330v-55h330v55zM969 731h-128v-55h92h18v-18v-146h-878v146v18h18h92v55h-128h-37v-36v-732v-36h37h688v0h57q23 73 77.5 128t128.5 77v179h-55v-141q-63 -27 -112 -76t-77 -112h-671h-18v18v457h933v238v36h-37zM786 804h-55v-237
h55v237z" />
    <glyph glyph-name="facebook" unicode="&#xe667;" 
d="M682 200h101q15 -1 16 13q3 20 8 58.5t7 55.5l-1 10h-130v111q3 37 58 38h79v125q-61 4 -64 4q-76 -1 -99 -7q-53 -13 -84.5 -54.5t-32.5 -97.5v-118q-18 -1 -19 -1h-82q-9 1 -13 -2.5t-4 -11.5q1 -52 1 -109q-1 -15 15 -14h101v-344h-475v891h891v-891q-14 -1 -15 -1
h-243q-9 0 -13 2.5t-4 12.5v322z" />
    <glyph glyph-name="ren" unicode="&#xe622;" 
d="M436 66h-5q-62 -1 -135 6q-62 6 -97 11q-8 1 -66 11q-14 3 -18 19q-8 29 -5 64q1 21 4 38q4 31 36 51q12 7 53 20q46 14 58 19q31 12 48 35q11 14 10 31q0 13 -2 24q-1 14 -12.5 24.5t-14.5 12.5q-16 11 -24 32q-2 5 -5 14t-5 13q-1 4 -4 5q-13 5 -20 19q-21 39 3 70
q2 2 2 6q5 61 5 63q6 43 21 71q36 67 111 81q80 15 151 -26q39 -23 57 -68q17 -42 20 -90q0 -6 0.5 -17t1.5 -16q0 -3 1 -4q14 -13 13 -34q-1 -26 -11 -40q-7 -10 -18 -15q-3 -2 -5 -5q-1 -4 -4 -12t-4 -12q-1 -3 -4 -5q-55 -22 -97 -66q-59 -63 -73 -144q-15 -94 31 -179
q0 -1 3 -7zM679 446q98 0 167 -69.5t69 -166.5q0 -98 -69 -167t-167 -69t-167 69t-69 167t69 167t167 69zM674 232v1q-43 81 -55 104q-2 5 -8 5h-26q-1 0 -6 -1q47 -80 68 -117h-6h-45q-4 0 -4 -2v-25h65v-35h-65v-27h65v-6v-41t5 -5h24q5 0 5 5v42v5h63v27h-63v35h63v22
q0 5 -5 5h-37h-12q10 15 23 38t23.5 41.5t22.5 37.5l-5 1h-25q-6 0 -8 -5q-12 -21 -57 -105z" />
    <glyph glyph-name="gouwuche" unicode="&#xe612;" 
d="M892 324q-4 -24 -23.5 -41t-43.5 -17h-395q-24 0 -43 17t-23 41l-44 317q-3 24 11.5 38t37.5 10l507 -90q23 -4 37.5 -24t10.5 -44zM810 232h-481l-63 475q-2 10 -9.5 17.5t-16.5 7.5h-5h-115q-12 0 -20.5 -7.5t-8.5 -18t8.5 -18.5t20.5 -8h97l64 -475q1 -11 9 -18.5
t18 -6.5h2h500q12 0 20.5 7.5t8.5 18.5t-8.5 18.5t-20.5 7.5zM473 90q0 -24 -17 -40.5t-41 -16.5t-41 16.5t-17 40.5t17 40.5t41 16.5t41 -16.5t17 -40.5zM785 90q0 -24 -17 -40.5t-41 -16.5t-40.5 16.5t-16.5 40.5t16.5 40.5t40.5 16.5t41 -16.5t17 -40.5z" />
    <glyph glyph-name="dianhua" unicode="&#xe623;" 
d="M881 170q0 -78 -37 -105q-40 -28 -177 -31q-42 -1 -154 -1q-219 0 -275 11q-67 13 -84 58q-9 25 -9 68q0 46 18 105t53 119t79 111.5t102 83.5t116 32t116 -32t102 -83.5t79 -111.5t53 -119t18 -105zM514 556q-65 0 -110.5 -46t-45.5 -111t45.5 -111t110.5 -46t111 46
t46 111t-46 111t-111 46zM186 441q26 41 57.5 77t72 67.5t91.5 50t105 18.5t106 -19.5t93 -52t72 -68t52 -73.5q21 -33 53.5 -32t50.5 32q4 9 7 26.5t0 45t-14.5 56.5t-42 58.5t-76 52.5t-123.5 37.5t-178 14.5q-101 0 -179.5 -15t-124 -39t-76 -53.5t-41.5 -59t-13.5 -56.5
t1 -44.5t8.5 -23.5q14 -21 36.5 -25t39.5 4.5t23 20.5z" />
    <glyph glyph-name="qq" unicode="&#xe630;" 
d="M261 420l-1 4l-1 6l-1 3v3v5v4l2 5l1 5l2 5l2 6l3 6l4 6v5l1 4l1 5l1 7l2 6l2 3l1 3l2 3l2 3v4v5v6l2 8l1 9l2 11l3 12l3 6l2 7l3 6l3 7l3 7l4 7l4 8l5 7l2 4l3 4l5 8l6 8l6 8l7 8l7 7l8 8l9 9l6 5l8 6l7 5l8 5l8 4l8 3l9 5l9 3l10 3l9 3l10 2l11 2l10 2l10 1l11 2h11h10
h11h11l11 -1l11 -1l11 -1l10 -3l11 -2l10 -3l11 -3l11 -4l9 -4l11 -4l9 -5l10 -5l9 -6l8 -5l3 -4l4 -2l7 -6l6 -6l7 -6l6 -7l4 -6l6 -7l4 -8l4 -6l5 -8l3 -6l7 -14l3 -7l2 -7l2 -7l2 -7l2 -6l2 -7l3 -12l2 -11l2 -11l1 -8l2 -13v-2l2 -2l4 -7l2 -4l3 -5l3 -5l2 -6l2 -6l2 -7
l1 -7l1 -3v-4v-4v-3v-5l-1 -4l-2 -9l-3 -4l-1 -5v-1l1 -1l2 -4l9 -14l8 -11l4 -7l4 -8l5 -8l5 -9l5 -10l5 -12l3 -7l3 -7l2 -7l3 -7l2 -7l2 -7l2 -12l2 -13l1 -12v-6v-5v-5l-1 -6l-1 -9l-2 -9l-2 -9l-1 -3l-2 -4l-2 -3l-2 -3l-2 -2l-2 -3l-2 -2l-2 -2l-3 -1l-2 -1l-2 -1h-2
h-1l-2 1l-4 1l-1 2l-2 1l-2 2l-2 2l-3 3l-4 5l-3 5l-3 4l-3 5l-4 9l-4 8l-1 1v0l-2 -2l-1 -2l-2 -3l-3 -8l-5 -13l-6 -14l-5 -8l-4 -7l-6 -9l-6 -8l-3 -4l-4 -4l-8 -9v-1l2 -1l4 -2l18 -9l7 -4l8 -4l7 -6l7 -5l3 -3l2 -3l3 -3l2 -4l1 -2l1 -4l1 -3v-4v-2v-3l-1 -2l-1 -3
l-1 -1l-1 -3l-3 -4l-3 -4l-2 -2l-2 -2l-5 -4l-6 -3l-6 -3l-6 -3l-7 -2l-4 -2l-3 -1l-9 -1l-8 -2l-9 -2l-9 -2h-9l-10 -1h-10h-10h-11h-11l-10 1l-11 2l-11 1l-11 2l-11 2l-11 3l-11 3l-11 4l-11 3l-6 2l-5 2l-3 1l-3 1h-5h-4h-11l-5 1l-7 1l-4 -4l-6 -4l-8 -4l-9 -5l-6 -3
l-5 -2l-13 -5l-7 -2l-7 -1l-10 -2l-6 -1h-7l-6 -1l-8 -1h-8h-8h-17l-18 1l-18 2l-9 1l-9 1l-8 1l-9 2l-8 3l-8 2l-7 2l-7 3l-6 3l-5 3l-6 4l-2 2l-2 3l-2 2l-1 2l-2 2l-1 3l-2 5v2l-1 3v3l1 3v3v3v1v5v3l2 3l1 4l2 4l2 2l1 2l3 4l3 2l3 2l2 2l4 1l3 2l3 2l5 1l4 1l5 1l5 1
l5 1h6l2 1v0h1v1l-1 1l-4 2l-8 7l-5 4l-6 6l-6 6l-7 7l-7 9l-3 5l-4 5l-3 5l-3 6l-4 6l-2 7l-3 7l-3 7l-2 7l-2 9h-1h-1v1h-1l-1 -1h-1l-1 -1v-2l-1 -2l-1 -2l-3 -7l-2 -4l-3 -3l-3 -4l-4 -5l-4 -4l-4 -4l-4 -4l-4 -3l-5 -3l-5 -1l-6 -2h-5h-1v0h-2l-1 2l-1 1l-2 5l-2 3
l-1 4l-1 4l-1 4l-1 10l-1 5v6v12l1 13l1 7l1 7l1 8l2 7l2 8l3 8l3 8l3 8l4 7l4 9l5 8l5 9l6 7l6 9l5 6l6 7l6 7l3 3l4 4l6 4l5 5l9 8l7 5z" />
    <glyph glyph-name="shangsanjiao" unicode="&#xe600;" 
d="M512 576l-256 -321h513z" />
    <glyph glyph-name="xiasanjiao" unicode="&#xe610;" 
d="M256 512l256 -321l257 321h-513z" />
    <glyph glyph-name="twitter" unicode="&#xe668;" 
d="M672 674q49 1 81.5 -13.5t63.5 -43.5q38 3 94 31q17 10 23 13q-21 -57 -59 -86q-17 -13 -20 -15v0q17 0 34.5 4.5t39.5 13t29 10.5v-1q-27 -43 -62 -71q-5 -4 -15.5 -12t-12.5 -11q0 -75 -9 -118q-35 -155 -125.5 -258t-234.5 -147q-54 -17 -125.5 -21t-133.5 10
q-63 16 -108 35q-28 12 -52 27q-10 6 -16 10l28 -2.5t30 0.5q8 1 26 2t27 3q67 15 110 40q3 2 12 7t14.5 8t12.5 8t11 10q-26 -1 -55 9q-82 29 -116 118q68 -8 82 3q-24 2 -61 25q-86 54 -86 157q6 -3 19 -9t38 -11q20 -4 25 -2v0q-5 5 -17 14t-17 15q-64 80 -41 167
q5 22 19 48q1 0 1 -0.5v-0.5q2 -4 9 -11l8 -8q21 -26 55 -52q52 -41 103 -66t121 -43q43 -10 82 -10q-5 19 -4.5 43t5.5 43q25 89 104 123q17 7 41 12q8 1 22 3v0z" />
    <glyph glyph-name="shanchu" unicode="&#xe62f;" 
d="M641 680v76h-259v-76h-171v-74h602v74h-172zM239 556l44 -537h458l44 537h-546zM426 121h-70v342h70v-342zM546 121h-69v342h69v-342zM670 121h-72v342h72v-342z" />
    <glyph glyph-name="anzhuo" unicode="&#xe613;" horiz-adv-x="1064" 
d="M-49 12zM1041 12zM125 57zM807 281q0 -23 16 -39.5t39 -16.5q22 0 38 16.5t16 39.5v216q0 23 -16 39.5t-38 16.5q-23 0 -39 -16.5t-16 -39.5v-216zM612 680q0 11 8 18.5t19 7.5t19 -7.5t8 -18.5t-8 -19t-19 -8t-19 8t-8 19zM404 680q0 11 8 18.5t19 7.5t18.5 -7.5
t7.5 -18.5t-7.5 -19t-18.5 -8t-19 8t-8 19zM292 156q0 -18 12.5 -30.5t30.5 -12.5h48v-120q0 -23 15.5 -39.5t38.5 -16.5t39 16.5t16 39.5v120h85v-120q0 -23 15.5 -39.5t38.5 -16.5t38.5 16.5t15.5 39.5v120h49q18 0 30 12.5t12 30.5v395h-484v-395zM776 586q-6 55 -40 100
t-88 70l45 65q5 8 -2 11q-5 3 -11 -3l-46 -67q-52 19 -101 19q-50 0 -101 -19l-46 67q-6 7 -11 3q-7 -4 -2 -11l45 -65q-54 -26 -88 -70.5t-39 -99.5h485zM150 281q0 -23 15.5 -39.5t38.5 -16.5t39 16.5t16 39.5v216q0 23 -16 39.5t-39 16.5t-38.5 -16.5t-15.5 -39.5v-216z
M941 57z" />
    <glyph glyph-name="pingguo" unicode="&#xe614;" 
d="M109 46zM509 629q55 6 96 35q22 16 34 29q9 14 23 38q8 14 16 44q6 25 6 44v13q-54 -5 -97 -35q-19 -13 -34 -29q-15 -21 -23 -38q-11 -23 -16 -45q-5 -24 -5 -42v-14zM157 325q0 -16 2 -38q9 -111 58 -201q49 -88 81 -116q40 -34 76 -34q25 0 77.5 23.5t75.5 23.5
q22 0 67 -23.5t68 -23.5q36 0 71 26q30 22 61 66q10 13 22 36q7 12 46 99v7q-51 19 -84.5 67t-33.5 106q0 54 26 96q26 43 71 67q-31 42 -75.5 66t-85.5 24q-33 0 -94.5 -20.5t-69.5 -20.5q-7 0 -57 19t-91 19q-38 0 -79.5 -17t-73.5 -52q-39 -43 -54 -145q-3 -18 -4 -54z
M911 46z" />
    <glyph glyph-name="gpszuobiao" unicode="&#xe615;" 
d="M533 806zM507 684q65 0 110.5 -45.5t45.5 -110t-45.5 -110t-110.5 -45.5v-436h2h2q18 0 30.5 12t12.5 34v0q0 52 19.5 104.5t49 93.5t64 86t64 83.5t49.5 85.5t20 91q0 129 -91.5 220.5t-221.5 91.5v-155zM507 373q-65 0 -110.5 45.5t-45.5 110t45.5 110t110.5 45.5v0
v155v0q-130 0 -221.5 -91.5t-91.5 -220.5q0 -43 15 -85t38 -77.5t51.5 -70.5t57 -70.5t52 -72t38 -80t14.5 -88.5q0 -20 14 -32.5t33 -13.5v436v0v0z" />
    <glyph glyph-name="xihuan" unicode="&#xe60c;" 
d="M741 657h3q40 -3 61 -15q22 -12 33 -29q13 -19 18 -44q6 -33 4 -68q-1 -19 -12 -64l-2 -10q-6 -21 -25 -54q-21 -36 -39 -58q-23 -27 -45 -50q-36 -35 -74 -65q-39 -31 -74 -52q-34 -21 -60 -32q-6 -3 -11 -5q-3 1 -7 3q-25 12 -55 31q-33 23 -69 52q-40 33 -76 67h-1
q-23 22 -51 51q-25 26 -47 58q-20 29 -35 64q-12 27 -13 58q-1 33 7 61q8 26 23 46t36 33q23 14 53 20q5 1 9 1h6q13 -2 27 -7t26 -12q18 -11 33 -22q35 -25 68 -61q29 -33 74 -33h1q46 1 75 36q27 32 57 58q24 20 55 35q13 7 27 7zM741 757q-38 0 -74 -19q-39 -20 -72 -46
q-37 -32 -69 -71q-40 44 -84 76q-19 13 -40 25.5t-44 20.5t-47 11q-9 2 -19 2q-14 0 -28 -3q-48 -10 -86 -33t-64 -57.5t-38 -78.5q-13 -44 -11 -93q2 -50 20 -94q19 -43 46 -81q26 -38 56 -69.5t56 -55.5q38 -36 80 -71q41 -33 78 -58q36 -23 68 -38q29 -14 48 -14h3
q17 0 50 15q32 14 72 38q38 24 82 59q44 34 83 73q26 26 52 58q22 27 47 69q27 46 36 82q16 63 18 91q3 48 -6 93.5t-33.5 81t-66 59t-102.5 28.5h-11v0z" />
    <glyph glyph-name="yixihuan" unicode="&#xe60d;" 
d="M526 621q32 39 69 71q33 26 72 46q41 22 85 19q61 -5 102.5 -28.5t66 -59t33.5 -81t6 -93.5t-18 -91q-14 -44 -36 -82q-21 -38 -47 -69q-26 -32 -52 -58q-40 -39 -83 -73q-43 -35 -82 -59q-40 -24 -72 -38q-33 -15 -50 -15q-20 -1 -51 14q-32 15 -68 38q-37 25 -78 58
q-42 35 -80 71q-26 24 -56 55.5t-56 69.5q-27 38 -46 81q-18 44 -20 94q-2 49 11 93q12 44 38 78.5t64 57.5t86 33q24 5 47 1q24 -3 47 -11t44 -21q21 -12 40 -25q43 -32 84 -76v0z" />
    <glyph glyph-name="shangjia" unicode="&#xe616;" 
d="M798 427q27 -24 63 -30v-390q0 -13 -9 -22.5t-23 -9.5h-635q-13 0 -22.5 9.5t-9.5 22.5v390q36 6 64 29v-208h572v209zM848 727q6 0 13 -2v35q0 14 -9 23t-23 9h-635q-13 0 -22.5 -9t-9.5 -23v-36q7 3 14 3h672zM848 689h-50h-572h-50l-127 -137q0 -38 27 -65.5t65 -27.5
q16 0 31 5l0.5 0.5l0.5 0.5q5 1 8 3q1 1 2 1q5 2 8 5v0q18 11 30 29v1q2 4 5 9v0q8 18 8 39q0 -38 27.5 -65.5t65.5 -27.5t65.5 27.5t27.5 65.5q0 -39 27 -66t65.5 -27t65.5 27.5t27 65.5q0 -39 27 -66t65.5 -27t65.5 27.5t27 65.5q0 -24 12 -45q0 -1 0.5 -1.5l0.5 -0.5
q3 -5 5 -7l1 -2q4 -4 5 -6l0.5 -0.5l1.5 -1.5q2 -3 7 -6v-1q12 -10 28 -16v0q6 -2 10 -3v0q11 -3 22 -3q38 0 65.5 27.5t27.5 65.5z" />
    <glyph glyph-name="time" unicode="&#xe607;" 
d="M512 884q-91 0 -174 -34.5t-147 -99t-98.5 -147t-34.5 -173.5t34.5 -174t98.5 -147t147 -98.5t174 -34.5t174 34.5t147 98.5t98.5 147t34.5 174t-34.5 173.5t-98.5 147t-147 99t-174 34.5zM793 149q-56 -56 -129 -86t-152.5 -30t-152 30t-128.5 86t-86 128.5t-30 152
t30 152t86 129t128.5 86.5t152 30t152.5 -30t129 -86.5t86 -129t30 -152t-30 -152t-86 -128.5zM722 371l-182 78v293q0 12 -8 20t-20 8t-20 -8t-8 -20v-312q0 -19 17 -26l198 -85q6 -3 11 -3q19 0 27 18q4 10 -0.5 21t-14.5 16zM228 458h-28q-12 0 -20 -8t-8 -20t8 -20
t20 -8h28q12 0 20.5 8t8.5 20t-8.5 20t-20.5 8zM767 430q0 -12 8.5 -20.5t20.5 -8.5h28q12 0 20 8.5t8 20.5t-8 20t-20 8h-28q-12 0 -20.5 -8t-8.5 -20zM512 175q-12 0 -20 -8.5t-8 -20.5v-28q0 -12 8 -20.5t20 -8.5t20 8.5t8 20.5v28q0 12 -8 20.5t-20 8.5v0z" />
    <glyph glyph-name="xiangce" unicode="&#xe601;" horiz-adv-x="1041" 
d="M924 721h-61q-18 0 -42 17.5t-43 38.5t-42.5 38.5t-42.5 17.5h-346q-20 0 -43.5 -17.5t-42.5 -38.5t-43.5 -38.5t-44.5 -17.5h-57q-45 0 -80.5 -34.5t-35.5 -77.5v-545q0 -47 34 -79.5t82 -32.5h808q46 0 81 34t35 78v545q0 42 -36 77t-80 35zM809 15h-578q-86 0 -101 13
t-14 91v8v356q0 83 14.5 97.5t100.5 14.5h1q19 0 43 17.5t43.5 38.5t43.5 38.5t42 17.5h232q19 0 43 -17.5t43.5 -38.5t43.5 -38.5t43 -17.5q33 0 48 -0.5t31 -5t21 -9t10 -20t5 -31v-46.5v-356v-4q0 -80 -14.5 -94t-100.5 -14zM713 518h133v-62h-133v62zM519.5 455
q-80.5 0 -137.5 -55t-57 -133t57 -133.5t137.5 -55.5t137 55.5t56.5 133.5t-56.5 133t-137 55zM519 141q-54 0 -92 36.5t-38 89t38 89t92 36.5t92 -36.5t38 -89t-38 -89t-92 -36.5z" />
    <glyph glyph-name="pinglunxiangao" unicode="&#xe602;" horiz-adv-x="1039" 
d="M259 265h520v64h-520v-64zM519 518h-260v-62h260v62zM974 896h-909q-18 0 -31.5 -6.5t-19.5 -15.5t-9.5 -18.5t-4.5 -15.5v-7v-945q3 6 8 14.5t23.5 30t39.5 38t54.5 30t69.5 13.5h779q3 0 7 0.5t15.5 4t20 9.5t15.5 19t7 30v756q0 3 -0.5 7t-4 15t-9.5 19t-19.5 15
t-31.5 7zM941 77v0v0v0v0h-1v0v0v0h-1v0v0v0h-1v0v0h-1v0v0v0h-1v0v0h-1v0v0h-1v0v0h-1v0h-1v0v0h-1v0h-1v0v0h-1v0h-1v0v0h-1v0h-1v0h-1v0h-1v0h-1v0v0h-1v0h-1v0h-1v0h-1v0h-1v0h-1v0h-1h-1v0h-1v0h-1v0h-1v0h-1v0h-1h-1v0h-1v0h-1v0h-1h-1v0h-1v0h-1h-1v0h-1v0h-1h-1v0
h-1h-1v0h-1v0h-1h-1v0h-1h-1v0h-1h-1v0h-1h-1v0h-1h-1v0h-1h-1v0h-1h-1v0h-1h-1h-1v0h-1h-1v0h-1h-1h-1v0h-1h-1v0h-1h-1h-1v0h-1h-1h-1v0h-1h-1h-1v0h-1h-1h-1v0h-1h-1h-1v0h-1h-1h-1v0h-1h-1h-1h-1v0h-1h-1h-1v0h-1h-1h-1h-1v0h-1h-1h-1h-1v0h-1h-1h-1h-1h-1v0h-1h-1h-1
h-1v0h-1h-1h-1h-1h-1v0h-1h-1h-1h-1h-1v0h-1h-1h-1h-1h-1h-1v0h-1h-1h-1h-1h-1h-1v0h-1h-1h-1h-1h-1h-1h-1v0h-1h-1h-1h-1h-1h-1h-1v0h-1h-1h-1h-1h-1h-1h-1h-1v0h-1h-1h-1h-1h-1h-1h-1h-1h-1v0h-1h-1h-1h-1h-1h-1h-1h-1h-1h-1v0h-1h-1h-1h-1h-1h-1h-1h-1h-1h-1h-1h-1v0h-1
h-1h-1h-1h-1h-1h-1h-1h-1h-1h-1h-1h-1h-1v0h-1h-1h-1h-1h-1h-1h-1h-1h-1h-1h-1h-1h-1h-1h-1h-1h-1h-1v0h-1h-1h-1h-1h-1h-1h-1h-1h-1h-1h-1h-1h-1h-1h-1h-1h-1h-1h-1h-1h-1h-1h-1h-1h-1h-1v0h-1h-1h-1h-1h-1h-1h-1h-1h-1h-1h-1h-1h-1h-1h-1h-1h-1h-1h-1h-1h-1h-1h-1h-1h-1
h-1h-1h-1h-1h-1h-1h-1h-1h-1h-1h-1h-1h-1h-1h-1h-1h-1h-1h-1h-1h-1h-1h-1h-1h-1h-1h-1h-1h-1h-1h-1h-1h-1h-1h-1h-1h-1h-1h-1h-1h-1h-1h-1h-1h-1h-1h-1h-1h-1h-1h-1h-1h-1h-1h-1h-1h-1h-1h-1h-1h-1h-1h-1h-2h-1h-1h-2h-1h-1h-2h-1h-1h-2h-1h-1h-2h-1h-1h-2h-1h-2h-1h-1h-2
h-1h-1h-2h-1h-1h-2h-1h-1h-2h-1h-2h-1h-1h-2h-1h-1h-2h-1h-2h-1h-1h-2h-1h-2h-1h-1h-2h-1h-2h-1h-1h-2h-1h-2h-1h-1h-2h-1h-2h-1h-1h-2h-1h-2h-1h-1h-2h-1h-2h-1h-2h-1h-1h-2h-1h-2h-1h-2h-1h-1h-2h-1h-2h-1h-2h-1h-2h-1h-1h-2h-1h-2h-1h-2h-1h-2h-1h-1h-2h-1h-2h-1h-2h-1
h-2h-1h-2h-1h-2h-1h-1h-2h-1h-2h-1h-2h-1h-2h-1h-2h-1h-2h-1h-2h-1h-2h-1h-2h-1h-2h-1h-1h-2h-1h-2h-1h-2h-1h-2h-1h-2h-1h-2h-1h-2h-1h-2h-1h-2h-1h-2h-1h-2h-1h-2h-1h-2h-1h-2h-1h-2h-1h-2h-1h-2h-1h-2h-1h-2h-1h-2h-1h-2h-1h-2h-1h-2h-2h-1h-2h-1h-2h-1h-2h-1h-2h-1h-2
h-1h-2h-1h-2h-1h-2h-1h-2h-1h-2h-1h-2h-1h-2h-1h-2h-1h-2h-1h-2h-1h-2h-1h-2h-2h-1h-2h-1h-2h-1h-2h-1h-2h-1h-2h-1h-2h-1h-2h-1h-2h-1h-2h-1h-2h-1h-2h-1h-2h-1h-1h-2h-1h-2h-1h-2h-1h-2h-1h-2h-1h-2h-1h-2h-1h-1h-2h-1h-2h-1h-2h-1h-1h-2h-1h-2h-1h-1h-2h-1h-1h-2h-1h-1
h-2h-1h-1h-2h-1h-1h-1h-9q-29 0 -61.5 -8t-50.5 -15l-18 -8v756q0 3 1 8.5t9 14t22 8.5h844q14 0 22.5 -8t9.5 -16l1 -7v-693q0 -28 -27 -31q-2 -1 -6 -1zM649 708h-390v-64h390v64z" />
    <glyph glyph-name="fatie" unicode="&#xe603;" horiz-adv-x="1025" 
d="M973 550l-32 -31v0l-33 -32v0l-389 -377l-162 -31l32 157l454 440q4 4 10 8.5t23 5t32 -13.5q23 -21 65 -63q15 -17 15 -31t-7 -23zM389 110l130 32l-97 94zM519 173l357 346l-65 63l-357 -346zM876 645l-33 -32l65 -63l33 32zM209 707h395q21 0 30 -7.5t0 -15.5t-30 -8
h-395q-22 0 -30.5 8t0.5 15.5t30 7.5zM208 519q-21 0 -29.5 8t0.5 15.5t29 7.5h392l-34 -31h-358zM843 833q0 14 -8 22t-16 9l-8 1h-746q-4 0 -9.5 -1t-14.5 -9t-9 -22v-880q0 -4 1 -9t9 -13.5t23 -8.5h746q15 0 23 7.5t9 15.5v8v377l33 32v-409q0 -3 -0.5 -7t-4 -15
t-9.5 -19t-19.5 -15t-31.5 -7h-746q-3 0 -7.5 0.5t-15.5 4t-19.5 9t-15.5 18.5t-7 31v880q0 18 7 30.5t15.5 18.5t19.5 9.5t15.5 4t7.5 0.5h746q3 0 7 -0.5t15.5 -4t20 -9.5t15.5 -18.5t7 -30.5v-31l-33 -30v61z" />
    <glyph glyph-name="zan" unicode="&#xe62b;" 
d="M851 394q1 -5 0 -9l-62 -272q-1 -5 -4 -9q-11 -21 -30 -33q-21 -13 -45 -13v0h-396h-4h-4h-106h-4q-12 0 -20.5 8t-8.5 20l1 342q0 12 8 20.5t20 8.5h4h94v0q66 5 111.5 52.5t47.5 113.5q-1 4 -1 7q0 35 24.5 59t58.5 24q29 0 51.5 -18t29.5 -46v0q8 -32 8 -65
q0 -51 -17 -99h159h4q45 -2 69 -40q14 -23 12 -51zM224 115h57l1 285h-57zM791 415q-9 14 -25 13v0v0l-201 1q-12 0 -20.5 8t-8.5 20q0 7 3 13v0q17 32 24 69h1q0 1 0.5 4.5t1.5 15t1 24.5l-4 45v0v0.5v0.5q0 11 -8 19t-19 8t-18.5 -8t-7.5 -19v-1h-1q1 -23 -4 -46
q-2 -12 -7 -26v0q-18 -55 -60.5 -95t-98.5 -54l-1 -292h372h4q5 0 10 3q7 5 11 13v0l59 261v0q4 13 -3 23v0z" />
    <glyph glyph-name="location" unicode="&#xe642;" 
d="M512 288q-79 0 -135.5 56.5t-56.5 135.5t56.5 135.5t135.5 56.5t135.5 -56.5t56.5 -135.5t-56.5 -135.5t-135.5 -56.5zM512 608q-53 0 -90.5 -37.5t-37.5 -90.5t37.5 -90.5t90.5 -37.5t90.5 37.5t37.5 90.5t-37.5 90.5t-90.5 37.5zM512 -64q-13 0 -22 9q-10 9 -10 22.5
t9 22.5q39 41 86 97.5t100.5 129.5t89 144.5t35.5 118.5q0 119 -84.5 203.5t-203.5 84.5t-203.5 -84.5t-84.5 -203.5q0 -57 52.5 -151.5t151.5 -215.5q9 -11 7.5 -24t-12 -21.5t-23.5 -7t-21 11.5q-219 268 -219 408q0 146 103 249t249 103t249 -103t103 -249
q0 -53 -34 -127.5t-76.5 -136.5t-98 -130.5t-80 -95.5t-40.5 -44q-9 -10 -23 -10z" />
    <glyph glyph-name="phone" unicode="&#xe643;" 
d="M369 66v-1q-4 0 -8.5 -0.5t-5.5 -0.5h-3q-52 0 -89 36.5t-38 88.5q-2 53 34 91q37 39 89 40h2h2q40 0 74 -24q46 -16 92 45t19 95q-9 7 -18 17q-2 1 -3 3q-31 35 -33 80q-1 53 35 91t89 40h1.5h2.5q44 0 78.5 -28t44.5 -71q6 -18 8 -43t-1.5 -68t-28 -100.5t-68.5 -116.5
q-41 -55 -85 -93t-81.5 -54t-62.5 -21.5t-46 -5.5zM365 130q9 0 20.5 1t36.5 9t49 22.5t57.5 44.5t64.5 71q38 52 59.5 101.5t24 85.5t1 54.5t-5.5 31.5q-5 23 -22.5 37.5t-39.5 14.5q-27 -1 -45 -20t-18 -45q1 -23 17 -40v-1q6 -6 12 -10q4 -3 6 -6q10 -10 16.5 -24
t11 -36.5t-5.5 -53.5t-35 -64q-55 -74 -124 -74q-24 0 -47 9q-4 2 -8 5q-17 14 -38 14q-28 -1 -46 -20t-17 -45q0 -26 18.5 -44t44.5 -18v0q1 1 3 1q6 0 10 -1zM512 -67q-91 0 -174 35q-12 5 -17 17t0 24.5t17.5 17.5t24.5 0q71 -30 149 -30q104 0 192.5 51.5t140 140
t51.5 192.5t-51.5 192.5t-140 140t-192.5 51.5t-192.5 -51.5t-140 -140t-51.5 -192.5q0 -111 59 -204q7 -11 4 -24t-14.5 -20t-24.5 -4t-20 14q-68 109 -68 238q0 91 35.5 174t95.5 143t143 95.5t174 35.5t174 -35.5t143 -95.5t95.5 -143t35.5 -174t-35.5 -174t-95.5 -143
t-143 -95.5t-174 -35.5z" />
    <glyph glyph-name="huiyuan" unicode="&#xe617;" 
d="M526 826q-120 0 -205.5 -85t-85.5 -205t85.5 -205t205.5 -85t205 85t85 205t-85 205t-205 85zM750 252q-101 -79 -224 -79q-124 0 -224 79q-90 -57 -146 -151t-65 -207q86 -11 219 -11h431q133 0 219 11q-8 113 -64.5 207t-145.5 151z" />
    <glyph glyph-name="kucun" unicode="&#xe608;" 
d="M109 704q20 24 41 46q16 19 33 36t26 25q13 10 27 18t38 8h486q15 0 34 -7q19 -6 37 -25q10 -12 24 -28q20 -23 28 -33q16 -19 32 -40h-806zM1024 367q0 -36 -23.5 -61t-67.5 -25h-833q-43 0 -68 25t-25 61v161q0 36 22 62t73 26h830q51 0 71.5 -26t20.5 -62v-161z
M599 448q0 14 -7 20.5t-20 6.5h-114q-12 0 -20 -8t-8 -19q1 -15 8.5 -21.5t19.5 -6.5h114q26 0 27 28zM1021 -41q0 -36 -28 -62t-71 -25h-825q-36 0 -65 25.5t-29 70.5v151q0 37 23 62.5t74 25.5h827q47 0 70.5 -25.5t23.5 -61.5v-161v0zM596 38.5q0 11.5 -7.5 19.5t-19.5 8
h-114q-12 0 -20 -8t-8 -19.5t8 -19t20 -7.5h114q12 0 19.5 7.5t7.5 19z" />
    <glyph glyph-name="dengdaidaishen" unicode="&#xe644;" 
d="M512 832q-91 0 -174 -35.5t-143 -95.5t-95.5 -143t-35.5 -174t35.5 -174t95.5 -143t143 -95.5t174 -35.5t174 35.5t143 95.5t95.5 143t35.5 174t-35.5 174t-95.5 143t-143 95.5t-174 35.5zM512 38q-94 0 -173.5 46.5t-126 126t-46.5 173.5t46.5 173.5t126 126t173.5 46.5
t173.5 -46.5t126 -126t46.5 -173.5t-46.5 -173.5t-126 -126t-173.5 -46.5zM720 437h-416q-5 0 -8.5 -3.5t-3.5 -8.5v-82q0 -5 3.5 -8.5t8.5 -3.5h416q5 0 8.5 3.5t3.5 8.5v0v82q0 5 -3.5 8.5t-8.5 3.5z" />
    <glyph glyph-name="tishi" unicode="&#xe60a;" 
d="M924.5 558q-35.5 82 -96 142.5t-142 96t-174 35.5t-174.5 -35.5t-142.5 -96t-96 -142.5t-35.5 -174.5t35.5 -174t96 -142t142.5 -96t174.5 -35.5t174 35.5t142 96t96 142t35.5 174t-35.5 174.5zM570 334v-176q0 -6 -6 -11t-15 -5h-74q-9 0 -15.5 5t-6.5 11v178l1 112
q0 7 6 11.5t15 4.5l74 1q9 0 15.5 -5t6.5 -11zM571 551q0 -10 -6.5 -17t-15.5 -7h-74q-9 0 -15.5 7t-6.5 17v40q0 10 6.5 17t15.5 7h74q9 0 15.5 -7t6.5 -17v-40z" />
    <glyph glyph-name="shangjiantou" unicode="&#xe63c;" 
d="M664 584q9 9 9 22.5t-9 22.5l-152 152l-152 -152q-9 -9 -9 -22.5t9.5 -23t22.5 -9.5t23 10l74 73v-533q0 -13 9.5 -22.5t22.5 -9.5t22.5 9.5t9.5 22.5v533l74 -73q10 -10 23 -10t23 10v0z" />
    <glyph glyph-name="xiajiantou" unicode="&#xe63b;" 
d="M664 290q-10 9 -23 9t-23 -9l-74 -74v533q0 13 -9.5 22.5t-22.5 9.5t-22.5 -9.5t-9.5 -22.5v-533l-74 74q-10 9 -23 9t-22.5 -9.5t-9.5 -23t9 -22.5l152 -152l152 152q9 9 9 22.5t-9 23.5v0z" />
    <glyph glyph-name="icon12" unicode="&#xe62a;" 
d="M880 894h-609q-23 0 -39 -16t-16 -39v-83h-83q-23 0 -39.5 -16t-16.5 -39v-609q0 -23 16.5 -39.5t39.5 -16.5h609q23 0 39 16.5t16 39.5h-83h-498h-56q-11 0 -19 8t-8 19v554q0 11 8 19.5t19 8.5h56v-471q0 -23 16 -39t39 -16h609q23 0 39 16t16 39v609q0 23 -16 39
t-39 16zM880 258q0 -12 -8 -20t-20 -8h-553q-12 0 -20 8t-8 20v553q0 12 8 20t20 8h553q12 0 20 -8t8 -20v-553zM465 424h221v55h-221v-55zM465 590h221v55h-221v-55z" />
    <glyph glyph-name="shangjiantou1" unicode="&#xe61c;" 
d="M448 448h-128l192 192l192 -192h-128v-320h-128v320z" />
    <glyph glyph-name="xiajiantou1" unicode="&#xe61d;" 
d="M576 320h128l-192 -192l-192 192h128v320h128v-320z" />
    <glyph glyph-name="roundadd" unicode="&#xe645;" 
d="M512 -62q-90 0 -171.5 33.5t-145 97t-97.5 145t-34 170.5t34 170.5t97.5 145t145 97t171.5 33.5t171.5 -33.5t145 -97t97.5 -145t34 -170.5t-34 -170.5t-97.5 -145t-145 -97t-171.5 -33.5zM512 766q-77 0 -147 -29t-124.5 -83t-83.5 -123.5t-29 -146.5t29 -146.5
t83.5 -123.5t124.5 -83t147 -29t147 29t124.5 83t83.5 124t29 146.5t-29 146t-83.5 123.5t-124.5 83t-147 29zM736 416h-192v192q0 13 -9.5 22.5t-22.5 9.5t-22.5 -9.5t-9.5 -22.5v-192h-192q-13 0 -22.5 -9.5t-9.5 -22.5t9.5 -22.5t22.5 -9.5h192v-192q0 -13 9.5 -22.5
t22.5 -9.5t22.5 9.5t9.5 22.5v192h192q13 0 22.5 9.5t9.5 22.5t-9.5 22.5t-22.5 9.5z" />
    <glyph glyph-name="gonggao" unicode="&#xe618;" 
d="M558 384v-289q0 -18 -4 -28q-11 -34 -43 -19q-25 12 -50 33q-23 18 -78 64t-85 70q-19 14 -40 15q-5 1 -79.5 1h-79.5q-23 0 -29 6t-6 29q-1 135 0 237q0 23 6.5 29.5t30.5 6.5q146 1 151 1q25 1 44 16q15 12 179 147q15 13 21 14q2 1 8.5 3t10 3t8.5 2t9 1t7 -2
q8 -4 13 -16.5t5 -23.5q1 -33 1 -214v-86zM961 389q-8 -150 -96 -275q-9 -13 -31 -16q-6 -1 -14 3t-11 9q-6 8 5 24q57 88 73 173q30 163 -59 311q-1 3 -4.5 8.5t-5.5 8.5q-1 2 -6 9t-6 10.5t0.5 9t8.5 10.5q11 9 26.5 6t23.5 -17q3 -6 14 -25.5t16 -29t13 -25.5t14 -29.5
t10 -27.5q7 -19 12 -41.5t9.5 -52t7.5 -43.5zM821 388q2 -76 -37 -159q-11 -23 -35 -21q-37 3 -22 35q68 141 2 286q-6 10 -6 20.5t13 15.5q32 13 45 -14q41 -80 40 -163zM693 386q-13 -70 -14 -76q-4 -15 -16 -21.5t-27 -2.5q-24 6 -15 38q19 64 0 128q-9 30 14 37
q15 5 27.5 -1t15.5 -20q2 -7 15 -82z" />
    <glyph glyph-name="coupon" unicode="&#xe65b;" 
d="M254 583l-254 118v-782q0 -19 14.5 -33t34.5 -14h926q20 0 34.5 14t14.5 33v782l-254 -118q-107 -50 -258 -50t-258 50zM983 -52q0 -17 -13 -29t-32 -12h-852q-19 0 -32 12t-13 29v685l233 -103q99 -44 238 -44t238 44l233 103v-685zM975 896h-926q-20 0 -34.5 -14
t-14.5 -33v-84l254 -118q107 -50 258 -50t258 50l254 118v84q0 19 -14.5 33t-34.5 14zM983 789l-233 -108q-99 -35 -238 -35t-238 35l-233 108v32q0 14 13 23.5t32 9.5h852q19 0 32 -9.5t13 -23.5v-32zM692 427h-72l-80 -110q-3 -4 -13 -17h-27q-6 10 -10 15l-84 112h-68
l98 -127h-149v-52h191v-52h-191v-52h191v-142h55v142h204v52h-204v52h204v52h-145z" />
    <glyph glyph-name="xiaoxitongzhi" unicode="&#xe62c;" 
d="M940 485.5q-11 92.5 -77.5 164.5t-170.5 106.5t-220 21.5t-209.5 -69.5t-141.5 -141.5t-37 -177q9 -74 53.5 -135t114.5 -101q9 -80 -82 -149q-13 -9 10 -15q47 -13 121 19q69 28 127 89q61 -8 124 -1q116 13 209.5 69.5t141.5 141.5t37 177.5zM302.5 378q-24.5 0 -42 18
t-17.5 42.5t17.5 42t42 17.5t42 -17.5t17.5 -42t-17.5 -42.5t-42 -18zM515 378q-25 0 -42.5 18t-17.5 42.5t17.5 42t42.5 17.5t42.5 -17.5t17.5 -42t-17.5 -42.5t-42.5 -18zM727.5 378q-24.5 0 -42 18t-17.5 42.5t17.5 42t42 17.5t42 -17.5t17.5 -42t-17.5 -42.5t-42 -18z
" />
    <glyph glyph-name="txwb" unicode="&#xe631;" 
d="M542 809q77 0 144 -29t117 -79t79 -117t29 -143q0 -77 -29 -144t-79 -117t-117 -79.5t-144 -29.5h-11q-6 0 -11 1h-3q-13 2 -22 12t-9 23q0 15 10.5 25t24.5 10q4 0 10 -1l1 1h10q61 0 116 23.5t95.5 64t64 95t23.5 116t-23.5 116.5t-64 95t-95.5 63.5t-116.5 23.5
t-116 -23.5t-95 -63.5t-64 -95t-23.5 -116q0 -63 25 -120q5 -8 5 -19q0 -14 -10 -24.5t-25 -10.5q-9 0 -16.5 4t-12.5 11q-17 36 -26.5 75.5t-9.5 83.5q0 76 29 143t79 117t117.5 79t143.5 29zM713 441q0 -35 -13.5 -66.5t-36.5 -54.5t-54 -36.5t-67 -13.5q-29 0 -55.5 9
t-47.5 26q-9 -11 -23.5 -28t-31 -37.5t-33.5 -43t-32 -44.5q-21 -33 -39.5 -66.5t-31.5 -61.5q-17 -34 -30 -65l-88 3q12 37 31 77q16 34 39.5 76t56.5 84q18 23 37.5 46t38.5 43.5t35 37.5t27 28q-23 40 -24 87q0 35 13.5 66t36.5 54t54.5 36.5t66.5 13.5q36 0 67 -13.5
t54 -36.5t36.5 -54t13.5 -66z" />
    <glyph glyph-name="bitian" unicode="&#xe625;" 
d="M101 440l57 175q197 -69 286 -120q-24 224 -25 308h180q-4 -123 -29 -307q128 65 292 119l57 -175q-157 -52 -308 -69q75 -65 212 -233l-148 -104q-72 97 -169 264q-92 -173 -161 -264l-146 104q143 176 205 233q-159 31 -303 69z" />
    <glyph glyph-name="cha" unicode="&#xe619;" 
d="M766 193l-196 192l196 192l-61 60l-196 -193l-196 193l-60 -60l196 -192l-196 -192l60 -59l196 192l196 -192z" />
    <glyph glyph-name="youhuiquan" unicode="&#xe609;" 
d="M886 372l-381 382q-1 0 -1 0.5v0.5q-10 13 -26 13h-316q-14 0 -23.5 -10t-9.5 -23v-316q0 -17 13 -27v0v0l382 -382q10 -10 23.5 -10t23.5 10l315 315q10 10 10 24t-10 23v0zM262 701q20 0 35 -14.5t15 -35t-15 -35t-35.5 -14.5t-35 14.5t-14.5 35t14.5 35t35.5 14.5v0z
M262 701z" />
    <glyph glyph-name="shuaxin" unicode="&#xe624;" 
d="M884 211v0q62 135 24 277q-21 78 -71 143.5t-122 106.5l43 94l-247 -65l110 -230l46 98q100 -61 131 -176q28 -103 -17 -200q-28 -62 -78.5 -104t-113.5 -59q-18 -5 -37 -7l51 -106q10 3 15 4q86 23 156.5 81.5t109.5 142.5v0zM359 129q-102 61 -133 177q-28 103 17 200
q28 62 79 104t114 59q20 5 41 8l-51 106q-11 -3 -20 -5q-86 -23 -156.5 -81.5t-109.5 -142.5q-62 -135 -23 -277v-1q21 -78 71.5 -143.5t123.5 -106.5l-41 -90l247 66l-112 230l-47 -103v0zM359 129z" />
    <glyph glyph-name="ding" unicode="&#xe62e;" 
d="M766 689h-507q-21 0 -36 -15t-15 -36v-507q0 -21 15 -36t36 -15h507q21 0 35.5 15t14.5 36v507q0 21 -14.5 36t-35.5 15zM462 607h278v-33h-135l-15 -63h129v-223h-37v188h-178v-190h-37v225h87l13 63h-105v33zM335 200h-38q0 4 -4 19q-4 12 -4 16h25h19q25 -2 23 21v307
h-75v32h171v-32h-60v-311q4 -52 -57 -52zM717 181q-13 11 -62 54q-44 36 -61 51q-25 -63 -154 -109q-9 13 -23 33q173 42 158 167v78h34v-75q2 -34 -4 -59q73 -56 138 -111z" />
    <glyph glyph-name="tupian" unicode="&#xe60f;" 
d="M914 786h-804q-31 0 -52 -21.5t-21 -51.5v-658q0 -30 21 -51.5t52 -21.5h804q31 0 52 21.5t21 51.5v658q0 30 -21 51.5t-52 21.5zM914 55h-804v658h804v-658zM292.5 457q30.5 0 52 21.5t21.5 52t-21.5 51.5t-52 21t-52 -21t-21.5 -51.5t21.5 -52t52 -21.5zM658 494
l-216 -299l-113 152l-183 -256h732z" />
    <glyph glyph-name="icon05" unicode="&#xe63a;" 
d="M689 724q-52 52 -120.5 79.5t-137.5 27.5t-137.5 -27.5t-121 -80t-80 -121t-27.5 -137.5t27.5 -137t79.5 -121q65 -65 150.5 -91t173 -10.5t158.5 70.5l31 -31l-21 -21l172 -171q15 -16 37.5 -16t38.5 16l31 31q16 16 16 38.5t-16 38.5l-171 171l-21 -21l-31 31
q55 71 70.5 158.5t-10.5 173t-91 150.5zM269 304q-67 67 -67 161.5t67 161.5t161.5 67t161.5 -67t67 -161.5t-67 -161.5t-161.5 -67t-161.5 67z" />
    <glyph glyph-name="icon5" unicode="&#xe620;" 
d="M380 -128l392 392v-392h-392zM567 -26l80 -61l102 124l-31 24l-73 -87l-47 38z" />
    <glyph glyph-name="arrow" unicode="&#xe604;" 
d="M384 213l85 -85l256 255l-256 257l-85 -85l171 -171z" />
    <glyph glyph-name="shouji" unicode="&#xe61a;" 
d="M838 849q0 20 -13.5 33.5t-33.5 13.5h-558q-20 0 -33.5 -13.5t-13.5 -33.5v-930q0 -20 13.5 -33.5t33.5 -13.5h558q20 0 33.5 13.5t13.5 33.5v930v0zM465 803h94v-47h-94v47v0zM512 -81q-19 0 -33 13.5t-14 32.5t14 33t33 14t32.5 -14t13.5 -33t-13.5 -32.5t-32.5 -13.5
v0zM791 58h-558v652h558v-652v0z" />
    <glyph glyph-name="biaoqing" unicode="&#xe60e;" 
d="M509.5 833q90.5 0 173.5 -35.5t142.5 -95.5t95 -142.5t35.5 -173t-35.5 -173.5t-95 -142.5t-142.5 -95t-173.5 -35.5t-173 35.5t-142.5 95t-95.5 142.5t-35.5 173.5t35.5 173t95.5 142.5t142.5 95.5t173 35.5zM900 386q0 106 -52 196t-142 142.5t-196 52.5t-196 -52.5
t-142.5 -142.5t-52.5 -196t52.5 -196t142.5 -142t196 -52t196 52t142 142t52 196zM705.5 508q32.5 0 45.5 -27t-0.5 -53.5t-46 -26.5t-45.5 26.5t0.5 53.5t46 27zM337 303q3 -4 9.5 -12t25.5 -27.5t39 -34t49 -26.5t57 -12v0q87 0 165 112l46 -32q-95 -136 -211 -136
q-36 0 -72.5 14t-61 31.5t-48 40.5t-31.5 33t-12 17zM314.5 508q32.5 0 46 -27t0 -53.5t-46.5 -26.5t-46 26.5t0.5 53.5t46 27z" />
    <glyph glyph-name="xingbie" unicode="&#xe639;" 
d="M354 339q71 10 119 64.5t48 127.5q0 81 -57 138t-137.5 57t-137.5 -57t-57 -138q0 -73 48 -127.5t120 -64.5v-94h-126v-54h126v-126h54v126h126v54h-126v94zM186 531q0 58 41.5 99.5t99.5 41.5t99 -41.5t41 -99.5t-41 -99t-99 -41t-99.5 41t-41.5 99zM503 235
q0 -81 57 -138t137.5 -57t137.5 57t57 138q0 73 -48 127.5t-120 64.5v198l51 -52l38 38l-89 90v0v0l-27 27l-116 -117l38 -38l51 52v-198q-71 -10 -119 -64.5t-48 -127.5zM838 235q0 -58 -41 -99.5t-99.5 -41.5t-99.5 41t-41 99.5t41 99.5t99 41t99.5 -41t41.5 -99z" />
    <glyph glyph-name="jiantou2" unicode="&#xe61e;" 
d="M184 383l520 -510l120 123l-399 392l415 382l-128 126z" />
    <glyph glyph-name="iconfontforward" unicode="&#xe60b;" 
d="M972 464q0 20 -14 31l-373 302q-1 0 -2.5 1.5t-7 3.5t-10.5 3t-12.5 0.5t-14.5 -4.5q-2 -1 -6 -3.5t-10.5 -12.5t-6.5 -23v-131q-5 0 -14.5 -1t-39 -7t-58 -15t-68 -27.5t-74 -42.5t-71 -63t-63 -85.5t-45.5 -112t-24 -141.5q0 -18 11 -31t29 -13q1 1 4.5 0t10 1.5t13 6
t11.5 12.5t7 21q0 3 1.5 8t10.5 19t23 27.5t42.5 31t65.5 30.5t96.5 24.5t131.5 15.5v-128q2 -29 26 -39q27 -9 44 7l372 300v0q17 14 15 35z" />
    <glyph glyph-name="youjiantou" unicode="&#xe61f;" 
d="M823 376l-109 112h-1l-399 408l-113 -116l399 -408l-380 -388l110 -112l380 388v0l113 115v1v0z" />
    <glyph glyph-name="shenfenrenzheng" unicode="&#xe629;" 
d="M768 381q-80 0 -136 -55.5t-56 -134.5t56 -135t136 -56t136 56t56 135t-56 134.5t-136 55.5zM766 67q-8 -7 -18.5 -7t-18.5 7l-81 80q-8 7 -8 17.5t7.5 18t18 7.5t18.5 -8l63 -62l123 120q7 8 18 8t18.5 -7.5t7.5 -18t-8 -17.5zM812 611h-255q-8 0 -13.5 -5.5t-5.5 -13.5
t5.5 -13.5t13.5 -5.5h255q8 0 13.5 5.5t5.5 13.5t-5.5 13.5t-13.5 5.5zM812 516h-255q-8 0 -13.5 -5.5t-5.5 -13.5t5.5 -13.5t13.5 -5.5h255q8 0 13.5 5.5t5.5 13.5t-5.5 13.5t-13.5 5.5zM645 401q0 8 -5.5 14t-13.5 6h-69q-8 0 -13.5 -6t-5.5 -14t5.5 -13.5t13.5 -5.5h69
q8 0 13.5 5.5t5.5 13.5zM301.5 372q-5.5 -6 -15.5 -12q-13 -8 -30 -12.5t-33 -10.5q-16 -5 -28 -14.5t-14 -27.5q-5 -32 -2 -51.5t7 -23.5q3 -3 14 -5.5t28 -4.5q16 -2 35.5 -4.5t39.5 -4.5q21 -1 38 -2q19 -1 33.5 -1t32.5 1t41 2q21 2 41 5q11 1 22 3v135q-4 1 -7 2
q-14 4 -27 9t-20.5 12t-11.5 14.5t-4.5 15t1.5 14.5q2 13 7 18q6 4 16 12q3 3 6.5 9.5t5.5 12.5q3 7 5 15q5 2 9 6q4 3 7 9t4 16q1 8 0 13.5t-3 8.5q-2 4 -5 7q0 20 -3 39q-2 17 -8 36q-6 18 -18 34q-6 7 -15.5 13.5t-21.5 12t-26 8.5t-28 3q-11 0 -23 -1.5t-24 -6.5
t-23 -13.5t-21 -21.5q-10 -14 -15 -32.5t-7 -33.5q-2 -18 -2 -37q-4 -5 -6 -10t-3 -12t2 -15t6.5 -12.5t6.5 -6.5q3 -3 6 -4q3 -8 5 -15q3 -7 5.5 -13t6.5 -9q9 -7 15 -13q7 -7 8 -18q1 -8 1 -14t-2.5 -12t-8 -12zM142 158q-19 2 -31.5 16t-12.5 33v480q0 20 14.5 34
t34.5 14h726q21 0 36 -14t15 -34v-298q19 -14 34 -31v346q0 27 -20.5 45.5t-48.5 18.5h-759q-27 0 -46.5 -18.5t-19.5 -45.5v-513q0 -26 17 -45t42 -21h400q-5 16 -7 33h-374z" />
    <glyph glyph-name="jiaguanzhu" unicode="&#xe626;" 
d="M959 474h-358v358h-179v-358h-358v-179h358v-358h179v358h358v179z" />
    <glyph glyph-name="mobilefill" unicode="&#xe64d;" 
d="M512 32v32v0v-32zM736 832h-448q-26 0 -45 -19t-19 -45v-768q0 -26 19 -45t45 -19h448q26 0 45 19t19 45v768q0 26 -19 45t-45 19zM512 0q-26 0 -45 18.5t-19 45t19 45.5t45 19t45 -19t19 -45.5t-19 -45t-45 -18.5zM704 192h-384v544h384v-544z" />
    <glyph glyph-name="yinhao02" unicode="&#xe627;" 
d="M631 561h-70l70 99h-70v183h183v-183zM293 561l71 99h-71v183h183v-183l-112 -99h-71z" />
    <glyph glyph-name="yinhao03" unicode="&#xe628;" 
d="M377 843h70l-70 -99h70v-183h-183v183zM715 843l-71 -99h71v-183h-183v183l112 99h71z" />
    <glyph glyph-name="weixin" unicode="&#xe632;" 
d="M664 527q13 0 30 -1q-20 92 -108.5 153t-202.5 61q-127 0 -217.5 -75.5t-90.5 -184.5q0 -120 123 -205l-31 -92l108 53q78 -15 108 -15q13 0 29 1q-10 33 -10 64q0 100 76.5 170.5t185.5 70.5zM499 610q17 0 27.5 -10.5t10.5 -27.5t-10.5 -27.5t-27.5 -10.5q-19 0 -33 11
t-14 27.5t14 27t33 10.5zM283 534q-18 0 -32 11t-14 27.5t14 27t32 10.5q17 0 27.5 -10.5t10.5 -27.5t-10.5 -27.5t-27.5 -10.5zM945 290q0 90 -78 155.5t-183 65.5q-110 0 -186 -64.5t-76 -156.5t76 -156.5t186 -64.5q31 0 92 15l85 -46l-23 76q107 80 107 176zM599 328
q-12 0 -21.5 9.5t-9.5 21t9.5 21t21.5 9.5q17 0 27.5 -9.5t10.5 -21.5t-10.5 -21t-27.5 -9zM768 328q-11 0 -20.5 9.5t-9.5 21t9.5 21t20.5 9.5q17 0 28 -9.5t11 -21.5t-11 -21t-28 -9z" />
    <glyph glyph-name="sanjiao4" unicode="&#xe64b;" 
d="M819 823v-878l-614 439z" />
    <glyph glyph-name="sanjiao3" unicode="&#xe64c;" 
d="M205 -55v878l614 -439z" />
    <glyph glyph-name="chanpin" unicode="&#xe61b;" 
d="M622 540q1 5 3.5 15t11.5 38.5t19.5 54.5t27.5 58t35 55.5t42 39.5t50 17q44 1 75.5 -13t46.5 -38.5t21 -49.5t5 -50q-3 -49 -41.5 -87t-77.5 -45v50q3 1 8 2.5t17.5 8.5t22.5 15.5t18 24t8 33.5q0 44 -25.5 78t-77.5 28q-25 -3 -50 -31t-42.5 -65t-31.5 -75.5t-21.5 -63
t-7.5 -25.5l-13 -13zM753 682h35v-272q1 -10 -6 -23t-14 -21l-6 -8l-405 -401l-295 299q360 358 399 398q13 12 24.5 19t17.5 8l5 1h114h97l-48 -122l5 -24l1 -25q-4 -16 -16.5 -26t-28.5 -10q-19 0 -33.5 14.5t-14.5 33.5q0 11 11 26.5t26 18.5l14 44q-43 -8 -67 -33.5
t-24 -56.5q0 -37 26 -63t63 -26t63 26t26 63q-1 15 -9 39q-2 7 4 28t13 39l7 18z" />
    <glyph glyph-name="iconfontxiangyou" unicode="&#xe65f;" 
d="M667 728l-39 40l-366 -366l366 -366l39 40l-326 326z" />
    <glyph glyph-name="iconfontweibowukuang" unicode="&#xe633;" 
d="M727 425q-16 3 -20.5 9.5t-0.5 11.5l3 4q1 3 3 7t6 15.5t4.5 22.5t-4.5 25.5t-16 25.5q-14 14 -37 18.5t-46 1t-44 -9t-33 -11.5l-13 -5q-10 -3 -17 -4.5t-10.5 0t-5.5 3.5t-2 7.5t1 9t3 12.5t3 14q0 15 -2.5 27.5t-11 27t-23 22t-41 7t-62.5 -12.5q-35 -12 -71.5 -36
t-64 -49.5t-50 -49.5t-34.5 -40l-12 -15q-33 -44 -48.5 -87.5t-16.5 -65t0 -21.5q6 -48 30 -86.5t57 -62t78.5 -40t86.5 -24.5t88 -11q76 -6 157 11.5t151 61t99 103.5q17 36 17.5 67t-10.5 51t-29.5 35t-34 22t-27.5 9v0zM415 112q-110 -5 -188 42.5t-78 119.5t77.5 124
t188.5 57q112 5 188.5 -37t76.5 -113q0 -73 -78 -130.5t-187 -62.5v0zM385 391q-30 -3 -53.5 -13.5t-37 -23.5t-22.5 -30t-12.5 -30.5t-4.5 -28t-0.5 -19.5t0.5 -8v0v-5t2 -11.5t5.5 -16.5t12 -17t19.5 -15q67 -32 126 -19.5t94 58.5q14 17 18.5 42t-2 50.5t-22.5 47
t-48.5 33t-74.5 6.5v0zM348 200q-20 -2 -35 8t-15 27q0 18 14 32.5t34 16.5q23 2 37.5 -9t14.5 -29q0 -16 -14.5 -30t-35.5 -16v0zM435 273q-7 -5 -14.5 -4.5t-11.5 6.5t-2 14.5t9 13.5q8 6 15.5 5t11.5 -7q3 -7 1 -15t-9 -13v0zM798 484q9 0 16 6t8 14v3q4 32 -1 57
t-16.5 39t-26.5 23t-30.5 11.5t-28.5 3t-21 -0.5l-8 -1q-10 0 -17 -7t-7 -17t7 -17t17 -7q32 6 50.5 0.5t26 -19.5t9 -28t0.5 -25l-2 -11q0 -10 7 -17t17 -7v0zM781 763q-51 12 -121 -1l-1.5 -1l-1.5 -1h-1q-11 -3 -18.5 -12.5t-7.5 -21.5q0 -14 10.5 -24.5t25.5 -10.5
q18 3 31 8q6 0 18.5 1.5t33.5 -3.5t42 -13t43 -26.5t37 -43.5q28 -60 11 -115q-7 -17 -7 -34q0 -14 10 -22.5t25 -8.5t23 5.5t11 23.5v0q19 57 14.5 102.5t-20 79t-43.5 58t-56 39t-58 21.5v0zM781 763z" />
    <glyph glyph-name="dianhua1" unicode="&#xe64e;" 
d="M165 232q-29 -33 -29.5 -74.5t27.5 -66.5l111 -100l6 -4q11 -8 27 -10q41 -6 105 25q62 31 134.5 91t141.5 140t118 160.5t70 147.5q31 97 -3 135l-4 5l-112 99q-18 16 -42 19q-25 4 -51 -6.5t-45 -32.5l-70 -82q-29 -34 -29.5 -75.5t27.5 -66.5l106 -95
q-37 -53 -81 -105q-45 -52 -92 -96l-107 95q-18 15 -42 19q-25 3 -51 -7.5t-45 -32.5l-70 -82v0zM708 750q10 -2 16 -8l12 -10l-146 -167l-11 9q-11 10 -10 28q0 23 17 43l70 81q24 28 52 24v0zM236 95l146 167l78 -71l21 -19l32 31q49 46 96 100q46 54 85 109l26 37l-34 30
l-64 57l148 169l65 -61l2 -2q13 -19 -8 -86q-20 -60 -65 -135q-47 -78 -113.5 -155t-136.5 -135q-66 -56 -123 -83q-51 -25 -77 -21q-4 0 -6 1l-2 2zM185 157q0 22 17 42l70 82q24 27 52 23q10 -1 16 -7l9 -8l-145 -167l-9 6q-11 10 -10 29v0z" />
    <glyph glyph-name="share-qzone" unicode="&#xe634;" 
d="M644 448h-269l177 -29l-190 -154h289l-171 36zM896 655q0 48 -34.5 82.5t-82.5 34.5h-536q-48 0 -82.5 -34.5t-34.5 -82.5v-536q0 -48 34.5 -82.5t82.5 -34.5h536q48 0 82.5 34.5t34.5 82.5v536zM756 431l-98 -85l32 -211q-6 -6 -13 -6l-171 105l-172 -105q-10 0 -12 0.5
t-2 5.5l25 211l-103 92l-35 26v4h89h112l26 45l66 137h13l72 -137l27 -45h111h66h3q3 0 3.5 -0.5t0.5 -4.5z" />
    <glyph glyph-name="newfill" unicode="&#xe636;" 
d="M387 114zM286 155zM512 832q-121 0 -224.5 -51.5t-163.5 -140t-60 -192.5q0 -87 45 -165.5t126 -133.5l87 -71q-7 -35 -33 -98q-8 -20 8 -35q9 -9 22 -9q7 0 13 3q144 64 188 125q119 2 220.5 54t160.5 139.5t59 190.5q0 104 -60 192.5t-163.5 140t-224.5 51.5zM731 489
l-129 -188q-9 -14 -26 -14h-1q-17 0 -26 14l-92 142l-71 -139q-9 -17 -29 -17q-7 0 -14 3q-12 6 -16 18.5t2 24.5l97 189q8 17 27 17q18 1 28 -14l96 -149l101 149q8 11 21 13.5t24 -5t13.5 -20.5t-5.5 -24z" />
    <glyph glyph-name="shouyezhuyetubiao06" unicode="&#xe637;" 
d="M827 770h-233q-25 0 -42 -17.5t-17 -41.5t17 -41t42 -17h92l-114 -114q-84 57 -188.5 47t-178.5 -84q-85 -86 -85 -206.5t85.5 -206t206 -85.5t206.5 85q74 75 84 179t-47 189l114 113v-92q0 -24 17 -41.5t41 -17.5t41 17.5t17 41.5v233q0 24 -17 41.5t-41 17.5zM535 172
q-51 -51 -123.5 -51t-124 51t-51.5 123.5t51.5 124t124 51.5t123.5 -51.5t51 -124t-51 -123.5z" />
    <glyph glyph-name="iconfontfuxuankuangxuanzhongdagou" unicode="&#xe62d;" 
d="M821 554l-85 57l-238 -359l-190 127l-56 -84l274 -184z" />
    <glyph glyph-name="shouyezhuyetubiao07" unicode="&#xe638;" 
d="M798.5 682.5q-85.5 85.5 -206.5 85.5t-206 -85q-74 -75 -84 -179t47 -189l-46 -45l-82 83q-17 17 -41.5 17t-41.5 -17.5t-17 -41.5t17 -41l83 -83l-83 -82q-17 -17 -17 -41t17 -41.5t41.5 -17.5t41.5 17l82 83l83 -83q17 -17 41 -17t41 17.5t17 41.5t-17 41l-82 82l45 46
q85 -57 189 -47t178 84q86 85 86 206t-85.5 206.5zM716 352.5q-51 -51.5 -123.5 -51.5t-124 51.5t-51.5 124t51.5 123.5t124 51t123.5 -51t51 -123.5t-51 -124z" />
    <glyph glyph-name="cart" unicode="&#xe646;" 
d="M861 186l147 388q3 10 -3 18.5t-17 8.5h-489q-9 0 -15 -6t-6 -14.5t6 -14.5t15 -6h460l-131 -346h-370l-140 562v0v1q-13 45 -36 65q-27 25 -76 25h-136q-1 0 -2 -1q-16 0 -27.5 -12t-11.5 -28q0 -17 12 -29t29 -12t29 12t12 29h95q33 0 49 -14q14 -13 24 -47l163 -658v0
q6 -22 10 -34t16 -28t29 -25q-19 -22 -19 -51q0 -34 24 -58t58 -24t58 24t24 58q0 22 -11 40h123q-10 -18 -10 -40q0 -34 23.5 -58t57.5 -24t58 24t24 58t-24 57.5t-58 23.5h-4v0v0v0h-2h-265q-20 0 -32.5 3.5t-20 14t-11 19.5t-8.5 30l-14 56h374q14 0 19 13zM866 -31
q0 -17 -12 -29t-29 -12t-29 12t-12 29t12 28.5t29 11.5t29 -11.5t12 -28.5zM560 9q17 0 29 -11.5t12 -28.5t-12 -29t-29 -12t-29 12t-12 29t12 28.5t29 11.5z" />
    <glyph glyph-name="xiajianhao" unicode="&#xe647;" 
d="M150 605l362 -362l362 362h86l-415 -416l-22 -21q-11 -11 -22 0l-21 21l-416 416h86z" />
    <glyph glyph-name="shangjianhao" unicode="&#xe648;" 
d="M889 180l-361 361l-362 -361h-87l416 416l22 21q11 11 21 0l22 -21l416 -416h-87z" />
    <glyph glyph-name="link" unicode="&#xe657;" 
d="M440 260q-21 0 -37 15q-71 72 -71 173t71 173l192 192q72 71 173 71t172.5 -71.5t71.5 -172.5t-71 -173l-88 -87q-15 -15 -36.5 -15t-37 15t-15.5 36.5t15 36.5l88 88q41 41 41 99t-41 99t-99 41t-99 -41l-192 -192q-41 -41 -41 -99t41 -99q15 -15 15 -36.5t-15 -37
t-37 -15.5v0zM256 -116q-101 0 -172.5 71.5t-71.5 172.5t71 173l88 87q15 16 37 16t37 -15.5t15 -37t-15 -36.5l-88 -88q-41 -41 -41 -99t41 -99t99 -41t99 41l192 192q41 41 41 99t-41 99q-15 15 -15 36.5t15 37t36.5 15.5t37.5 -15q71 -72 71 -173t-71 -173l-192 -192
q-72 -71 -173 -71v0z" />
    <glyph glyph-name="dingxiang" unicode="&#xe64f;" 
d="M512 -128q-8 6 -21.5 17t-52.5 47.5t-74.5 74t-79 93.5t-74.5 109.5t-52.5 118.5t-21.5 125q0 102 50.5 188.5t137 137t188.5 50.5t188.5 -50.5t137 -137t50.5 -188.5q0 -60 -21.5 -125.5t-52.5 -119.5t-74.5 -109.5t-79 -93t-74.5 -73.5t-52.5 -47t-21.5 -17v0zM512 749
q-121 0 -206.5 -85.5t-85.5 -206.5q0 -158 203 -383q49 -55 89 -91q12 11 31.5 30.5t70 76.5t89 111.5t70 126t31.5 129.5q0 121 -85.5 206.5t-206.5 85.5zM512 332q-52 0 -88.5 36.5t-36.5 88.5t36.5 88.5t88.5 36.5t88.5 -36.5t36.5 -88.5t-36.5 -88.5t-88.5 -36.5z
M512 499q-17 0 -29.5 -12.5t-12.5 -29.5t12.5 -29.5t29.5 -12.5t29.5 12.5t12.5 29.5t-12.5 29.5t-29.5 12.5z" />
    <glyph glyph-name="calendar" unicode="&#xe650;" 
d="M128 -33q-32 0 -54.5 22.5t-22.5 55.5v700l-25 -26h870q32 0 54.5 -23t22.5 -55v-584q0 -10 7.5 -18t18 -8t18 8t7.5 18v584q0 54 -37.5 92t-90.5 38h-870q-11 0 -18.5 -7.5t-7.5 -18.5v-700q0 -54 37.5 -92t90.5 -38h755q11 0 18.5 7.5t7.5 18t-7.5 18.5t-18.5 8h-755z
M282 641q0 -11 7.5 -18.5t18 -7.5t18 7.5t7.5 18.5v195q0 10 -7.5 18t-18 8t-18 -8t-7.5 -18v-195zM717 654q0 -11 7.5 -18.5t18 -7.5t18 7.5t7.5 18.5v195q0 10 -7.5 18t-18 8t-18 -8t-7.5 -18v-195zM333 485q10 0 17.5 8t7.5 18.5t-7.5 18t-17.5 7.5h-141
q-11 0 -18.5 -7.5t-7.5 -18t7.5 -18.5t18.5 -8h141zM614 485q11 0 18.5 8t7.5 18.5t-7.5 18t-18.5 7.5h-140q-11 0 -18.5 -7.5t-7.5 -18t7.5 -18.5t18.5 -8h140zM870 485q11 0 18.5 8t7.5 18.5t-7.5 18t-18.5 7.5h-140q-11 0 -18.5 -7.5t-7.5 -18t7.5 -18.5t18.5 -8h140z
M333 330q10 0 17.5 7.5t7.5 18t-7.5 18.5t-17.5 8h-141q-11 0 -18.5 -8t-7.5 -18.5t7.5 -18t18.5 -7.5h141zM614 330q11 0 18.5 7.5t7.5 18t-7.5 18.5t-18.5 8h-140q-11 0 -18.5 -8t-7.5 -18.5t7.5 -18t18.5 -7.5h140zM870 330q11 0 18.5 7.5t7.5 18t-7.5 18.5t-18.5 8h-140
q-11 0 -18.5 -8t-7.5 -18.5t7.5 -18t18.5 -7.5h140zM333 174q10 0 17.5 7.5t7.5 18.5t-7.5 18.5t-17.5 7.5h-141q-11 0 -18.5 -7.5t-7.5 -18.5t7.5 -18.5t18.5 -7.5h141zM614 174q11 0 18.5 7.5t7.5 18.5t-7.5 18.5t-18.5 7.5h-140q-11 0 -18.5 -7.5t-7.5 -18.5t7.5 -18.5
t18.5 -7.5h140zM870 174q11 0 18.5 7.5t7.5 18.5t-7.5 18.5t-18.5 7.5h-140q-11 0 -18.5 -7.5t-7.5 -18.5t7.5 -18.5t18.5 -7.5h140z" />
    <glyph glyph-name="gouwuche1" unicode="&#xe656;" 
d="M374 129q-40 0 -68 -28t-28 -67.5t28 -67.5t68 -28t68 28t28 67.5t-28 67.5t-68 28zM374 -20q-22 0 -37.5 16t-15.5 38t15.5 37.5t37.5 15.5t37.5 -15.5t15.5 -37.5t-15.5 -38t-37.5 -16zM215 704l-22 128h-128v-43h89l103 -596h596v43h-557l-12 66l569 61l106 298v43
h-744zM831 406l-554 -62l-55 317h688zM735.5 129q-39.5 0 -67.5 -28t-28 -67.5t28 -67.5t67.5 -28t67.5 28t28 67.5t-28 67.5t-67.5 28zM736 -20q-22 0 -38 16t-16 38t16 37.5t38 15.5t37.5 -15.5t15.5 -37.5t-15.5 -38t-37.5 -16z" />
    <glyph glyph-name="haoyouyaoqing" unicode="&#xe65c;" 
d="M856 543q0 99 -69.5 168.5t-168 69.5t-168 -69.5t-69.5 -168.5q0 -66 34 -122t91 -87q-91 -38 -148 -120.5t-57 -184.5q0 -15 2 -30q12 -10 25 -9.5t28 8.5q-2 15 -2 31q0 115 81.5 196t195.5 81h12h2q52 8 96 34v0q53 32 84 86t31 117zM618.5 359q-76.5 0 -131 54
t-54.5 130.5t54.5 130.5t131 54t130.5 -54t54 -130.5t-54 -130.5t-130.5 -54zM844 281q-17 0 -27 -10t-14 -25q49 -39 77.5 -95.5t28.5 -121.5q0 -16 -2 -32q15 -9 28 -8t25 11q1 15 1 29q0 74 -31 140t-86 112zM381 332h1q25 4 25 27q0 10 -6.5 17t-13.5 8l-6 1
q-75 -3 -80 0l-5 3t-10.5 7t-14 11.5t-15.5 16.5t-15 21.5t-12 26.5t-7 33t0 39q4 40 20.5 69t38.5 42t40.5 18t32.5 3q1 0 3.5 0.5t4.5 1t5 1.5t5.5 2.5t4.5 4.5t3 7t1 10q-1 4 -1.5 7t-1.5 5.5t-2.5 4.5t-2.5 3.5t-3 2.5l-3 1.5t-3.5 1t-3 0.5h-3h-3.5q-4 1 -13 0.5
t-27.5 -4t-36.5 -10.5t-38 -22.5t-35 -37t-25 -57t-9 -80.5q0 -27 5.5 -50.5t13 -38t15.5 -25t13 -14.5l5 -4q-5 -1 -14.5 -5t-35 -22t-45.5 -44t-39 -77t-24 -116v-79q1 -1 0 -6.5t5.5 -12.5t20.5 -7q10 -1 16 1.5t8.5 9t3 10.5t0 16t-0.5 15q0 1 -1 17t-1 28.5t3 35.5
t8.5 41.5t17 41t28.5 40t43.5 34t59.5 26.5q4 1 30.5 1h50.5z" />
    <glyph glyph-name="qq1" unicode="&#xe64a;" 
d="M871 319q18 -51 24 -84.5t3 -39.5l-3 -8q-6 -3 -16.5 -6t-25.5 0q-8 2 -21 9.5t-22 15.5l-10 7q-6 -18 -15 -35l-25 -39q29 -9 46 -27q9 -9 12.5 -18t3.5 -14v-6q0 -30 -40 -48q-26 -12 -57 -18.5t-48 -6.5h-18q-6 -3 -69 10q-11 1 -21 5q-9 3 -20 7t-15 6l-22 3
q-9 1 -21 -3q-1 0 -21.5 -8.5t-34.5 -9.5l-69 -10q-64 -1 -123 25q-12 4 -20.5 11t-12 14t-5 12t-1.5 8l-2 3q-3 17 17 38q4 4 10.5 8.5t12.5 8t11 6.5t8 3l3 1q-13 20 -24 39l-15 35q-36 -29 -53 -32q-17 -1 -26.5 0.5t-12.5 4.5l-3 2q-17 13 24 131q5 13 11 29q6 14 11 23
q5 10 10 18q6 9 9.5 14t6.5 8l5 5l1 1v17q-1 11 0 42q2 30 8 61q6 30 25 70t48 74q36 42 92 63t94 23h37q3 -2 16 -0.5t40.5 -3t54.5 -11.5q27 -8 59 -26t54 -45q29 -34 48 -73t25 -72t8 -60t1 -42l-2 -17q29 -24 55 -98v0zM343 111q70 -66 169.5 -66t169 66t69.5 160
q0 39 -13 77q-96 -77 -226 -77t-225 77q-14 -38 -14 -77q0 -94 70 -160zM408 475q-70 -26 -67 -39q0 -10 17 -20q4 -3 9.5 -6t11 -4.5t10 -2.5t7.5 -1h3q-5 5 -9 14l-6 15q29 -27 72 -42q14 -6 28.5 -8.5t20.5 -2.5l7 2q26 -3 56 9q20 6 38 16.5t26 17.5l9 8q-3 -9 -6 -15
l-9 -14q26 3 41 14q7 4 11.5 8.5t4.5 8.5v3q0 1 -1.5 4t-17 13t-47.5 22q-20 6 -46.5 10.5t-41.5 4.5l-17 1q-58 -1 -104 -16zM437 665q-23 0 -38 -21.5t-15 -53.5q0 -15 3.5 -29.5t11.5 -24.5t17.5 -16t20.5 -6q22 0 37.5 22t15.5 54q0 15 -4 29q-4 15 -11.5 24.5
t-17.5 15.5t-20 6zM455 560q-23 0 -23 30t23 30t23 -30t-23 -30zM626 643.5q-15 21.5 -38 21.5t-38 -21.5t-15 -53.5t15 -54t38 -22t38 22t15 54t-15 53.5zM552.5 570.5q-6.5 1.5 -5.5 7.5q3 15 11.5 27t20.5 11q23 -4 20 -46q-2 -6 -8 -6q-8 2 -6 8q2 28 -8 30
q-12 1 -16 -27q-2 -6 -8.5 -4.5z" />
    <glyph glyph-name="phone1" unicode="&#xe651;" 
d="M595 221q65 37 82 45q28 15 45 5q11 -7 81.5 -53.5t80.5 -53.5q9 -7 10.5 -21.5t-9.5 -31.5q-20 -29 -59 -69.5t-59 -40.5q-158 5 -395.5 242.5t-242.5 395.5q0 20 40.5 59t69.5 59q17 11 31.5 9.5t21.5 -10.5q6 -9 52.5 -79t54.5 -83q10 -17 -5 -45l-46 -82
q27 -44 115 -132q39 -39 72 -68t47 -37z" />
    <glyph glyph-name="jia1" unicode="&#xe652;" 
d="M581 458v360h-144v-360h-360v-144h360v-360h144v360h360v144h-360z" />
    <glyph glyph-name="jian1" unicode="&#xe653;" 
d="M587 458h-6h-504v-144h504h6h354v144h-354z" />
    <glyph glyph-name="31sousuo" unicode="&#xe654;" 
d="M934 11l-196 189l2 3q82 101 82 231q0 101 -49.5 186t-134.5 134.5t-185.5 49.5t-185.5 -49.5t-134.5 -134.5t-49.5 -185.5t49.5 -185.5t134.5 -134.5t186 -49.5q138 0 242 91l3 2l195 -187h2v-1q8 -6 17 -6q12 0 20.5 8.5t8.5 21.5q0 9 -7 17zM452.5 124
q-128.5 0 -219.5 91t-91 219.5t91 219.5t219.5 91t219.5 -91t91 -219.5t-91 -219.5t-219.5 -91z" />
    <glyph glyph-name="arrowdownc" unicode="&#xe65e;" 
d="M767 251l-210 -201q-17 -18 -45 -18q-27 0 -44 18l-211 201q-19 17 -19 42.5t19 43.5t45 18t45 -18l101 -96v434q0 25 18.5 43t45.5 18t45.5 -18t18.5 -43v-434l101 96q19 18 45 18t45 -18t19 -43t-19 -43z" />
    <glyph glyph-name="fenxiang" unicode="&#xe63d;" horiz-adv-x="1304" 
d="M1118 378q-14 0 -24 -10t-10 -24v-321q0 -31 -22 -52.5t-53 -21.5h-716q-31 0 -53 21.5t-22 52.5v674q0 31 22 53t53 22h234q14 0 23.5 10t9.5 24t-9.5 24t-23.5 10h-234q-59 0 -100.5 -42t-41.5 -101v-674q0 -59 41.5 -100.5t100.5 -41.5h716q59 0 101 41.5t42 100.5
v321q0 14 -10 24t-24 10v0zM406 179q-3 -14 5 -25.5t22 -13.5q3 -1 6 -1q12 0 21.5 8t11.5 20q3 15 10.5 44t38.5 104t72 138q83 124 197 195q108 68 244 84l-111 -114q-10 -11 -9.5 -25t10.5 -23q10 -10 24 -10t24 10l171 177v0q1 0 1 1v0h1v1v0l0.5 0.5l0.5 0.5v0q0 1 1 1
v0.5v0.5v0l1 1v0v0.5v0.5l1 1v0v0v0.5t0.5 1l0.5 0.5v1l0.5 0.5l0.5 0.5v1v1v0v1q1 0 1 0.5v0.5v0v1v1v0v1v0v1v0l1 1v0v1v0v0v0v1v0v0v2v0v1v0l-1 1v0v0v0v1v1v0v1v0v0v0v1v0.5t-1 0.5v1v1v0v1v0l-1 1v0v1v0v0v0l-1 1v0q0 1 -1 2v0q0 1 -1 1v1v0v0v0v1h-1v0v1v0l-1 1v0v0
l-0.5 0.5l-0.5 0.5v0l-1 1v0q-1 1 -1 2h-1l-1 1v0l-1 1v0h-1v1h-1v0l-1 1v0h-0.5h-0.5l-0.5 0.5l-0.5 0.5h-0.5t-1 0.5t-1 0.5h-1h-0.5q0 1 -1 1v0l-249 82q-14 5 -26.5 -1.5t-17 -19.5t2 -26t19.5 -17l100 -33q-110 -24 -204 -82q-127 -79 -217 -216q-29 -43 -53 -90.5
t-37 -82.5t-23.5 -70t-13.5 -47.5t-4 -20.5v0zM406 179z" />
    <glyph glyph-name="douban1193382easyiconnet" unicode="&#xe658;" 
d="M927 858q24 0 41.5 -17.5t17.5 -41.5v-830q0 -24 -17.5 -41.5t-41.5 -17.5h-830q-24 0 -41.5 17.5t-17.5 41.5v830q0 24 17.5 41.5t41.5 17.5h830zM177 720v-77h649v77h-649zM218 580v-312h56l67 -142h-184v-75h686v75h-189l69 142h61v312h-566zM685 503v-161h-372v161
h372zM571 126h-144l-67 142h279z" />
    <glyph glyph-name="qzone1193405easyiconnet" unicode="&#xe659;" 
d="M505 836q-3 -2 -10 -9.5t-7 -10t-46 -97t-48 -101.5q-2 -5 -4 -8q-2 -2 -13 -26q-12 -24 -18 -29q-8 -6 -30.5 -9.5t-168.5 -19.5q-97 -11 -103 -16q-3 -3 -4 -10.5t1 -12.5q2 -4 85 -80q9 -9 27 -25q81 -75 94.5 -88.5t13.5 -18.5q-1 -1 -1 -2q0 -8 -6 -40
q-4 -20 -18 -94q-12 -63 -17 -89q-11 -56 -12 -67.5t5 -17.5q9 -10 37 5q21 10 62 35q32 18 43 24q14 8 35 21q20 12 21 12t14.5 8.5t15 8.5t17.5 9q32 20 47 17q9 -2 23 -9q62 -33 196 -113q27 -16 38 -20.5t20 -1.5q11 3 7 37q-2 18 -4 26q-2 10 -26 138q-5 34 -4 40.5
t14 11.5q34 14 32 22q-2 2 -44 -5q-57 -11 -118 -17q-89 -8 -199 -4q-128 4 -137 10q-2 1 -1 5.5t4.5 7.5t71.5 51q185 132 196 141q8 8 1 11q-6 2 -36 5q-77 10 -201 16q-67 3 -77 5q-13 2 6 6q68 13 209 17h45q100 -3 169 -12q29 -4 34.5 -5.5t5.5 -4.5q0 -2 -13.5 -12
t-79.5 -56q-16 -11 -35 -24t-34 -23t-18 -13q-20 -14 -25 -17q-37 -25 -62 -44q-13 -9 -13 -12q0 -5 43 -10q64 -8 154 -11t96 2q2 2 -1 16q-4 14 -4 16q0 5 86 85q99 93 117 111t18 25q0 15 -17 19q-8 2 -68 8q-34 3 -78 7q-6 1 -25.5 3t-26.5 3q-87 9 -93 11
q-7 4 -20.5 31.5t-61.5 135.5q-49 111 -56 117q-10 9 -20 5v0z" />
    <glyph glyph-name="fenxiang2" unicode="&#xe65a;" horiz-adv-x="1026" 
d="M856 896q-70 0 -119.5 -49.5t-49.5 -119.5q0 -40 19 -77l-389 -192q-22 40 -61.5 63.5t-86.5 23.5q-70 0 -119.5 -49.5t-49.5 -119.5t49.5 -119.5t119.5 -49.5q41 0 77 19t59 51l228 -165q-15 -34 -15 -71q0 -70 49.5 -119.5t119.5 -49.5t119.5 49.5t49.5 119.5
t-49.5 119.5t-119.5 49.5q-75 0 -126 -57l-232 169q9 27 9 54q0 18 -4 35l401 198q50 -51 121 -51q70 0 119.5 49.5t49.5 119.5t-49.5 119.5t-119.5 49.5zM687 160q49 0 84 -35t35 -84t-35 -84t-84 -35t-84 35t-35 84t35 84t84 35zM169 257q-49 0 -84 35t-35 84.5t35 84
t84 34.5t84 -34.5t35 -84t-35 -84.5t-84 -35zM856 608q-49 0 -84 35t-35 84t35 84t84 35t84 -35t35 -84t-35 -84t-84 -35z" />
    <glyph glyph-name="quanbu" unicode="&#xe661;" 
d="M446 892h-398q-19 0 -32 -13t-13 -31v-398q0 -19 13 -32t32 -13h398q18 0 31.5 13t13.5 32v398q0 18 -13.5 31t-31.5 13zM434 461h-374v375h374v-375zM978 892h-398q-18 0 -31 -13t-13 -31v-398q0 -19 13 -32t31 -13h398q19 0 32 13t13 32v398q0 18 -13 31t-32 13z
M967 461h-375v375h375v-375zM446 359h-398q-19 0 -32 -13t-13 -31v-398q0 -19 13 -32t32 -13h398q18 0 31.5 13t13.5 32v398q0 18 -13.5 31t-31.5 13zM434 -72h-374v375h374v-375zM978 359h-398q-18 0 -31 -13t-13 -31v-398q0 -19 13 -32t31 -13h398q19 0 32 13t13 32v398
q0 18 -13 31t-32 13zM967 -72h-375v375h375v-375z" />
    <glyph glyph-name="gouwudai" unicode="&#xe655;" 
d="M968 -43q0 4 -5 52q-2 16 -5 49.5t-5 50.5q-2 14 -5 43.5t-4.5 45t-4.5 49t-5 51t-5 50.5t-5 49q-1 14 -4.5 48t-5.5 52l-4 43q-6 31 -29.5 50.5t-54.5 19.5h-80h-5v53q-1 28 -4 45q-11 67 -60.5 118t-116.5 64q-2 0 -32 5h-29l-3 -1q-78 -7 -135 -58q-67 -61 -74 -151
q0 -4 -1 -69v-6h-6h-81q-30 0 -53 -19.5t-28 -48.5q-1 -4 -7 -64q-1 -16 -4 -46t-5 -43q-1 -17 -4.5 -50.5t-5.5 -50.5q-1 -13 -4.5 -46.5t-5.5 -51.5q-2 -20 -5.5 -56.5t-5.5 -52.5q-8 -80 -10 -101q-2 -24 -2 -29q3 -34 27.5 -56.5t58.5 -22.5h738q17 0 33 7q23 9 38 31
t14 47zM343 671q1 60 41 107t99 57q70 12 127 -27t71 -108q2 -13 3 -24v-65h-341v3v57zM865 -70q-6 -1 -12 -1h-678q-24 0 -40 13.5t-18 36.5q-1 5 1 27q2 16 12 108q13 114 13 115q2 18 5.5 51t5.5 47q0 2 4 40t7 57q7 64 8 77q2 22 18 37t37 16h55h3v-62q0 -3 -3 -5
q-27 -18 -25 -50t30 -47q20 -11 41.5 -5t33.5 25.5t7.5 41.5t-23.5 35q-4 2 -4 7v59h341v-4v-56q0 -4 -4 -6q-15 -11 -21 -28.5t-0.5 -35t20 -29t33.5 -11.5t34 11t20 29q6 18 0 35.5t-21 28.5q-4 2 -4 7v55v5h25q37 -1 41 -1q19 -3 32.5 -17.5t14.5 -34.5q1 -13 6 -59
q1 -5 10 -90q7 -60 11 -98q2 -14 5 -44t5 -46t11 -98q8 -73 9 -79q2 -19 -12 -36.5t-34 -20.5z" />
    <glyph glyph-name="zhengpinrenzheng" unicode="&#xe66b;" 
d="M509.5 -128q-8.5 0 -17.5 1q-7 2 -18.5 4.5t-40.5 13.5t-57 25.5t-65 42t-69 61t-64 85t-54.5 111t-36.5 141.5t-14 175v148q0 42 32 71q31 28 74 26q6 -1 24 -1q65 0 115 12q55 13 128 83q7 6 10 8q22 14 53 14t55 -15q6 -4 25 -19q77 -62 115 -71q50 -12 115 -12
q17 0 23 1h7q39 0 67 -26q32 -29 32 -71v-148q0 -93 -14 -175t-36.5 -141.5t-55 -111t-64.5 -85t-69 -61t-65 -42t-57.5 -25.5t-41 -13.5t-18.5 -4.5q-9 -1 -17.5 -1zM173 741q-25 0 -44 -16q-20 -18 -20 -45v-148q0 -112 21.5 -207t52.5 -157t74.5 -111t80 -75t77 -44.5
t56.5 -22.5t27 -6q12 -2 22.5 0t27 6t57 22.5t77.5 44.5t81 75.5t75.5 111t52.5 156.5t21 207v148q0 27 -20 45q-18 16 -43 16h-5q-4 -1 -25 -1q-69 0 -123 13q-46 11 -129 78q-18 14 -22 17q-16 10 -35.5 10t-35.5 -10l-3 -3q-81 -77 -145 -92q-54 -13 -123 -13
q-21 0 -27 1h-3zM300 611h422q19 -2 21 -21q-2 -21 -21 -23h-177v-139h173q16 0 19 -21q-3 -21 -19 -21h-173v-174h198q17 0 19 -19q-2 -19 -19 -19h-462q-21 0 -21 19t21 19h52v271q2 19 23 21q19 -2 21 -21v-271h124v355h-201q-19 2 -21 23q2 19 21 21z" />
    <glyph glyph-name="wenhao" unicode="&#xe664;" 
d="M458 203v78q-2 44 12 78.5t57 62.5h-1q37 29 62.5 51t37.5 38q21 28 23 73q1 27 -9 48.5t-29 43.5q-40 39 -101 39q-59 0 -96 -46t-42 -144l-86 9q1 63 18.5 112t47 82.5t70 51t88.5 17.5q101 0 163 -60q65 -61 65 -153q0 -34 -9 -63t-24 -52q-16 -25 -46.5 -53.5
t-76.5 -60.5q-21 -15 -27.5 -29t-6.5 -44v-79h-90zM548 6h-90v115h90v-115z" />
    <glyph glyph-name="iconfontxiangyou-copy" unicode="&#xe660;" 
d="M357 40l39 -40l366 366l-366 366l-39 -40l326 -326z" />
    <glyph glyph-name="shangjiantou-copy" unicode="&#xe662;" 
d="M768 448h-128l192 192l192 -192h-128v-320h-128v320z" />
    <glyph glyph-name="xiajiantou-copy" unicode="&#xe663;" 
d="M896 320h128l-192 -192l-192 192h128v320h128v-320z" />
    <glyph glyph-name="zhuyi" unicode="&#xe6a6;" horiz-adv-x="1025" 
d="M1002 126l-387 624q-41 73 -103 73q-64 0 -102 -71l-388 -626q-40 -70 -7 -126q33 -55 113 -55h768q81 0 114 55q30 56 -8 126zM512 55q-23 0 -38.5 16t-15.5 39t16 39t38 16q23 0 39 -16.5t16 -38.5q2 -22 -14.5 -38.5t-40.5 -16.5zM558 272q0 -33 -23 -47t-45.5 0
t-22.5 47l-19 233q0 26 19 44t45.5 18t45 -18t18.5 -44z" />
    <glyph glyph-name="icon1460191793239" unicode="&#xe665;" 
d="M512.5 892q-103.5 0 -197 -40.5t-161.5 -108.5t-108.5 -161.5t-40.5 -196.5t40.5 -197t108.5 -162t161.5 -108.5t197 -40.5t197 40.5t161.5 108.5t108.5 162t40.5 197t-40.5 196.5t-108.5 161.5t-161.5 108.5t-197 40.5zM512.5 -71q-92.5 0 -177 36t-145.5 97t-97 145.5
t-36 177t36 177t97 145.5t145.5 97t177 36t177 -36t145.5 -97t97 -145.5t36 -177t-36 -177t-97 -145.5t-145.5 -97t-177 -36zM490 368.5q-2 10.5 -10.5 17t-19.5 4.5l-50 -8v110h52q10 0 18 7.5t8 18t-8 18.5t-18 8h-52v86q0 11 -7.5 18.5t-18.5 7.5t-18.5 -7.5t-7.5 -18.5
v-86h-35v52q0 10 -7.5 17.5t-18 7.5t-18.5 -7.5t-8 -17.5v-62q0 -14 -6.5 -23t-13.5 -9q-11 0 -18.5 -7.5t-7.5 -18.5t7.5 -18.5t18.5 -7.5q41 0 62 42h45v-118l-107 -16q-11 -2 -17.5 -10.5t-4.5 -19.5q1 -9 8.5 -15.5t17.5 -6.5h4l99 16v-177q0 -10 7.5 -17.5t18.5 -7.5
t18.5 7.5t7.5 17.5v185l58 9q11 1 17.5 10t4.5 19.5zM756 492h-104v52h87q10 0 18 7.5t8 18t-8 18.5t-18 8h-87v69q0 10 -7.5 18t-18.5 8t-18.5 -8t-7.5 -18v-69h-69q-11 0 -18.5 -8t-7.5 -18.5t7.5 -18t18.5 -7.5h69v-52h-86q-11 0 -18.5 -8t-7.5 -18.5t7.5 -18t18.5 -7.5
h242q11 0 18.5 7.5t7.5 18t-7.5 18.5t-18.5 8zM756 370h-52v35q0 11 -7.5 18.5t-18.5 7.5t-18.5 -7.5t-7.5 -18.5v-35h-138q-11 0 -18.5 -7.5t-7.5 -18t7.5 -18t18.5 -7.5h138v-124q0 -14 -2 -19.5t-12.5 -9.5t-33.5 -4q-11 0 -18.5 -7.5t-7.5 -18.5t7.5 -18.5t18.5 -7.5
q14 0 22.5 0.5t25 5t26.5 12.5t18 25.5t8 41.5v124h52q11 0 18.5 7.5t7.5 18t-7.5 18t-18.5 7.5zM539.5 293q-10.5 0 -18 -8t-7.5 -18v-52q0 -11 7.5 -18.5t18 -7.5t18.5 7.5t8 18.5v52q0 10 -8 18t-18.5 8z" />
    <glyph glyph-name="erweima" unicode="&#xe669;" 
d="M92 832h359q11 -1 17 -7.5t8.5 -21t3 -24t0 -30t-0.5 -25.5v-196q0 -8 0.5 -26t0.5 -27.5t-2 -22.5t-6.5 -20.5t-13 -11t-25 -4t-39.5 0.5t-28 1h-191q-7 0 -27 -0.5t-30 -0.5t-24 2.5t-21 9t-9 16.5v360q8 21 28 27v0v0zM141 751v-256h259v260h-258q-1 -1 -1 -4v0v0z
M574 832h360q23 -9 27 -32v-350q-5 -25 -25 -31q-11 -3 -26 -3t-35.5 1t-28.5 1h-185q-8 0 -29 -1t-37 -1t-26 3q-9 3 -14.5 11t-7 22t-2 24.5t0 30t0.5 26.5v184q0 8 -0.5 29t-0.5 31.5t2.5 24.5t9 21t17.5 9v0v0zM624 751v-256h259v260h-258q-2 -1 -1 -4v0v0zM259 676
q27 5 46 -10t20 -40q0 -31 -26 -46.5t-53 -2.5q-19 10 -25.5 32t4 42.5t34.5 24.5v0v0zM742 676q44 8 59 -29q13 -32 -9 -58q-18 -22 -50 -16q-26 4 -36 27.5t0 47t36 28.5v0v0zM449 -65h-356q-23 7 -29 29v358q7 21 24 26q11 3 26 3t35.5 -1t29.5 -1h184q8 0 28.5 1.5
t36.5 1t27 -3.5q9 -3 15 -10.5t8 -21.5t2 -24.5t-0.5 -30t-0.5 -26.5v-189q0 -7 0.5 -28t0 -30.5t-3 -23.5t-9.5 -20.5t-18 -8.5v0v0zM141 268v-255h259v259h-258q-1 0 -1 -4v0v0zM961 317v-100q-1 -8 -1 -53v-55h-257v58q-5 2 -38.5 1.5t-40.5 -0.5q-2 -19 -1.5 -115.5
t-0.5 -117.5h-47q-11 3 -18 10.5t-9.5 21.5t-2.5 24.5t0.5 30.5t0.5 29v184q0 8 -1 29t-0.5 37t3.5 26q1 5 4 9t9 6.5t10 4t13 2t13 0.5h15.5h14.5h175v-158h81q0 14 -0.5 79.5t1.5 78.5q20 1 37 0.5t28 -8.5t12 -24v0v0zM265 195q30 3 48.5 -20t7.5 -53q-10 -27 -39 -31.5
t-50 15t-12.5 52.5t45.5 37v0v0zM790 -65h-87v47.5t1 45.5h86v-93v0v0zM961 28v-61q-5 -24 -29 -32h-61q0 9 -0.5 47.5t1.5 45.5h89v0v0z" />
    <glyph glyph-name="yduihao" unicode="&#xe809;" 
d="M950 449q-21 36 -58.5 56.5t-82.5 20.5q-50 0 -116 -1q21 125 21 181q0 63 -41 97q-34 29 -84 29q-48 0 -81.5 -39t-33.5 -95q0 -40 -2.5 -51.5t-16.5 -30.5q-43 -59 -78.5 -92t-49.5 -33h-180q-38 0 -65.5 -27t-27.5 -65v-371q0 -38 27.5 -65t65.5 -27h123
q13 0 22.5 9.5t9.5 23.5v457h25q71 0 182 152q21 30 26 51.5t5 68.5q0 29 15 50q15 19 34 19q60 0 60 -61q0 -68 -27 -209v0q-3 -15 7 -27q10 -11 25 -11h1v0h3q87 2 151 2q58 0 84 -45q21 -36 2 -69l-8 -14q-11 -17 -15.5 -26.5t-8 -27t-2.5 -38.5l3 -30v-1
q5 -21 3.5 -40.5t-13.5 -34.5q-32 -38 -40 -76v-1v-2q-28 -55 -95 -55h-289q-14 0 -23.5 -9.5t-9.5 -23t9.5 -23t23.5 -9.5h289q52 0 92 24t62 68q4 7 6 18q4 23 25 48q17 20 23.5 45t6 40t-3.5 40l-1 3q-2 15 -2 23q-1 17 1.5 26t14.5 28q6 10 9 16q18 31 17.5 66.5
t-19.5 67.5zM120 399q0 11 8 19t19 8h90v-425h-90q-11 0 -19 8t-8 19v371z" />
    <glyph glyph-name="icon" unicode="&#xe666;" 
d="M914 337h-145q-19 0 -33 14t-14 33t14 33t33 14h145q19 0 33 -14t14 -33t-14 -33t-33 -14zM871 550h-144q-20 0 -33.5 13.5t-13.5 33t13.5 33t33.5 13.5h144q20 0 33.5 -13.5t13.5 -33t-13.5 -33t-33.5 -13.5zM942 139h-145q-19 0 -32.5 13.5t-13.5 33t13.5 33t32.5 13.5
h145q20 0 33.5 -13.5t13.5 -33t-13.5 -33t-33.5 -13.5zM977 -81h-783q-81 0 -137.5 57t-56.5 137v542q0 80 56.5 137t137.5 57h626q19 0 33 -14t14 -33t-14 -33t-33 -14h-626q-42 0 -71 -29t-29 -71v-542q0 -42 29 -71t71 -29h783q20 0 33.5 -14t13.5 -33t-13.5 -33
t-33.5 -14zM538 337h-300q-20 0 -33.5 14t-13.5 33t13.5 33t33.5 14h300q20 0 33.5 -14t13.5 -33t-13.5 -33t-33.5 -14zM237.5 337q-19.5 0 -33 14t-13.5 33t14 33l212 213q14 13 33.5 13t33 -13.5t13.5 -33t-14 -32.5l-212 -213q-14 -14 -33.5 -14zM325.5 125
q-19.5 0 -33 13.5t-13.5 33t14 32.5l212 213q14 14 33.5 14t33 -14t13.5 -33t-13 -33l-213 -213q-14 -13 -33.5 -13z" />
  </font>
</defs>
</svg>
