<?xml version="1.0" standalone="no"?>
<!DOCTYPE svg PUBLIC "-//W3C//DTD SVG 1.1//EN" "http://www.w3.org/Graphics/SVG/1.1/DTD/svg11.dtd" >
<svg xmlns="http://www.w3.org/2000/svg">
<metadata>
Created by FontForge 20120731 at Thu Jun 15 10:09:03 2017
 By admin
</metadata>
<defs>
<font id="iconfont" horiz-adv-x="1024" >
  <font-face 
    font-family="iconfont"
    font-weight="500"
    font-stretch="normal"
    units-per-em="1024"
    panose-1="2 0 6 3 0 0 0 0 0 0"
    ascent="896"
    descent="-128"
    x-height="792"
    bbox="-661 -212 1292 896"
    underline-thickness="0"
    underline-position="0"
    unicode-range="U+0078-E994"
  />
<missing-glyph 
 />
    <glyph glyph-name=".notdef" 
 />
    <glyph glyph-name=".notdef" 
 />
    <glyph glyph-name=".null" horiz-adv-x="0" 
 />
    <glyph glyph-name="nonmarkingreturn" horiz-adv-x="341" 
 />
    <glyph glyph-name="x" unicode="x" horiz-adv-x="1001" 
d="M281 543q-27 -1 -53 -1h-83q-18 0 -36.5 -6t-32.5 -18.5t-23 -32t-9 -45.5v-76h912v41q0 16 -0.5 30t-0.5 18q0 13 -5 29t-17 29.5t-31.5 22.5t-49.5 9h-133v-97h-438v97zM955 310v-52q0 -23 0.5 -52t0.5 -58t-10.5 -47.5t-26 -30t-33 -16t-31.5 -4.5q-14 -1 -29.5 -0.5
t-29.5 0.5h-32l-45 128h-439l-44 -128h-29h-34q-20 0 -45 1q-25 0 -41 9.5t-25.5 23t-13.5 29.5t-4 30v167h911zM163 247q-12 0 -21 -8.5t-9 -21.5t9 -21.5t21 -8.5q13 0 22 8.5t9 21.5t-9 21.5t-22 8.5zM316 123q-8 -26 -14 -48q-5 -19 -10.5 -37t-7.5 -25t-3 -15t1 -14.5
t9.5 -10.5t21.5 -4h37h67h81h80h64h36q23 0 34 12t2 38q-5 13 -9.5 30.5t-9.5 34.5q-5 19 -11 39h-368zM336 498v228q0 11 2.5 23t10 21.5t20.5 15.5t34 6h188q31 0 51.5 -14.5t20.5 -52.5v-227h-327z" />
    <glyph glyph-name="weixin" unicode="&#xe636;" 
d="M572 384q-8 0 -14.5 -6.5t-6.5 -14.5q0 -7 6.5 -13t14.5 -6q11 0 18.5 5.5t7.5 13.5q0 9 -7.5 15t-18.5 6v0zM504 483q12 0 19.5 7t7.5 19t-7.5 18.5t-19.5 6.5t-21 -7t-9 -18q0 -12 9 -19t21 -7v0zM512 834q-91 0 -174.5 -36t-143.5 -96t-96 -143.5t-36 -175t36 -174.5
t96 -143.5t143.5 -96t175 -35.5t174.5 35.5t143.5 96t96 143.5t35.5 174.5t-35.5 175t-96 143.5t-143.5 96t-175 36v0zM427 270q-31 0 -72 11l-74 -37l21 63q-83 58 -83 139q0 75 61 125.5t147 50.5q77 0 136.5 -41t72.5 -104q-11 2 -20 2q-74 0 -125 -48t-51 -117
q0 -20 6 -44h-19v0zM733 198l15 -53l-56 32q-53 -11 -63 -11q-74 0 -125 44t-51 106.5t51 107t125 44.5q70 0 123 -44.5t53 -106.5q0 -66 -72 -119v0zM359 534q-12 0 -21.5 -7t-9.5 -18t9.5 -18.5t21.5 -7.5q11 0 19 7t8 19q0 11 -8 18t-19 7v0zM687 384q-9 0 -15 -6t-6 -15
q0 -7 6.5 -13t14.5 -6q10 0 17.5 5.5t7.5 13.5q0 9 -7 15t-18 6v0zM687 384z" />
    <glyph glyph-name="dianhua" unicode="&#xe618;" 
d="M994 130l-4 6l-11 12q-12 14 -43 40q-44 37 -81 61l-50 32l-22 11q-17 8 -37 1q-16 -5 -24 -19l-18 -25q-3 -7 -7 -14q-4 -6 -13 -24.5t-15 -29.5q-8 -14 -22 -24.5t-32.5 -14t-38.5 7.5q-105 60 -177 128q-103 98 -139 178q-8 13 -1.5 38t27.5 35q14 7 36 15.5t32 14.5
q7 5 15 9.5t19 11.5q1 0 4.5 3.5t4.5 3.5q1 2 3 3q19 19 9 44l-3 8q-14 34 -37 72q-18 30 -43 63q-16 22 -33 38t-26 21l-10 5q-9 5 -13 7q-24 10 -51 -2q-17 -6 -32.5 -15.5t-22.5 -15t-27 -21.5q-46 -38 -72 -85t-20 -90q10 -74 91 -204.5t188.5 -233t245 -179
t215.5 -85.5q82 -11 175 75q40 37 57 75q7 14 8.5 30.5t-5.5 32.5z" />
    <glyph glyph-name="xingxing" unicode="&#xe63d;" 
d="M785 -30l-276 133l-278 -129l44 298l-211 219l303 51l147 264l144 -266l302 -56l-214 -216z" />
    <glyph glyph-name="douban" unicode="&#xe670;" 
d="M512 829q-91 0 -173.5 -35.5t-142.5 -95t-95 -142.5t-35 -174t35 -173.5t95 -142.5t142.5 -95t173.5 -35t174 35t142.5 95t95 142.5t35.5 173.5t-35.5 174t-95 142.5t-142.5 95t-174 35.5zM306 582h423v-48h-423v48zM692 484v-186h-349v186h349zM741 144h-447v47h130
q-18 38 -46 81l46 19q28 -41 50 -100h88q27 45 46 100l51 -19q-20 -46 -43 -81h125v-47zM393 437h249v-91h-249v91z" />
    <glyph glyph-name="sousuo" unicode="&#xe61a;" 
d="M948 0l-211 211q87 105 87 241q0 104 -50.5 191t-138 138t-190.5 51t-190.5 -51t-138.5 -138t-51 -190.5t51 -191t138.5 -138t190.5 -50.5q134 0 238 84l157 -155v0l55 -55q11 -11 26.5 -11t26.5 11t11 26.5t-11 26.5v0zM444.5 147q-126.5 0 -215.5 89.5t-89 216t89 216
t215.5 89.5t216 -89.5t89.5 -216t-89.5 -216t-216 -89.5z" />
    <glyph glyph-name="iconfontgantanhao" unicode="&#xe66f;" 
d="M925 561q-35 82 -96 143t-142.5 96.5t-174.5 35.5t-174.5 -35.5t-142.5 -96.5t-96 -143t-35 -174.5t35 -174t96 -142.5t142.5 -96.5t174.5 -35.5t174.5 35.5t142.5 96.5t96 142.5t35 174t-35 174.5zM512 97q-21 0 -36 15t-15 36t15 36t36 15t36 -15t15 -36t-15 -36
t-36 -15zM563 308q0 -21 -15 -36t-36 -15t-36 15t-15 36v318q0 21 15 36t36 15t36 -15t15 -36v-318z" />
    <glyph glyph-name="check" unicode="&#xe61c;" 
d="M431 102q-17 0 -30 13l-236 225q-13 13 -13.5 31t12.5 31.5t31 14t32 -12.5l201 -193l364 444q12 14 30 15.5t32.5 -10t16 -30t-9.5 -32.5l-395 -480q-13 -15 -32 -16h-3z" />
    <glyph glyph-name="dizhi" unicode="&#xe62f;" 
d="M512 831q-97 0 -179.5 -48t-130.5 -130.5t-48 -179.5q0 -71 39 -166.5t94 -175.5t118 -136.5t107 -56.5t107 56.5t118 136.5t94 175.5t39 166.5q0 97 -48 179.5t-130.5 130.5t-179.5 48v0zM512 293q-74 0 -127 53t-53 127t53 127t127 53t127 -53t53 -127t-53 -127
t-127 -53v0zM512 293z" />
    <glyph glyph-name="jia" unicode="&#xe62e;" 
d="M514 840q-93 0 -178 -36.5t-146.5 -98t-98 -146.5t-36.5 -178.5t36.5 -178.5t98 -146.5t146.5 -98t178.5 -36.5t178.5 36.5t146.5 98t98 146.5t36.5 178.5t-36.5 178.5t-98 146.5t-146.5 98t-179 36.5v0zM514 -31q-111 0 -205.5 55.5t-149.5 150t-55 206t55 206
t149.5 149.5t206 55t206 -55t149.5 -149.5t55 -206t-55 -206t-149.5 -150t-206.5 -55.5v0zM688 413h-141v141q0 9 -10.5 16.5t-21.5 7.5t-21.5 -7.5t-10.5 -16.5v-141h-142q-9 0 -16.5 -10.5t-7.5 -21.5t7.5 -21.5t16.5 -10.5h142v-142q0 -9 10.5 -16.5t21.5 -7.5t21.5 7.5
t10.5 16.5v142h141q9 0 16.5 10.5t7.5 21.5t-7.5 21.5t-16.5 10.5v0zM688 413z" />
    <glyph glyph-name="waimai" unicode="&#xe68c;" 
d="M384 624v-3v-155v-2h-254v0q-2 1 -2 2v155q0 1 2 2v1h254v0zM385 656h-255q-14 0 -24 -10.5t-10 -24.5v-155q0 -14 10 -24t24 -10h255q13 0 22 10t9 24v155q0 14 -9 24.5t-23 10.5h1zM800 144q13 0 22.5 -9.5t9.5 -22.5t-9.5 -22.5t-22.5 -9.5t-22.5 9.5t-9.5 22.5
t9.5 22.5t22.5 9.5zM800 176q-26 0 -45 -18.5t-19 -45t19 -45.5t45.5 -19t45 19t18.5 45.5t-18.5 45t-45.5 18.5v0zM273 144q13 0 22.5 -9.5t9.5 -22.5t-9.5 -22.5t-22.5 -9.5t-22.5 9.5t-9.5 22.5t9.5 22.5t22.5 9.5zM273 176q-27 0 -45.5 -18.5t-18.5 -45t18.5 -45.5
t45 -19t45.5 19t19 45.5t-19 45t-45 18.5v0zM816 496v48q11 46 -10.5 71t-69.5 25q-22 0 -71 -10t-73 -22q-43 -22 -16 -48v0v0q16 16 46 24q-1 0 18.5 5.5t48 11.5t47.5 7q37 1 49 -16q9 -12 0 -38q-1 -5 -1 -10v-48q0 -6 2 -12q8 -20 36 -85q105 -237 105 -281
q0 -57 -39.5 -96.5t-95.5 -39.5q-40 0 -73.5 21.5t-50.5 58.5q-9 18 -29 18h-222q-21 0 -29 -18q-17 -37 -50.5 -58.5t-73.5 -21.5q-56 0 -96 39.5t-40 96.5q0 11 3 23q2 13 -5 23q-30 46 -30 100q0 55 21 104h267q-22 -20 -29.5 -53t0.5 -70q11 -46 41.5 -74t70.5 -28
q9 0 18 2q99 16 161 83t73 168q11 93 -40 150q-1 0 -7 7q-11 10 -31 3q-14 -5 -5 -15q29 -19 43 -56.5t9 -84.5q-11 -100 -69 -155t-139 -69q-7 -1 -13 -1q-40 0 -64 38t-20 81t33 58v48h-319q-33 -59 -33 -136q0 -63 35 -117q-3 -15 -3 -29q0 -70 49.5 -119t118.5 -49
q50 0 91.5 27t61.5 71h222q20 -44 61 -71t92 -27q69 0 118 49t49 119q0 30 -26.5 101.5t-69 166.5t-47.5 110z" />
    <glyph glyph-name="gou75" unicode="&#xe66b;" 
d="M512 896q-139 0 -257 -68.5t-186.5 -186.5t-68.5 -257t68.5 -257t186.5 -186.5t257 -68.5t257 68.5t186.5 186.5t68.5 257t-68.5 257t-186.5 186.5t-257 68.5zM423 40l-300 309l77 63l173 -138q45 54 99.5 110.5t150.5 137.5t197 143l18 -43q-139 -129 -255 -298.5
t-160 -283.5z" />
    <glyph glyph-name="woguanzhude" unicode="&#xe640;" 
d="M747.5 -78q-94.5 0 -162 67t-67.5 161.5t67.5 161.5t162 67t161.5 -67t67 -161.5t-67 -161.5t-161.5 -67zM747 341q-79 0 -134.5 -56t-55.5 -134.5t55.5 -134.5t134.5 -56t135 56t56 134.5t-56 134.5t-135 56zM436 353q-102 0 -174.5 72.5t-72.5 174.5t72.5 174.5
t174.5 72.5t174.5 -72.5t72.5 -174.5t-72.5 -174.5t-174.5 -72.5zM436 808q-86 0 -147 -61t-61 -147t61 -147t147 -61t147 61t61 147t-61 147t-147 61zM678 -40zM548 -40h-375q-82 5 -85 99q0 8 3.5 23t6.5 21q48 98 139.5 155t200.5 57q41 0 82 -9q11 17 27 33
q-54 14 -109 14q-120 0 -220.5 -62.5t-153.5 -170.5q-5 -10 -10 -29.5t-5 -33.5q3 -61 35 -96.5t88 -38.5h421q-24 16 -45 38zM748 -8l-10 7q-16 11 -36 26t-53.5 47.5t-45.5 56.5q-8 13 -12 31.5t2.5 45.5t26.5 47q26 27 61 27q37 0 65 -36q29 35 67 35q21 0 43 -12
q4 -2 11.5 -7t20 -21.5t14.5 -36.5q6 -44 -11 -78q-11 -21 -35 -44q-63 -60 -97 -82zM681 241q-19 0 -34 -14q-15 -16 -17 -37t1 -29.5t6 -13.5q20 -42 112 -109q38 29 80 70q20 18 28 33q12 24 7 56q-3 23 -26 36q-13 7 -25 7q-14 0 -26.5 -10.5t-16.5 -17.5t-6 -10
l-16 -35l-18 33q-23 41 -49 41z" />
    <glyph glyph-name="phone-line" unicode="&#xe6ed;" 
d="M900 115q6 -6 13 -11q29 -24 41 -38v0v0v0q3 -4 5 -6q2 -3 4 -4q0 -1 1 -2q1 -2 2 -3l6 -9v-1q15 -30 -4 -71q-18 -39 -57 -75q-81 -75 -154 -75q-11 0 -21 2q-74 9 -198 78q-133 73 -232.5 167.5t-176.5 220.5q-73 118 -83 189q-6 46 21 96q25 44 70 81q1 1 3 2.5t2 2.5
q42 34 75 46q17 8 32 8t30 -6v-1q5 -2 13 -6q35 -17 70 -64q23 -31 40 -59q21 -36 35 -68l1 -1l2 -7q14 -36 -14 -62q0 -1 -2 -3l-1 -1l-1 -1q-1 0 -3 -2q-4 -3 -5 -4h-1q-11 -8 -19 -12l-12 -8h-1q-11 -6 -32 -15q-19 -7 -31 -13q-11 -6 -14.5 -20.5t0.5 -19.5
q31 -68 122 -155q63 -60 157 -113q8 -5 17 -5q11 0 22 7.5t17 17.5q5 10 15 29l10 20v0q10 18 18 30q5 7 8 10q11 16 30 22q10 4 22 4q16 0 27 -6l21 -10v0q1 -1 4 -3q5 -2 10 -6q16 -10 33 -21q3 -2 7 -5zM720 153q-6 -7 -20 -32q-3 -5 -10 -18q-10 -20 -16 -31
q-10 -18 -30.5 -32t-43.5 -14q-20 0 -37 10q-98 56 -165 119q-97 92 -131 168q-10 22 -3 48q9 32 36 46q14 6 34 14q18 7 26 12t14 9q7 3 16 9l2 2q3 2 4 3l2 2v0q8 8 4 18l-1 1l-2 7q-13 30 -32 62q-16 26 -38 55q-28 39 -54 52h-1l-12 6q-6 3 -13 3t-17 -4l-1 -1
q-26 -9 -63 -40q-4 -3 -5 -4q-39 -32 -60 -70.5t-16 -69.5q9 -63 77 -174q74 -121 170 -211.5t224 -161.5q117 -65 183 -74q8 -1 16 -1q57 0 127 65q33 30 47 61q5 10 6 21t-2 16l-4 5v0v1q-3 3 -8 9q-11 12 -36 33q-40 33 -73 55q-26 17 -43 28l-20 9q-3 2 -9 2q-5 0 -9 -1
q-7 -3 -10 -8z" />
    <glyph glyph-name="xunzhang" unicode="&#xe63c;" 
d="M811 336q39 74 39 158q0 91 -45 168.5t-122.5 123t-169 45.5t-169.5 -45.5t-123 -123t-45 -168.5q0 -84 40 -158l-143 -232l175 -36l118 -131l125 215l2 6q10 -1 20 -1t20 1l2 -6l126 -215l117 131l175 36zM513 713q91 0 155 -64t64 -155t-64 -155t-155 -64t-155 64
t-64 155t64 155t155 64z" />
    <glyph glyph-name="jiantou" unicode="&#xe604;" 
d="M143 358q-11 -11 -27 -11t-27 11v0q-12 12 -12 28t12 27l384 385q11 11 27.5 11t27.5 -11v0q11 -12 11 -28t-11 -27zM528 25q11 -11 11 -27t-11 -28v0q-11 -11 -27.5 -11t-27.5 11l-384 385q-12 11 -12 27t12 28v0q11 11 27 11t27 -11z" />
    <glyph glyph-name="weixin1" unicode="&#xe664;" 
d="M693 589q15 0 35 -2q-24 109 -128 181.5t-237 72.5q-98 0 -181 -40.5t-132 -111.5t-49 -156q0 -142 145 -244l-36 -108l126 63q6 -1 25.5 -5t27 -5.5t22.5 -3.5t27 -3t25 -1q15 0 34 1q-12 39 -12 76q0 119 89.5 202.5t218.5 83.5zM498 687q21 0 33.5 -12.5t12.5 -32.5
t-12.5 -32.5t-33.5 -12.5t-37.5 13t-16.5 32.5t16.5 32t37.5 12.5zM245 597q-21 0 -37.5 13t-16.5 32.5t16.5 32t37.5 12.5t33 -12t12 -32.5t-12 -33t-33 -12.5zM1023 307q0 71 -43 132t-113.5 96t-150.5 35q-129 0 -218.5 -77t-89.5 -185.5t89.5 -185.5t218.5 -77
q36 0 108 18l99 -54l-27 90q127 95 127 208zM616 353q-14 0 -25 11t-11 24.5t11 25t25 11.5q20 0 32.5 -11t12.5 -25.5t-12.5 -25t-32.5 -10.5zM815 353q-14 0 -25 11t-11 24.5t11 25t25 11.5q19 0 32 -11t13 -25t-13 -25t-32 -11z" />
    <glyph glyph-name="zanting" unicode="&#xe689;" 
d="M264 350h503v-84h-503v84zM515.5 771q-96.5 0 -184 -37.5t-150.5 -100.5t-100.5 -150.5t-37.5 -184t37.5 -184t100.5 -150.5t150.5 -100.5t184 -37.5t184 37.5t150.5 100.5t100.5 150.5t37.5 184t-37.5 184t-100.5 150.5t-150.5 100.5t-184 37.5zM805 9q-57 -57 -130 -88
q-76 -32 -159.5 -32t-159.5 32q-73 31 -130 88t-88 130q-32 76 -32 159.5t32 159.5q31 73 88 130t130 88q76 32 159.5 32t159.5 -32q73 -31 130 -88t88 -130q32 -76 32 -159.5t-32 -159.5q-31 -73 -88 -130z" />
    <glyph glyph-name="shijian" unicode="&#xe68f;" 
d="M541 732v49q0 13 -9 22t-22 9t-22 -9t-9 -22v-49q-120 -9 -219.5 -73.5t-157.5 -170t-58 -228.5q0 -96 37 -183t100 -150.5t149.5 -101t181.5 -37.5t181.5 37.5t149.5 101t100 150.5t37 183q0 124 -58.5 229.5t-159 170t-221.5 72.5v0zM512 -150q-110 0 -203.5 55
t-148 149.5t-54.5 206t54.5 206t148 149t203.5 54.5t203.5 -54.5t148 -149t54.5 -206t-54.5 -206t-148 -149.5t-203.5 -55v0zM353 -23q-75 44 -119 120t-44 163q0 7 -4.5 11.5t-11 4.5t-11 -4.5t-4.5 -11.5q0 -96 48 -179t131 -131q4 -2 8 -2q9 0 13 8q8 14 -6 21v0z
M438 -65q-10 2 -18 5q-6 2 -12 -1t-8 -9.5t1 -12t9 -7.5q9 -3 20 -6h4q12 0 15 12q1 6 -2 11.5t-9 7.5v0zM911 569q9 -9 21.5 -9t22 9t9.5 22t-9 22l-81 81q-9 9 -21.5 9t-21.5 -9t-9 -22t9 -22l80 -81v0zM541 266v250q0 13 -9 22t-22 9t-22 -9t-9 -22v-263q0 -13 11 -23
l90 -85q9 -9 21 -9q13 0 22 10t8.5 22.5t-9.5 21.5l-81 76v0zM541 266z" />
    <glyph glyph-name="bianji" unicode="&#xe600;" 
d="M120 -64h643q23 0 39.5 16.5t16.5 39.5v410l-56 -54v-356h-643v699h393l56 55l-1 1h-448q-23 0 -39.5 -16t-16.5 -40v-699q0 -23 16.5 -39.5t39.5 -16.5zM916 795q-38 37 -83 37q-50 0 -90 -40l-383 -383q-5 -4 -6 -10q-2 -8 -61 -204q-5 -13 6 -24q6 -6 16 -6q4 0 7 1
q117 39 200 64q6 1 10 5q376 372 386 382q43 44 42 91q-1 46 -44 87zM878 656q-24 -25 -363 -358l-17 -17q-32 -10 -134 -43q31 103 41 138q363 362 378 377q23 23 50 23q22 0 44 -21q27 -26 27 -48q0 -24 -26 -51z" />
    <glyph glyph-name="shanchu" unicode="&#xe601;" 
d="M886 667h-747q-10 0 -17 7t-7 17t7 17t17 7h747q10 0 17 -7t7 -17t-7 -17t-17 -7v0zM645 763h-265q-10 0 -17 7t-7 17t7 17t17 7h265q10 0 17 -7t7 -17t-7 -17t-17 -7v0zM404 137v409q0 10 7 17t17 7t17 -7t7 -17v-409q0 -10 -7 -17.5t-17 -7.5t-17 7.5t-7 17.5v0z
M573 137v409q0 10 7 17t17 7t17 -7t7 -17v-409q0 -10 -7 -17.5t-17 -7.5t-17 7.5t-7 17.5v0zM235 594q10 0 17.5 -7t7.5 -17v-28v-92v-386q0 -20 14 -34t34 -14h409q20 0 34 14t14 34v386v92v28q0 10 7.5 17t17.5 7t17 -7t7 -17v-96v-24v-410q0 -30 -21.5 -51t-51.5 -21
h-457q-30 0 -51.5 21t-21.5 51v366v44v24v96q0 10 7 17t17 7v0zM235 594z" />
    <glyph glyph-name="weixinpengyouquan" unicode="&#xe638;" 
d="M512 834q-186 0 -318 -132t-132 -318t132 -318t318 -132t318 132t132 318t-132 318t-318 132zM650 616q35 -21 58 -44q41 -41 60 -92l-146 -140zM510 654q56 0 108 -22l-5 -203l-174 216q38 9 71 9zM313 572q41 41 92 61l140 -147l-276 28q19 33 44 58zM231 375
q0 56 22 108l203 -5l-216 -175q-9 38 -9 72zM369 133q-32 19 -57 44q-41 41 -61 92l146 140zM510 95q-55 0 -108 21l4 203l176 -215q-38 -9 -72 -9zM708 177q-41 -41 -92 -61l-140 146l276 -28q-19 -32 -44 -57zM767 266l-202 4l215 176q9 -38 9 -71q1 -54 -22 -109z" />
    <glyph glyph-name="fenxiang" unicode="&#xe60d;" 
d="M928 379q-12 0 -21 -9t-9 -22v-285q0 -27 -19.5 -46.5t-47.5 -19.5h-639q-27 0 -46.5 19.5t-19.5 46.5v599q0 27 19.5 46.5t46.5 19.5h208q13 0 22 9t9 21.5t-9 21.5t-22 9h-208q-52 0 -89.5 -37.5t-37.5 -89.5v-599q0 -52 37.5 -89.5t89.5 -37.5h639q53 0 90 37.5
t37 89.5v285q0 13 -8.5 22t-21.5 9v0v0zM293 202q-3 -13 4.5 -23t19.5 -12q3 -1 5 -1q11 0 19.5 7t10.5 18q3 14 9.5 39.5t34 92t64.5 122.5q73 111 175 174q97 59 218 74l-99 -102q-8 -9 -8 -21.5t9 -21t21 -8.5q13 0 22 9l152 157l1 1v0v0l1 1v0l0.5 0.5l0.5 0.5v0v0
q0 1 1 1v0.5v0.5v0v0h1v1v0v1h1v0v1v0.5t0.5 0.5t0.5 0.5v1.5v0l0.5 0.5t0.5 1v1v0.5v1v0v0v1h1v0v1v0v1v0v1v0v0.5v0.5v0v0v0v1v0v0v2v0v0v0v0.5v0.5v0v0v1v0v1v0v0l-1 1v0v1v0v0v0v1v1v1h-1v1v0v0v0v1h-1v0v1v0v0q0 1 -1 2v0v0.5t-1 0.5v0v1v0v0l-1 1v0v0v1h-1v0v1h-1v1
h-0.5t-0.5 1v0q-1 0 -1 1v0h-1v1h-1v0l-1 1v0l-1 1v0h-1v0l-1 1v0h-1v1h-1h-1h-1v1v0h-1v0l-223 73q-11 4 -22.5 -1.5t-15.5 -17.5t1.5 -23t17.5 -15l90 -29q-99 -22 -183 -73q-113 -70 -193 -192q-41 -60 -70.5 -131.5t-36.5 -99.5t-10 -45v0v0zM293 202z" />
    <glyph glyph-name="lianjie" unicode="&#xe637;" 
d="M512 834q-91 0 -174.5 -36t-143.5 -96t-96 -143.5t-36 -174.5t36 -174.5t96 -143.5t143.5 -96t174.5 -36t174.5 36t143.5 96t96 143.5t36 174.5t-36 174.5t-96 143.5t-143.5 96t-174.5 36v0v0zM453 160q-34 -34 -82.5 -34t-82.5 34t-34 82.5t34 82.5l117 116q34 34 82 34
t82 -34l4 -4l2 -2q2 -2 4 -6h1h-1q10 -18 -4.5 -33t-32.5 -5q-1 0 -12 11v0q-18 17 -43 17.5t-43 -17.5l-116 -117q-18 -17 -18 -42.5t18 -42.5v0q17 -18 42.5 -18t42.5 18l71 70q38 -19 77 -1zM736 443l-117 -116q-34 -34 -82 -34t-82 34l-4 4l-2 2q-2 2 -4 6v0h-1h1
q-10 18 4.5 33t32.5 5q1 0 12 -11v0q18 -17 43 -17.5t43 17.5l116 117q18 17 18 42.5t-18 42.5v0q-17 18 -42.5 18t-42.5 -18l-71 -70q-38 19 -77 1l108 109q34 34 82.5 34t82.5 -34t34 -82.5t-34 -82.5v0v0zM736 443z" />
    <glyph glyph-name="qq" unicode="&#xe63b;" 
d="M512 834q-186 0 -318 -132t-132 -318t132 -318t318 -132t318 132t132 318t-132 318t-318 132v0zM711 274q-14 -39 -40 -74q2 0 5 -1.5t11 -6.5t13.5 -11t10 -16t3.5 -22q0 -2 -0.5 -5t-6 -10.5t-14.5 -13.5t-30 -10.5t-49 -3.5q-8 1 -20.5 2.5t-37.5 11t-35 22.5h-18
q-10 -13 -33 -22t-42 -11l-18 -3q-28 -1 -49 3.5t-30 10.5t-14.5 13.5t-6 10.5t-0.5 5q-1 19 9.5 33t21.5 19l12 5q-12 16 -22 34.5t-14 28.5l-4 11q-18 -29 -30.5 -38t-17.5 -1.5t-7.5 19.5t-2.5 23l1 11q5 31 20.5 59.5t28.5 41.5l12 14q-3 27 2 45.5t11 23.5l6 4
q1 40 11.5 72t25 51t34.5 33.5t36 20.5t34 9.5t24.5 4t10.5 0.5t10.5 -0.5t24.5 -4t34 -9.5t36 -20.5t34.5 -33.5t25 -51t11.5 -72q3 -1 7 -4.5t9.5 -22.5t2.5 -46q5 -5 13.5 -14.5t25.5 -39.5t22 -61v0v0q0 -1 0.5 -3.5t0 -9.5t-1 -13.5t-2 -13t-4 -10.5t-7 -5.5t-10.5 2
t-14 13.5t-19 26v0zM711 274z" />
    <glyph glyph-name="diandiandian" unicode="&#xe612;" 
d="M170 265q-47 0 -80 34.5t-33 83t33 83t80.5 34.5t80.5 -34.5t33 -83t-33 -83t-81 -34.5v0v0zM512 265q-47 0 -80.5 34.5t-33.5 83t33.5 83t80.5 34.5t80.5 -34.5t33.5 -83t-33.5 -83t-80.5 -34.5v0v0zM854 265q-48 0 -81 34.5t-33 83t33 83t80.5 34.5t80.5 -34.5t33 -83
t-33 -83t-80 -34.5v0v0zM854 265z" />
    <glyph glyph-name="wuliu" unicode="&#xe66d;" 
d="M911 171h-65q-6 48 -42 80t-84.5 32t-84.5 -32t-42 -80h-49q-20 0 -34 14t-14 34v432q0 20 14 34t34 14h367q20 0 34 -14t14 -34v-432q0 -20 -14 -34t-34 -14v0zM416 171h-33q-6 48 -42.5 80t-85 32t-84.5 -32t-42 -80h-33q-13 0 -22.5 9.5t-9.5 22.5v176q0 31 29 85
t68 96.5t63 42.5h192q13 0 22.5 -9.5t9.5 -22.5v-368q0 -13 -9.5 -22.5t-22.5 -9.5v0zM352 523q-51 2 -111 0q-21 -1 -59 -55t-38 -89v-16h208v160v0zM256 235q33 0 56.5 -23.5t23.5 -56.5t-23.5 -56.5t-56.5 -23.5t-56.5 23.5t-23.5 56.5t23.5 56.5t56.5 23.5v0zM723 235
q35 0 59.5 -24.5t24.5 -59.5t-24.5 -59.5t-59 -24.5t-59 24.5t-24.5 59.5t24.5 59.5t58.5 24.5v0zM723 235z" />
    <glyph glyph-name="fenlei" unicode="&#xe63e;" horiz-adv-x="1394" 
d="M1246 702h-858q-19 0 -32.5 14.5t-13.5 35t13.5 35t32.5 14.5h858q19 0 32.5 -14.5t13.5 -35t-13.5 -35t-32.5 -14.5v0zM1246 334h-858q-19 0 -32.5 14.5t-13.5 35.5t13.5 35.5t32.5 14.5h858q19 0 32.5 -14.5t13.5 -35.5t-13.5 -35.5t-32.5 -14.5v0zM1246 -33h-858
q-19 0 -32.5 14.5t-13.5 35t13.5 35t32.5 14.5h858q19 0 32.5 -14.5t13.5 -35t-13.5 -35t-32.5 -14.5v0zM83 17q0 34 24.5 58.5t59 24.5t58.5 -24.5t24 -58.5t-24 -58.5t-58.5 -24.5t-59 24.5t-24.5 58.5v0zM83 380q0 34 24.5 58.5t59 24.5t58.5 -24.5t24 -58.5t-24 -58.5
t-58.5 -24.5t-59 24.5t-24.5 58.5v0zM83 751q0 34 24.5 58.5t59 24.5t58.5 -24.5t24 -58.5t-24 -58.5t-58.5 -24.5t-59 24.5t-24.5 58.5v0z" />
    <glyph glyph-name="font18" unicode="&#xe665;" 
d="M128 172q0 -65 48 -104v-85q0 -21 13 -34t35 -13h48q22 0 35 13t13 34v47h384v-47q0 -21 13 -34t35 -13h48q22 0 35 13t13 34v85q48 39 48 104v471q0 48 -20.5 83t-53 55t-85 32t-104 15.5t-121.5 3.5t-121.5 -3.5t-104 -15.5t-85 -32t-53 -55t-20.5 -83v-471zM296 125
q-29 0 -50.5 21t-21.5 49.5t21.5 49.5t50.5 21t50.5 -21t21.5 -49.5t-21.5 -49.5t-50.5 -21zM728 125q-29 0 -50.5 21t-21.5 49.5t21.5 49.5t50.5 21t50.5 -21t21.5 -49.5t-21.5 -49.5t-50.5 -21zM800 408h-576v235h576v-235z" />
    <glyph glyph-name="zhibo" unicode="&#xe71e;" 
d="M868 728h-186l46 80q9 15 5 33t-20 29q-15 9 -33 4t-29 -22l-72 -124h-149l-72 124q-11 17 -29 22t-33 -4q-16 -11 -20 -29t5 -33l46 -80h-171q-66 0 -114 -48.5t-48 -114.5v-521q0 -67 48 -115t114 -48h712q68 0 115 47t47 116v521q0 66 -48 114.5t-114 48.5zM942 43
q0 -31 -21.5 -52.5t-52.5 -21.5h-712q-31 0 -52.5 21.5t-21.5 52.5v522q0 31 21.5 52.5t52.5 21.5h712q31 0 52.5 -21.5t21.5 -52.5v-522zM734 366q-32 20 -186 104q-23 12 -49.5 27t-41 23t-16.5 9q-18 9 -36 9q-28 0 -48 -21t-20 -50v-329q0 -29 20 -48.5t48 -19.5
q21 0 33 12q4 1 19.5 10t42.5 24.5t51 27.5q42 24 87 49.5t68 39t28 15.5q33 18 33 59t-33 59zM509 221q-13 -7 -83 -47v260q33 -18 80 -44q60 -35 154 -86q-51 -30 -151 -83z" />
    <glyph glyph-name="shuaxin" unicode="&#xe630;" 
d="M976 407q-12 0 -21 -9t-9 -21q0 -90 -34.5 -171t-93.5 -140t-140.5 -93.5t-170.5 -34.5t-170 34.5t-140 93.5t-93.5 140t-34.5 170.5t34.5 170.5t93.5 140t140 93.5t170 34.5q96 0 182.5 -39.5t148.5 -111.5h-153q-12 0 -21 -8.5t-9 -21t9 -21.5t21 -9h209h0.5h1h1h1.5
q12 0 21 9t9 21v226q0 13 -9 22t-21.5 9t-21.5 -9t-9 -22v-138q-70 73 -163.5 113.5t-196.5 40.5q-101 0 -193.5 -40t-159.5 -106.5t-106.5 -159t-39.5 -194t39.5 -194t106.5 -159t159.5 -106.5t194 -40t194 40t159 106.5t106 159t39.5 194.5q0 12 -8.5 21t-21.5 9v0z" />
    <glyph glyph-name="fan" unicode="&#xe668;" 
d="M861 815h-731q-34 0 -57.5 -24t-23.5 -57v-731q0 -34 23.5 -57.5t57.5 -23.5h731q33 0 57 23.5t24 57.5v731q0 33 -24 57t-57 24zM300 189v206q-67 0 -98 -6v44q28 -5 68.5 -5t75.5 5q-6 -26 -6 -79v-171q13 -6 26 -14q35 -21 87.5 -30.5t135 -9.5t211.5 11
q-15 -21 -16 -51q-73 -2 -129 -2q-123 0 -192.5 10.5t-112.5 38.5q-21 14 -37 14t-35.5 -16t-47.5 -50q-14 21 -39 34q77 66 109 71zM375 518l-33 -32q-49 60 -130 110l26 33q91 -61 137 -111zM467 465q0 -110 -15.5 -167.5t-48.5 -123.5q-19 17 -46 23q44 57 57.5 116.5
t13.5 159t-6 142.5q120 -2 185.5 6.5t104.5 30.5q17 -24 38 -42q8 -6 8 -10t-4.5 -4t-9.5 1t-16 1q-32 0 -83.5 -7t-100.5 -10t-77 -3v-79h163q71 0 118 4q-27 -118 -93 -201q42 -41 109 -113l-38 -30q-47 59 -97 111q-54 -58 -138 -111q-17 22 -43 32q94 46 153 108
q-61 60 -106 94l29 30q55 -46 103 -93q48 61 68 135h-228z" />
    <glyph glyph-name="xinlang" unicode="&#xe639;" 
d="M468.5 329q-7.5 0 -12.5 -5.5t-5 -13t5 -13t12.5 -5.5t13 5.5t5.5 13t-5.5 13t-13 5.5zM452.5 419q-73.5 -10 -121 -52t-41 -91t64 -76t131 -16.5t121 52.5t40.5 90.5t-64 75.5t-130.5 17zM467 201.5q-44 -8.5 -80 11.5t-43 57.5t18.5 69.5t69.5 40.5t80.5 -11.5
t43.5 -57t-19 -69.5t-70 -41zM511 834q-91 0 -174.5 -36t-143.5 -96t-96 -143t-36 -174.5t36 -175t96 -143.5t143.5 -96t174.5 -36t174.5 36t143.5 96t96 143.5t36 175t-36 174.5t-96 143t-143.5 96t-174.5 36zM477.5 128q-115.5 0 -197 53.5t-81.5 128.5q0 48 49.5 111
t111.5 106.5t98 43.5q12 0 25.5 -4.5t25 -15.5t11 -29.5t-14.5 -45.5q0 -1 5 1t14 5t21 6.5t26 6t27.5 3.5t27.5 -1.5t25 -9.5q18 -10 21.5 -25.5t-2 -27t-12.5 -22t-7 -11.5t10.5 -3t26 -7t31 -13t26.5 -26t11 -42q0 -75 -81.5 -128.5t-197 -53.5zM697 502q-7 9 -20.5 13
t-22.5 3h-10q-5 0 -9 3.5t-4 8.5v5q0 6 4 10t9 5t13 2t28 -3t34.5 -17.5t19 -34.5t1.5 -35l-2 -15q-1 -5 -5.5 -9t-10.5 -4h-12q-5 0 -7.5 4t-1.5 9q5 5 5 26q0 18 -9 29zM820 431q-1 -8 -7.5 -14t-14.5 -6h-8q-8 0 -13 6t-4 14q2 7 3.5 19.5t-3 43.5t-20.5 54.5t-46 34
t-52 9.5h-22q-8 -1 -14 4.5t-6 14.5v9q0 8 5.5 14t14.5 6q3 1 9.5 1t24.5 -2t35.5 -6t39 -15t38.5 -27q26 -26 36.5 -66t6.5 -67zM404.5 300q-13.5 -6 -19.5 -18t-1.5 -22t17.5 -13t26.5 3.5t19.5 18t1.5 22t-17.5 13t-26.5 -3.5z" />
    <glyph glyph-name="youjian" unicode="&#xe605;" 
d="M865 9h-706q-39 0 -66.5 27.5t-27.5 66.5v562q0 39 27.5 66.5t66.5 27.5h706q39 0 66.5 -27.5t27.5 -66.5v-94q0 -18 -18 -22q-37 -15 -417 -232q-13 -7 -25 0l-259 164q-8 6 -10 15t3 17.5t14.5 10.5t18.5 -3l247 -156q331 188 399 221v79q0 19 -13.5 33t-33.5 14h-706
q-20 0 -33.5 -14t-13.5 -33v-562q0 -19 13.5 -33t33.5 -14h706q20 0 33.5 14t13.5 33v281q0 10 7 16.5t16.5 6.5t16.5 -6.5t7 -16.5v-281q0 -39 -27.5 -66.5t-66.5 -27.5v0v0z" />
    <glyph glyph-name="cha" unicode="&#xe6b3;" 
d="M512 832q-91 0 -174 -35.5t-143 -95.5t-95.5 -143t-35.5 -174t35.5 -174t95.5 -143t143 -95t174 -35t174 35t143 95t95 143t35 174t-35 174t-95 143t-143 95.5t-174 35.5zM737 201q10 -9 10 -22.5t-9.5 -23t-23 -9t-22.5 9.5l-180 181l-182 -180q-9 -9 -22 -9t-22.5 9.5
t-9.5 22.5t9 23l182 180l-180 182q-10 9 -9.5 22.5t9.5 22.5t22.5 9t22.5 -9l181 -182l181 180q10 9 23 9t22.5 -9.5t9.5 -22.5t-10 -23l-181 -180z" />
    <glyph glyph-name="mian" unicode="&#xe669;" 
d="M577 569h-168q-42 -45 -69 -69h195q15 21 42 69zM676 460h-134q-7 -45 -17 -101h151v101zM362 359h114q10 30 17 101h-131v-101zM809 830h-594q-62 0 -106 -44t-44 -106v-592q0 -62 44 -106t106 -44h594q62 0 106 44t44 106v592q0 62 -44 106t-106 44zM767 123
q-15 -14 -49 -16h-126q-64 0 -64 62v153h-13q-49 -136 -232 -222q-12 22 -39 44q170 57 222 178h-104v-27h-49q2 42 2 182q-21 -16 -47 -34q-15 24 -37 42q74 39 127 97t71 98q22 -15 54 -25q-15 -15 -42 -49h215q-13 -23 -69 -106h138q-2 -30 -2 -87q0 -54 2 -91h-151v-136
q0 -37 40 -37h86q25 0 32.5 13.5t9.5 58.5q25 -20 57 -28q-17 -56 -32 -70z" />
    <glyph glyph-name="fenlei1" unicode="&#xe619;" horiz-adv-x="1026" 
d="M881 -66h-255q-33 0 -57.5 33.5t-24.5 69.5v233q0 34 24 58t58 24h255q34 0 58 -24t24 -58v-254q0 -34 -24 -58t-58 -24v0zM921 267q0 18 -12.5 30t-29.5 12h-251q-18 0 -30 -12t-12 -30v-251q0 -17 12 -29.5t30 -12.5h251q17 0 29.5 12.5t12.5 29.5v251zM881 416h-255
q-33 0 -57.5 33.5t-24.5 69.5v233q0 34 24 58t58 24h255q34 0 58 -24t24 -58v-254q0 -34 -24 -58t-58 -24v0zM921 749q0 17 -12.5 29.5t-29.5 12.5h-251q-18 0 -30 -12.5t-12 -29.5v-251q0 -18 12 -30t30 -12h251q17 0 29.5 12t12.5 30v251zM399 -66h-255q-32 0 -57 33.5
t-25 69.5v233q0 34 24 58t58 24h255q34 0 58 -24t24 -58v-254q0 -34 -24 -58t-58 -24v0zM439 267q0 18 -12.5 30t-29.5 12h-251q-18 0 -30 -12t-12 -30v-251q0 -17 12 -29.5t30 -12.5h251q17 0 29.5 12.5t12.5 29.5v251zM399 416h-255q-32 0 -57 33.5t-25 69.5v233
q0 34 24 58t58 24h255q34 0 58 -24t24 -58v-254q0 -34 -24 -58t-58 -24v0zM439 749q0 17 -12.5 29.5t-29.5 12.5h-251q-18 0 -30 -12.5t-12 -29.5v-251q0 -18 12 -30t30 -12h251q17 0 29.5 12t12.5 30v251zM439 749z" />
    <glyph glyph-name="anonymous-iconfont" unicode="&#xe685;" 
d="M512.5 -50q-117.5 0 -217 58t-157.5 158.5t-58 218.5t58 218.5t157.5 159t217 58.5t217 -58.5t157.5 -159t58 -218.5t-58 -218.5t-157.5 -158.5t-217 -58zM726 404q0 14 -9.5 23.5t-23.5 9.5h-133v134q0 14 -9.5 24t-23.5 10h-33q-14 0 -24 -10t-10 -24v-134h-133
q-14 0 -23.5 -9.5t-9.5 -23.5v-33q0 -14 9.5 -24t23.5 -10h133v-134q0 -14 10 -23.5t24 -9.5h33q14 0 23.5 9.5t9.5 23.5v134h133q14 0 23.5 10t9.5 24v33z" />
    <glyph glyph-name="xinfeng" unicode="&#xe68a;" 
d="M908 742h-764q-27 0 -46.5 -19.5t-19.5 -47.5v-585q0 -28 19.5 -47.5t46.5 -19.5h764q27 0 46.5 19.5t19.5 47.5v585q0 28 -19.5 47.5t-46.5 19.5zM888 631l-343 -343q-8 -8 -21 -8q-12 0 -21 8l-342 343q-8 8 -8 20t8 20.5t20 8.5t20 -9l323 -323l323 323q9 9 20.5 9
t20 -8.5t8.5 -20.5t-8 -20z" />
    <glyph glyph-name="icon" unicode="&#xe61d;" 
d="M256 667q21 0 36 -15t15 -36.5t-15 -36.5t-36 -15t-36 15t-15 36.5t15 36.5t36 15v0zM256 667zM768 667q21 0 36 -15t15 -36.5t-15 -36.5t-36 -15t-36 15t-15 36.5t15 36.5t36 15v0zM768 667zM870 -79h-716q-42 0 -72 30t-30 73v720q0 43 30 73t72 30h716q42 0 72 -30
t30 -73v-720q0 -43 -30 -73t-72 -30v0zM154 796q-21 0 -36 -15t-15 -37v-720q0 -22 15 -37t36 -15h716q21 0 36 15t15 37v720q0 22 -15 37t-36 15h-716v0zM154 796zM512 333q-116 0 -198.5 83t-82.5 200q0 10 7.5 17.5t18 7.5t18 -7.5t7.5 -17.5q0 -96 67.5 -164t162.5 -68
t162.5 68t67.5 164q0 10 7.5 17.5t18 7.5t18 -7.5t7.5 -17.5q0 -117 -82.5 -200t-198.5 -83v0zM512 333z" />
    <glyph glyph-name="wode" unicode="&#xe602;" 
d="M1024 -19zM930 -128h-100h-652h-85q-38 0 -65.5 27.5t-27.5 65.5v9v7v5q1 132 65.5 227.5t176.5 148.5q-65 89 -65 199q0 91 44.5 168t122 122t168.5 45t168.5 -45t122 -122t44.5 -168q0 -110 -65 -199q112 -53 177 -150t65 -231v0v-16q0 -38 -27.5 -65.5t-66.5 -27.5z
M794 561q0 117 -82.5 199.5t-199.5 82.5t-199.5 -82.5t-82.5 -199.5t82.5 -200t199.5 -83t199.5 83t82.5 200zM971 -26q0 126 -60 213.5t-164 133.5q-98 -96 -235 -96t-235 96q-104 -46 -163.5 -134t-59.5 -213v0v-1v-15q0 -14 9 -23.5t22 -9.5h87h664h103q13 0 22.5 9.5
t9.5 23.5v15v1v0zM0 -19v0v1v-1v0zM0 -14v-2.5v-1.5v11v-7z" />
    <glyph glyph-name="erweima" unicode="&#xe60e;" 
d="M92 832h359q11 -1 17 -7.5t8.5 -21t3 -24t0 -30t-0.5 -25.5v-196q0 -8 0.5 -26t0.5 -27.5t-2 -22.5t-6.5 -20.5t-13 -11t-25 -4t-39.5 0.5t-28 1h-191q-7 0 -27 -0.5t-30 -0.5t-24 2.5t-21 9t-9 16.5v360q8 21 28 27v0v0zM141 751v-256h259v260h-258q-1 -1 -1 -4v0v0z
M574 832h360q23 -9 27 -32v-350q-5 -25 -25 -31q-11 -3 -26 -3t-35.5 1t-28.5 1h-185q-8 0 -29 -1t-37 -1t-26 3q-9 3 -14.5 11t-7 22t-2 24.5t0 30t0.5 26.5v184q0 8 -0.5 29t-0.5 31.5t2.5 24.5t9 21t17.5 9v0v0zM624 751v-256h259v260h-258q-2 -1 -1 -4v0v0zM259 676
q27 5 46 -10t20 -40q0 -31 -26 -46.5t-53 -2.5q-19 10 -25.5 32t4 42.5t34.5 24.5v0v0zM742 676q44 8 59 -29q13 -32 -9 -58q-18 -22 -50 -16q-26 4 -36 27.5t0 47t36 28.5v0v0zM449 -65h-356q-23 7 -29 29v358q7 21 24 26q11 3 26 3t35.5 -1t29.5 -1h184q8 0 28.5 1.5
t36.5 1t27 -3.5q9 -3 15 -10.5t8 -21.5t2 -24.5t-0.5 -30t-0.5 -26.5v-189q0 -7 0.5 -28t0 -30.5t-3 -23.5t-9.5 -20.5t-18 -8.5v0v0zM141 268v-255h259v259h-258q-1 0 -1 -4v0v0zM961 317v-100q-1 -8 -1 -53v-55h-257v58q-5 2 -38.5 1.5t-40.5 -0.5q-2 -19 -1.5 -115.5
t-0.5 -117.5h-47q-11 3 -18 10.5t-9.5 21.5t-2.5 24.5t0.5 30.5t0.5 29v184q0 8 -1 29t-0.5 37t3.5 26q1 5 4 9t9 6.5t10 4t13 2t13 0.5h15.5h14.5h175v-158h81q0 14 -0.5 79.5t1.5 78.5q20 1 37 0.5t28 -8.5t12 -24v0v0zM265 195q30 3 48.5 -20t7.5 -53q-10 -27 -39 -31.5
t-50 15t-12.5 52.5t45.5 37v0v0zM790 -65h-87v47.5t1 45.5h86v-93v0v0zM961 28v-61q-5 -24 -29 -32h-61q0 9 -0.5 47.5t1.5 45.5h89v0v0z" />
    <glyph glyph-name="qqkongjian" unicode="&#xe63a;" 
d="M659 452q-92 14 -164.5 13t-117.5 -9l-45 -8q24 1 56.5 -0.5t61 -4t53.5 -5.5t40.5 -5t14.5 -2l-191 -140q135 -21 298 3l-2 9q-34 2 -81 6t-77 7l-29 4zM512 832q-91 0 -174 -35.5t-143 -95.5t-95.5 -143t-35.5 -174t35.5 -173.5t95.5 -142.5t143 -95.5t174 -35.5
t173.5 35.5t142.5 95.5t95.5 142.5t35.5 173.5t-35.5 174t-95.5 143t-142.5 95.5t-173.5 35.5zM663 303q27 -2 45 -2q-16 -3 -43 -7l29 -171l-185 97l-186 -97l35 207l-150 146l208 30l93 188l92 -188l208 -30l-150 -146zM802 464z" />
    <glyph glyph-name="kefu" unicode="&#xe693;" horiz-adv-x="1118" 
d="M949 427q-12 0 -20.5 -8.5t-8.5 -20.5v-270q0 -12 9 -20h-1h1q8 -9 20 -9h80q12 0 21 9v0v0q9 8 9 20v270q0 11 -8 19l-1 1q-9 9 -21 9h-80v0v0zM636 15l-4 2q-16 8 -34 3q-19 -5 -29 -21v0q-6 -11 -6 -22v-2v-1q0 -5 2 -11q4 -17 20 -27q1 -1 3 -2q17 -8 35 -4
q18 5 28 21q1 2 2 3q8 16 3 33q-4 18 -20 28v0v0zM664 65q38 -21 49 -62.5t-11 -78.5v-1v0q-22 -37 -64 -48t-81 11v0q-37 21 -49 61h-188h-3q-55 1 -116.5 17t-108.5 45q-92 58 -92 148v241q0 35 26 60.5t62 25.5h13q14 163 134 280q64 62 148.5 97t178.5 35t179 -35
t149 -97q119 -117 134 -280h5q37 0 63 -25q0 -1 1 -2q24 -25 24 -59v-270q0 -35 -26 -60h1q-26 -26 -63 -26h-80q-36 0 -62 26v-1q-26 26 -26 61v270q0 35 26 60.5t62 25.5h16q-14 139 -117 239q-56 55 -129.5 85.5t-156 30.5t-156.5 -30.5t-130 -85.5q-102 -99 -116 -239h8
q36 0 62 -25l2 -2q24 -25 24 -59v-244q0 -12 -8.5 -20t-20.5 -8t-20.5 8t-8.5 20v244q0 11 -8 19l-1 1q-9 9 -21 9h-80q-12 0 -20.5 -8.5t-8.5 -20.5v-241q0 -59 65 -100q40 -25 93.5 -38.5t100.5 -14.5h2h188q4 12 10 23v0v0q23 37 65 48t80 -10h1v0v0z" />
    <glyph glyph-name="chacha" unicode="&#xe634;" 
d="M578 387l371 369q13 13 13.5 32t-13 32t-32 13t-31.5 -13l-372 -370l-368 370q-13 13 -31.5 13t-32 -13t-13.5 -31.5t13 -32.5l369 -369l-372 -370q-13 -13 -13 -31.5t13 -31.5t31.5 -13t31.5 13l372 369l372 -373q13 -13 31.5 -13t31.5 13t13.5 31.5t-13.5 32.5
l-371 373v0z" />
    <glyph glyph-name="duigouzhuanhuan" unicode="&#xe68d;" 
d="M512 -96q-98 0 -186.5 38t-153 102.5t-102.5 153t-38 186.5t38 186.5t102.5 153t153 102.5t186.5 38t186.5 -38t153 -102.5t102.5 -153t38 -186.5t-38 -186.5t-102.5 -153t-153 -102.5t-186.5 -38zM512 804q-174 0 -297 -123t-123 -297t123 -297t297 -123t297 123
t123 297t-123 297t-297 123zM461 217l-1 -2t-2 -2q-8 -9 -21 -9t-21 9q-1 0 -2 2l-1 2l-147 147q-9 9 -9 21t8.5 20.5t20.5 8.5t21 -9l130 -130l280 280q9 9 21 9t20.5 -8.5t8.5 -20.5t-9 -21z" />
    <glyph glyph-name="shield" unicode="&#xe677;" 
d="M894 708l-65 1q-7 0 -22.5 1.5t-54 9.5t-71.5 21q-74 30 -130 68l-39 29l-39 -29h-1q-53 -37 -129 -68q-33 -13 -71 -21t-54.5 -9.5t-22.5 -1.5l-64 -1h-1v-383q0 -70 40.5 -143.5t99 -127.5t125 -89t117.5 -35t117.5 35t125 89t99.5 127.5t41 143.5zM707 475l-224 -252
l-2 1l-146 119l40 48l1 -1l100 -82l186 210l47 -42z" />
    <glyph glyph-name="q" unicode="&#xe6df;" 
d="M635 492.5q-17 37.5 -50 58.5t-74 21q-61 0 -101.5 -42t-40.5 -125q0 -81 40 -124t102 -43q29 0 55 11q-25 17 -54 24l14 39q47 -13 78 -39q48 44 48 132q0 50 -17 87.5zM769 769h-513q-53 0 -90.5 -37.5t-37.5 -90.5v-513q0 -53 37.5 -91t90.5 -38h513q53 0 91 38t38 91
v513q0 53 -38 90.5t-91 37.5zM700 166q-45 16 -89 51q-46 -26 -101 -26q-56 0 -102 27t-70.5 76t-24.5 111q0 61 25 111t70.5 76.5t102.5 26.5t103 -27.5t70 -76t24 -110.5q0 -51 -15.5 -91.5t-46.5 -71.5q38 -26 70 -38z" />
    <glyph glyph-name="jian" unicode="&#xe66a;" 
d="M960 22q0 -36 -25.5 -61.5t-61.5 -25.5h-725q-37 0 -62 25.5t-25 61.5v725q0 36 25 61.5t62 25.5h725q36 0 61.5 -25.5t25.5 -61.5v-725zM317 398l-41 7q-11 -44 -37 -136.5t-39 -131.5l44 -10zM288 470l40 14q-45 118 -73 179l-39 -12q34 -74 72 -181zM820 266l-35 7
q-3 -44 -7 -73q-3 -26 -10.5 -38.5t-13.5 -14.5q-18 -4 -36 35q-13 30 -23 69q60 96 86 234l-38 6q-20 -109 -60 -186q-17 90 -26 243v2h149v39h-152q-4 78 -5 101h-39q1 -28 5 -101h-240v-280q0 -116 -62 -204l39 -26q28 44 45 109t17 121v241h203q13 -190 37 -293
q-49 -72 -132 -134l28 -30q73 59 116 118q10 -27 17 -45q18 -39 34.5 -52.5t36.5 -13.5q21 0 35.5 17.5t20.5 63.5q7 44 10 85zM600 435v39h-154v-39h154zM454 370v-187h133v187h-133zM487 331h67v-111h-67v111zM747 591l29 21q-34 41 -67 72l-27 -20q33 -35 65 -73z" />
    <glyph glyph-name="xingxing-copy-copy" unicode="&#xe65b;" 
d="M804 13q5 -27 -8.5 -37t-37.5 2l-237 117l-233 -129q-24 -13 -38 -3.5t-10 36.5l41 263l-194 181q-19 18 -14.5 34.5t31.5 20.5l262 45l114 242q11 24 28 24.5t29 -23.5l122 -236l264 -31q27 -3 32.5 -19t-13.5 -36l-187 -190zM804 13z" />
    <glyph glyph-name="alipay" unicode="&#xe632;" 
d="M962 218v442q0 72 -51 122.5t-122 50.5h-554q-71 0 -122 -50.5t-51 -122.5v-553q0 -72 51 -122.5t122 -50.5h554q63 0 111 40.5t59 101.5q-248 108 -348 155q-63 -76 -130 -114t-156 -38q-92 0 -148.5 49.5t-48.5 120.5q2 21 8.5 40.5t23 42t41 37t65.5 22.5t94 3
q23 -2 45.5 -5.5t35.5 -6t37 -9.5t29.5 -8.5t36.5 -12t35 -11.5q31 56 51 122h-350v35h173v62h-211v38h211v90q2 14 18 14h86v-104h225v-38h-225v-62h183q-25 -102 -74 -187q24 -9 98 -32t135.5 -42t62.5 -19v0v0zM311 138q-46 0 -78.5 13t-46 33t-18.5 38.5t-2 33.5
q6 30 37 54.5t81 24.5q115 0 250 -65q-49 -63 -106 -97.5t-117 -34.5v0z" />
    <glyph glyph-name="top" unicode="&#xe603;" 
d="M212.5 325q-19.5 0 -33 13.5t-13.5 33t14 32.5l299 300q14 13 33 13t33 -13.5t14 -33t-14 -32.5l-299 -299q-14 -14 -33.5 -14zM811.5 325q-19.5 0 -33.5 14l-299 299q-14 13 -14 32.5t14 33t33 13.5t33 -13l299 -300q14 -13 14 -32.5t-13.5 -33t-33 -13.5zM512 -102
q-19 0 -33 13.5t-14 33.5v726q0 19 14 32.5t33 13.5t33 -13.5t14 -32.5v-726q0 -20 -14 -33.5t-33 -13.5zM876 763h-728q-19 0 -32.5 13t-13.5 32t13.5 32.5t32.5 13.5h728q19 0 32.5 -13.5t13.5 -32.5t-13.5 -32t-32.5 -13z" />
    <glyph glyph-name="chacha1" unicode="&#xe635;" 
d="M141 13q-19 0 -26 6q-9 10 -9 22.5t9 22.5l723 723q10 10 23 10t22.5 -9.5t9.5 -22.5t-10 -23l-717 -723q-6 -6 -25 -6zM864 13q-19 0 -26 6l-716 723q-10 10 -10 23t9.5 22.5t22.5 9.5t22 -10l717 -723q10 -10 10 -22.5t-10 -22.5q-6 -6 -19 -6z" />
    <glyph glyph-name="gou" unicode="&#xe667;" horiz-adv-x="1025" 
d="M512 896q-104 0 -199 -40.5t-163.5 -109t-109 -163.5t-40.5 -199t40.5 -199t109 -163.5t163.5 -109t199 -40.5t199 40.5t163.5 109t109 163.5t40.5 199t-40.5 199t-109 163.5t-163.5 109t-199 40.5zM806 517l-331 -331h-1q-11 -12 -27 -13.5t-29 6.5q-5 3 -9 7v0
l-191 190q-13 14 -13 33t13.5 32.5t32.5 13.5t33 -13l158 -158l298 298q14 14 33 14t32.5 -13.5t13.5 -33t-13 -32.5z" />
    <glyph glyph-name="xin0" unicode="&#xe631;" 
d="M967.5 380.5q-0.5 -92.5 -36.5 -176t-97 -144t-145 -96.5t-176 -36q-92 1 -175.5 37t-144 96.5t-96.5 144t-36 174.5q0 93 36 177.5t97 145t145 96.5t176 36t176 -36.5t144.5 -97t96.5 -144.5t35.5 -176.5zM513 113q24 20 25 21q164 136 185 155q47 42 70 94
q19 45 8 88.5t-48 72.5q-56 43 -133 34q-59 -8 -106 -51q-69 64 -163 50q-52 -8 -86 -41.5t-38.5 -77.5t19.5 -93q27 -46 62 -77q22 -21 205 -175z" />
    <glyph glyph-name="qianbao" unicode="&#xe66e;" 
d="M959 608q0 55 -39 94.5t-95 39.5h-626q-56 0 -95 -39.5t-39 -94.5v-448q0 -55 39 -94.5t95 -39.5h626q56 0 95 39.5t39 94.5v90h-223q-56 0 -95.5 39t-39.5 95t39.5 95t95.5 39h223v90zM669 384q0 -28 19.5 -47.5t47.5 -19.5t47.5 19.5t19.5 47.5t-19.5 47.5t-47.5 19.5
t-47.5 -19.5t-19.5 -47.5z" />
    <glyph glyph-name="ren" unicode="&#xe62d;" 
d="M509 -66q-93 2 -176.5 38t-143 97t-94.5 145t-34 176q1 90 38 172.5t98 142t144.5 94.5t173.5 34q91 -1 174 -38t142.5 -98t94.5 -145t34 -176q-1 -89 -38 -171.5t-97.5 -142t-143.5 -94.5t-172 -34zM623 261q115 -37 193 -134q65 73 86 172t-9.5 202t-113.5 180
q-75 70 -177 92.5t-203.5 -6.5t-174.5 -104q-74 -77 -100 -178t-3 -195.5t85 -162.5q75 96 194 135q-40 35 -59.5 77t-17.5 80t15.5 70.5t36.5 56.5q51 54 126.5 57.5t131.5 -45.5q134 -116 -10 -297zM241 91l7 -9q66 -63 162.5 -86.5t193.5 -2t164 83.5q10 10 9.5 16
t-9.5 15q-144 160 -349 107q-108 -28 -178 -124zM511 278q57 0 97.5 40t41.5 97q1 56 -40.5 98t-98.5 43q-56 1 -98 -40.5t-42 -99t41 -98t99 -40.5z" />
    <glyph glyph-name="shengyin-copy" unicode="&#xe609;" horiz-adv-x="1195" 
d="M308 609v-450h-150q-31 0 -53 22t-22 52v302q0 31 22 52.5t53 21.5h150zM548 789q25 19 42.5 10t17.5 -40v-750q0 -31 -17.5 -40t-42.5 10l-240 180v450zM971 26q73 73 111 167.5t38 190.5t-38 190.5t-111 167.5q-17 16 -40 16t-39.5 -16.5t-16.5 -39.5t16 -40
q57 -56 86.5 -129.5t29.5 -148.5t-29.5 -148.5t-86.5 -129.5q-16 -17 -16 -40t16.5 -39.5t39.5 -16.5t40 16v0v0zM812 185q82 83 82 199t-82 199q-17 16 -40 16t-39.5 -16.5t-16.5 -39.5t16 -40q50 -49 50 -119t-50 -119q-16 -17 -16 -40t16.5 -39.5t39.5 -16.5t40 16v0z
" />
    <glyph glyph-name="gou1" unicode="&#xe66c;" 
d="M1005 629l-588 -594l-17 -16l-17 16l-364 368l119 120l262 -265l486 491l119 -120v0zM1005 629z" />
    <glyph glyph-name="weixinzhifu" unicode="&#xe633;" 
d="M870 830h-714q-37 0 -63 -26.5t-26 -62.5v-714q0 -37 26 -63t63 -26h714q37 0 63 26t26 63v714q0 36 -26 62.5t-63 26.5zM513 124q-60 0 -115 19q-58 -38 -76 -46q-10 -5 -13.5 -2t-3.5 8l1 5l13 75q-55 39 -86.5 95t-31.5 121q0 114 91.5 194.5t220.5 80.5
q78 0 145 -31.5t111 -85.5l-307 -142q-25 -10 -47 3l-50 36l-13 7q-10 3 -8 -13q1 -7 5 -18l47 -110q0 -1 0.5 -3t3.5 -6.5t7.5 -7t12.5 -1.5t19 7q31 17 354 212q32 -58 32 -122q0 -114 -91.5 -194.5t-220.5 -80.5z" />
    <glyph glyph-name="cha2" unicode="&#xe68e;" 
d="M297 170q9 -9 21 -9t21 9l173 173l173 -173q9 -9 20.5 -9t20.5 9t9 20.5t-8 20.5l-174 173l173 173q9 9 9 21t-9 21t-20.5 9t-20.5 -9l-173 -173l-173 173q-9 9 -21 9t-21 -9t-9 -21t9 -21l173 -173l-173 -173q-9 -9 -9 -21t9 -20v0v0zM512 -93q95 0 182.5 36t154.5 104
t103.5 155t36.5 182q0 96 -36 183t-104 154q-67 68 -154.5 104t-183 36t-182.5 -36t-154 -104q-68 -67 -104 -154t-36 -182.5t36 -183t104 -154.5q67 -68 154 -104t183 -36v0v0zM217 679q59 60 135 91.5t160 31.5t160 -31.5t135 -91t90.5 -135.5t31.5 -160t-31.5 -160
t-90.5 -135t-135 -90.5t-160 -31.5t-160 31.5t-135.5 90.5t-91 135t-31.5 160t31.5 160t91.5 135v0v0z" />
    <glyph glyph-name="jiantou-copy" unicode="&#xe606;" 
d="M491 520q-9 9 -9 22.5t9 22.5v0q9 9 22.5 9t22.5 -9l317 -317q9 -9 9 -22.5t-9 -22.5v0q-9 -9 -22.5 -9t-22.5 9zM216 203q-9 -9 -22.5 -9t-22.5 9v0q-9 9 -9 22.5t9 22.5l317 317q9 9 22.5 9t22.5 -9v0q9 -9 9 -22.5t-9 -22.5z" />
    <glyph glyph-name="jiantou-copy1" unicode="&#xe607;" 
d="M904 405q9 9 22.5 9t22.5 -9v0q9 -9 9 -22.5t-9 -22.5l-317 -317q-9 -9 -22.5 -9t-22.5 9v0q-9 9 -9 22.5t9 22.5zM587 680q-9 9 -9 22.5t9 22.5v0q9 9 22.5 9t22.5 -9l317 -317q9 -9 9 -22.5t-9 -22.5v0q-9 -9 -22.5 -9t-22.5 9z" />
    <glyph glyph-name="jiantou-copy2" unicode="&#xe608;" 
d="M533 184q9 -9 9 -22.5t-9 -22.5v0q-9 -9 -22.5 -9t-22.5 9l-317 317q-9 9 -9 22.5t9 22.5v0q9 9 22.5 9t22.5 -9zM808 501q9 9 22.5 9t22.5 -9v0q9 -9 9 -22.5t-9 -22.5l-317 -317q-9 -9 -22.5 -9t-22.5 9v0q-9 9 -9 22.5t9 22.5z" />
    <glyph glyph-name="wode1" unicode="&#xe60a;" 
d="M933 89q-24 62 -65 114q-42 51 -97 86q-39 25 -82 40q12 10 23 21q83 83 83 200t-83 199.5t-200 82.5t-200 -82.5t-83 -199.5t83 -200q11 -11 23 -21q-43 -15 -82 -40q-55 -35 -97 -86q-41 -52 -65 -114q-24 -63 -26 -132q0 -8 5.5 -14t14.5 -6h854q9 0 14.5 6t5.5 14
q-2 69 -26 132zM268 549.5q0 100.5 71.5 172t172.5 71.5t172.5 -71.5t71.5 -172t-71.5 -172t-172.5 -71.5t-172.5 71.5t-71.5 172zM105 -24q10 115 84.5 205t186.5 121q63 -35 136 -35t136 35q112 -31 186.5 -121t84.5 -205h-814z" />
    <glyph glyph-name="faxian" unicode="&#xe60b;" 
d="M927 559q-30 72 -82 129v0v0q-7 7 -14 15q-63 62 -144 96q-83 36 -175 36t-175 -36q-81 -34 -143.5 -96.5t-96.5 -143.5q-36 -83 -36 -175t36 -175q34 -81 96.5 -143.5t143.5 -96.5q83 -36 175 -36t175 36q81 34 143.5 96.5t96.5 143.5q36 83 36 175t-36 175zM512 -28
q-112 0 -206.5 55.5t-150 150t-55.5 206.5t55.5 206.5t150 150t206.5 55.5q83 0 158.5 -32t132.5 -89l-196 -178l-158 -43l-74 -194l202 54l57 155l195 178q95 -115 95 -263q0 -112 -55.5 -206.5t-150 -150t-206.5 -55.5z" />
    <glyph glyph-name="gouwuche" unicode="&#xe60c;" 
d="M950 68q-5 53 -63 73q-26 8 -52 8h-495q-28 14 -30 51v2l-6 39q5 -1 10 -1h509q30 0 50.5 22t21.5 52l55 377v3q0 33 -23.5 57t-57.5 24h-400h-86h-87h-80q-25 28 -74 32q-31 2 -59 -4q-8 -2 -12 -8.5t-2.5 -14.5t8.5 -12.5t15 -2.5t23 3.5t42.5 -4.5t36.5 -25l77 -542
q0 -6 2 -14.5t7.5 -23t18 -27.5t30.5 -20q3 -2 7 -2h499h1q21 0 40 -6q33 -12 36 -40q0 -7 5.5 -12.5t13.5 -5.5q1 0 2 1q8 0 13 6.5t4 14.5zM383 736h86h400q17 0 29.5 -12t12.5 -29l-55 -376v-3q0 -15 -9.5 -26t-23.5 -11h-509q-8 0 -16 5l-64 452h62h87zM354 2zM288 2.5
q0 27.5 19.5 46.5t46.5 19t46 -19t19 -46.5t-19 -46.5t-46 -19t-46.5 19t-19.5 46.5zM798 2zM732 2.5q0 27.5 19.5 46.5t46.5 19t46 -19t19 -46.5t-19 -46.5t-46 -19t-46.5 19t-19.5 46.5z" />
    <glyph glyph-name="shouye" unicode="&#xe613;" 
d="M958 468l-80 66v0l-354 293v0q0 1 -1 1v0.5v0.5h-1l-0.5 0.5l-0.5 0.5h-1h-0.5h-0.5v1v0h-1.5h-0.5v0q-1 0 -1 1h-0.5h-0.5h-1h-1h-1h-1h-0.5h-0.5h-1h-1q0 -1 -1 -1h-1h-1v-0.5v-0.5h-1h-1l-0.5 -0.5l-0.5 -0.5h-1v-0.5v-0.5q-1 0 -1 -1v0l-354 -293v0l-80 -66
q-6 -5 -7 -13t4 -15q6 -7 15 -7q7 0 13 5l48 40v-471q0 -30 21 -51t51 -21h602q30 0 51 21t21 51v471l48 -40q6 -5 13 -5q9 0 15 7q5 7 4 15t-7 13zM603 -26h-182v237q0 7 5.5 12.5t13.5 5.5h144q8 0 13.5 -5.5t5.5 -12.5v-237zM846 7q0 -14 -9.5 -23.5t-23.5 -9.5h-172v237
q0 23 -16.5 40t-40.5 17h-144q-24 0 -40.5 -17t-16.5 -40v-237h-172q-14 0 -23.5 9.5t-9.5 23.5v503l334 277l334 -277v-503z" />
    <glyph glyph-name="wode2" unicode="&#xe60f;" 
d="M933 89q-24 62 -65 114q-42 51 -97 86q-39 25 -82 40q12 10 23 21q83 83 83 200t-83 199.5t-200 82.5t-200 -82.5t-83 -199.5t83 -200q11 -11 23 -21q-43 -15 -82 -40q-55 -35 -97 -86q-41 -52 -65 -114q-24 -63 -26 -132q0 -8 5.5 -14t14.5 -6h854q9 0 14.5 6t5.5 14
q-2 69 -26 132z" />
    <glyph glyph-name="faxian2" unicode="&#xe610;" 
d="M927 559q-30 72 -82 129q5 -6 5 -14t-6 -14l-210 -191l-57 -155l-202 -54l74 194l158 43l210 192q6 5 14.5 5t13.5 -6q-7 7 -14 15q-63 62 -144 96q-83 36 -175 36t-175 -36q-81 -34 -143.5 -96.5t-96.5 -143.5q-36 -83 -36 -175t36 -175q34 -81 96.5 -143.5t143.5 -96.5
q83 -36 175 -36t175 36q81 34 143.5 96.5t96.5 143.5q36 83 36 175t-36 175z" />
    <glyph glyph-name="gouwuche1" unicode="&#xe611;" 
d="M354 2zM288 2.5q0 27.5 19.5 46.5t46.5 19t46 -19t19 -46.5t-19 -46.5t-46 -19t-46.5 19t-19.5 46.5zM798 2zM732 2.5q0 27.5 19.5 46.5t46.5 19t46 -19t19 -46.5t-19 -46.5t-46 -19t-46.5 19t-19.5 46.5zM950 68q-5 53 -63 73q-26 8 -52 8h-495q-28 14 -30 51v2l-6 39
q5 -1 10 -1h509q30 0 50.5 22t21.5 52l55 377v3q0 33 -23.5 57t-57.5 24h-400h-86h-87h-80q-25 28 -74 32q-31 2 -59 -4q-8 -2 -12 -8.5t-2.5 -14.5t8.5 -12.5t15 -2.5t23 3.5t42.5 -4.5t36.5 -25l77 -542q0 -6 2 -14.5t7.5 -23t18 -27.5t30.5 -20q3 -2 7 -2h499h1
q21 0 40 -6q33 -12 36 -40q0 -7 5.5 -12.5t13.5 -5.5q1 0 2 1q8 0 13 6.5t4 14.5z" />
    <glyph glyph-name="shouye1" unicode="&#xe614;" 
d="M958 468l-80 66v0l-354 293v0q0 1 -1 1v0.5v0.5h-1l-0.5 0.5l-0.5 0.5h-1h-0.5h-0.5v1v0h-1.5h-0.5v0q-1 0 -1 1h-0.5h-0.5h-1h-1h-1h-1h-0.5h-0.5h-1h-1q0 -1 -1 -1h-1h-1v-0.5v-0.5h-1h-1l-0.5 -0.5l-0.5 -0.5h-1v-0.5v-0.5q-1 0 -1 -1v0l-354 -293v0l-80 -66
q-6 -5 -7 -13t4 -15q6 -7 15 -7q7 0 13 5l48 40v-471q0 -30 21 -51t51 -21h191h220h191q30 0 51 21t21 51v471l48 -40q6 -5 13 -5q9 0 15 7q5 7 4 15t-7 13zM603 -26h-182v237q0 7 5.5 12.5t13.5 5.5h144q8 0 13.5 -5.5t5.5 -12.5v-237z" />
    <glyph glyph-name="shoucang" unicode="&#xe615;" 
d="M778 -44q-5 0 -9 2l-257 119l-257 -119q-11 -5 -20 1.5t-8 18.5l34 281l-193 208q-8 9 -4.5 19.5t14.5 13.5l279 54l138 248q6 10 17 10t17 -10l138 -248l279 -54q11 -3 14.5 -13.5t-4.5 -19.5l-193 -208l34 -281q1 -12 -8 -19q-5 -3 -11 -3zM120 468l176 -189
q6 -6 5 -15l-31 -256l234 108q8 4 16 0l234 -108l-31 256q-1 9 5 15l176 189l-253 50q-9 2 -14 9l-125 226l-125 -226q-5 -7 -14 -9z" />
    <glyph glyph-name="dianpu" unicode="&#xe616;" 
d="M854 329q-8 0 -14 -5.5t-6 -14.5v-290q0 -18 -12.5 -30.5t-30.5 -12.5h-558q-18 0 -30.5 12.5t-12.5 30.5v290q0 9 -6 14.5t-14 5.5t-13.5 -5.5t-5.5 -14.5v-290q0 -34 24 -58t58 -24h558q34 0 58 24t24 58v290q0 9 -5.5 14.5t-13.5 5.5zM958 506v0v1v0.5v0.5v0v0
q-1 1 -1 2v0q0 1 -1 2v0l-134 309q-5 12 -18 12h-584q-13 0 -18 -12l-134 -309v0q-1 -1 -1 -2v0v-2h-1v0v-0.5v-0.5v-1v0v-2v0q0 -58 37 -98.5t89 -40.5q33 0 61.5 17.5t45.5 47.5q17 -30 45 -47.5t61 -17.5t61.5 17.5t45.5 47.5q17 -30 45.5 -47.5t61.5 -17.5t61 17.5
t45 47.5q17 -30 45.5 -47.5t61.5 -17.5q52 0 89 40.5t37 98.5v0v2zM832 403q-36 0 -61.5 29.5t-25.5 71.5q0 8 -6 13.5t-14 5.5t-13.5 -5.5t-5.5 -13.5q0 -42 -25.5 -71.5t-61.5 -29.5t-62 29.5t-26 71.5v0q0 8 -5.5 13.5t-13.5 5.5v0v0q-8 0 -13.5 -5.5t-5.5 -13.5v0
q0 -42 -26 -71.5t-62 -29.5t-61.5 29.5t-25.5 71.5v2q-1 7 -6.5 12t-13 5t-13 -5t-6.5 -12v-2q0 -42 -25.5 -71.5t-61.5 -29.5q-35 0 -60.5 28.5t-26.5 68.5l128 294h558l128 -294q-1 -40 -26.5 -68.5t-60.5 -28.5z" />
    <glyph glyph-name="gouwuche11" unicode="&#xe617;" 
d="M387.5 126q-33.5 0 -57.5 -24t-24 -57.5t24 -57.5t57.5 -24t57.5 24t24 57.5t-24 57.5t-57.5 24zM387.5 1q-17.5 0 -30 13t-12.5 30.5t12.5 30t30 12.5t30 -12.5t12.5 -30t-12.5 -30.5t-30 -13zM774 126q-34 0 -58 -24t-24 -57.5t24 -57.5t58 -24t58 24t24 57.5t-24 57.5
t-58 24zM774.5 1q-17.5 0 -30.5 13t-13 30.5t13 30t30.5 12.5t30 -12.5t12.5 -30t-12.5 -30.5t-30 -13zM892 608h-457h-110h-9h-83l-23 184q-2 16 -18 17l-108 7q-8 0 -14 -5t-6.5 -13.5t5 -14.5t13.5 -6l91 -6l46 -358v-2l22 -172q1 -25 19.5 -42.5t43.5 -17.5h554
q26 0 44 17.5t19 42.5l39 304v2q0 26 -20 44.5t-48 18.5zM882 243v-3q0 -9 -7 -15.5t-17 -6.5h-554q-10 0 -17 6.5t-7 15.5v3l-35 274v1l-7 51h78h9h110h457q12 0 20.5 -6.5t8.5 -16.5z" />
    <glyph glyph-name="liebiao-copy" unicode="&#xe61b;" 
d="M345 786h-157q-49 0 -83.5 -34.5t-34.5 -83.5v-137q0 -49 34.5 -83.5t83.5 -34.5h157q49 0 83.5 34.5t34.5 83.5v137q0 49 -34.5 83.5t-83.5 34.5v0zM404 511q0 -16 -11.5 -27.5t-27.5 -11.5h-197q-16 0 -27.5 11.5t-11.5 27.5v177q0 16 11.5 27.5t27.5 11.5h197
q16 0 27.5 -11.5t11.5 -27.5v-177zM345 354h-157q-49 0 -83.5 -34.5t-34.5 -83.5v-137q0 -49 34.5 -83.5t83.5 -34.5h157q49 0 83.5 34.5t34.5 83.5v137q0 49 -34.5 83.5t-83.5 34.5v0zM404 79q0 -16 -11.5 -27.5t-27.5 -11.5h-197q-16 0 -27.5 11.5t-11.5 27.5v177
q0 16 11.5 27.5t27.5 11.5h197q16 0 27.5 -11.5t11.5 -27.5v-177zM934 668h-373q-8 0 -14 6t-6 14v20q0 8 6 13.5t14 5.5h373q8 0 14 -5.5t6 -13.5v-20q0 -8 -6 -14t-14 -6v0v0zM934 472h-373q-8 0 -14 5.5t-6 14.5v19q0 8 6 14t14 6h373q8 0 14 -6t6 -14v-19q0 -9 -6 -14.5
t-14 -5.5v0v0zM934 256h-373q-8 0 -14 5.5t-6 14.5v19q0 8 6 14t14 6h373q8 0 14 -6t6 -14v-19q0 -9 -6 -14.5t-14 -5.5v0v0zM934 60h-373q-8 0 -14 5.5t-6 13.5v20q0 8 6 13.5t14 5.5h373q8 0 14 -5.5t6 -13.5v-20q0 -8 -6 -13.5t-14 -5.5v0v0z" />
    <glyph glyph-name="gouwuche2" unicode="&#xe61e;" 
d="M900 663h-689l-27 152q-2 16 -19 16h-90q-8 0 -13.5 -5.5t-5.5 -13.5t5.5 -13.5t13.5 -5.5h74l43 -249l52 -298q0 -24 15.5 -40.5t36.5 -16.5h548q21 0 36.5 16.5t15.5 40.5l63 357v3q0 23 -17 40t-42 17zM858 251v-3q0 -8 -4 -14t-10 -6h-548q-7 0 -11 9v4l-54 309
l-11 59v2l-2 13h682q8 0 14 -5t6 -12zM386 132q-40 0 -68 -28t-28 -67.5t28 -68t68 -28.5t68 28.5t28 68t-28 67.5t-68 28zM386 -21q-24 0 -40.5 17t-16.5 40.5t16.5 40.5t40.5 17t40.5 -17t16.5 -40.5t-16.5 -40.5t-40.5 -17zM755.5 132q-39.5 0 -68 -28t-28.5 -67.5
t28.5 -68t68 -28.5t68 28.5t28.5 68t-28.5 67.5t-68 28zM755.5 -21q-23.5 0 -40.5 17t-17 40.5t17 40.5t40.5 17t40.5 -17t17 -40.5t-17 -40.5t-40.5 -17z" />
    <glyph glyph-name="shouye2" unicode="&#xe61f;" 
d="M967 398l-441 438q0 1 -0.5 1h-0.5l-1 1v0v0l-1 1h-1v0l-1 1l-1 0.5l-1 0.5h-0.5h-1t-0.5 1h-0.5h-0.5h-1h-1v0h-1h-0.5h-0.5h-1h-0.5h-0.5h-1h-0.5h-0.5h-1v-0.5t-0.5 -0.5h-1.5v0v0l-1 -1h-0.5h-0.5l-1 -1h-0.5h-0.5l-1 -1v0v0l-1 -1h-0.5t-0.5 -1l-441 -438
q-6 -6 -6 -14t5.5 -13.5t13.5 -5.5t14 5l428 425l428 -425q6 -5 14 -5t13.5 5.5t5.5 13.5t-6 14zM843 427q-8 0 -13.5 -5.5t-5.5 -13.5v-395q0 -16 -11 -26.5t-26 -10.5h-139v199q0 31 -22 53.5t-54 22.5h-120q-32 0 -54 -22.5t-22 -53.5v-199h-139q-15 0 -26 10.5t-11 26.5
v395q0 8 -5.5 13.5t-13.5 5.5t-13.5 -5.5t-5.5 -13.5v-395q0 -32 22 -54t53 -22h158q8 0 14 5.5t6 13.5v219q0 15 10.5 26t26.5 11h120q16 0 26.5 -11t10.5 -26v-219q0 -8 6 -13.5t14 -5.5h158q31 0 53 22t22 54v395q0 8 -5.5 13.5t-13.5 5.5z" />
    <glyph glyph-name="xiaoxi" unicode="&#xe620;" 
d="M883 827h-742q-32 0 -54 -22t-22 -53v-565q0 -31 22 -53t54 -22h53l47 -159q3 -10 13 -13q3 -1 6 -1q7 0 13 5l179 168h431q32 0 54 22t22 53v565q0 31 -22 53t-54 22zM920 187q0 -15 -11 -25.5t-26 -10.5h-438v0q-8 0 -13 -5l-163 -152l-42 143q-4 14 -19 14v0h-67
q-15 0 -26 10.5t-11 25.5v565q0 15 11 26t26 11h742q15 0 26 -11t11 -26v-565zM512 470zM471 470q0 17 12 29t29 12t29 -12t12 -29t-12 -29.5t-29 -12.5t-29 12.5t-12 29.5zM280 470zM238 470q0 17 12.5 29t29.5 12t29 -12t12 -29t-12 -29.5t-29 -12.5t-29.5 12.5
t-12.5 29.5zM744 470zM703 470q0 17 12 29t29 12t29.5 -12t12.5 -29t-12.5 -29.5t-29.5 -12.5t-29 12.5t-12 29.5z" />
    <glyph glyph-name="sousuo1" unicode="&#xe621;" 
d="M953 -22l-238 228q42 47 67 106q30 69 30 145t-30 146q-28 67 -80 118.5t-119 79.5q-69 30 -145 30t-146 -30q-67 -28 -118.5 -79.5t-79.5 -118.5q-30 -70 -30 -146t30 -145q28 -67 79.5 -119t118.5 -80q70 -30 146 -30t145 30q53 22 96 59l240 -229q7 -7 17 -7t17 7
q7 8 7 18t-7 17zM438 122q-91 0 -168 45t-122 122t-45 168t45 168t122 122t168 45t168 -45t122 -122t45 -168t-45 -168t-122 -122t-168 -45z" />
    <glyph glyph-name="wode3" unicode="&#xe622;" 
d="M957 -5q-4 121 -69 222q-56 88 -145 142q61 79 61 179q0 121 -85.5 206.5t-206.5 85.5t-206.5 -85.5t-85.5 -206.5q0 -100 61 -179q-89 -54 -145 -142q-65 -101 -69 -222v-4q2 -24 19.5 -41t41.5 -17h384v0v0h384q24 0 42 17t19 41v4zM512 790q104 0 178 -73.5t74 -178
t-74 -178.5t-178 -74t-178 74t-74 178.5t74 178t178 73.5zM896 -28h-384v0v0h-384q-8 0 -14 5.5t-8 13.5q1 1 1 3q4 104 58 193.5t143 141.5q85 -83 204 -83t204 83q89 -52 143.5 -141.5t57.5 -193.5q1 -2 1 -3q-2 -8 -8 -13.5t-14 -5.5z" />
    <glyph glyph-name="dingzuo" unicode="&#xe62b;" 
d="M812 497q-32 11 -49.5 28t-21.5 32t-13.5 30.5t-28.5 23.5q-42 17 -89 26.5t-72 10.5l-26 1q-10 0 -28 -1t-67.5 -10.5t-91.5 -26.5q-19 -8 -28.5 -23.5t-13.5 -30.5t-21.5 -32t-49.5 -28q-69 -23 -109.5 2t-39.5 73q0 32 19.5 62.5t55 51.5t88.5 36.5t98 23t93.5 11.5
t67 4.5t27.5 0.5q10 0 27.5 -0.5t67 -4.5t94 -11.5t97.5 -23t88.5 -36t54.5 -51.5t20 -62q1 -49 -39 -74t-110 -2v0v0zM384 524h64v-65h128v65h65v-65l257 -226v-151q0 -31 -27 -53.5t-59 -22.5h-600q-32 0 -58.5 22.5t-26.5 53.5v151l257 226v65v0v0zM513 102q53 0 90.5 38
t37.5 91.5t-37.5 91.5t-90.5 38t-91 -38t-38 -91.5t38 -91.5t91 -38v0v0z" />
    <glyph glyph-name="miaozhunjing2" unicode="&#xe691;" 
d="M512 -63q-91 0 -174 35.5t-142.5 95t-95 142.5t-35.5 174t35.5 174t95 142.5t142.5 95t174 35.5t174 -35.5t142.5 -95t95 -142.5t35.5 -174t-35.5 -174t-95 -142.5t-142.5 -95t-174 -35.5v0zM531 791v-124q0 -8 -5.5 -13.5t-13.5 -5.5t-13.5 5.5t-5.5 13.5v124
q-104 -5 -191 -57.5t-139.5 -139.5t-57.5 -191h157q9 0 14.5 -5.5t5.5 -13.5t-5.5 -13.5t-14.5 -5.5h-157q5 -104 57.5 -191t139.5 -139.5t191 -57.5v135q0 8 5.5 13.5t13.5 5.5t13.5 -5.5t5.5 -13.5v-135q104 5 191 57.5t139.5 139.5t57.5 191h-115q-8 0 -14 5.5t-6 13.5
t6 13.5t14 5.5h115q-5 104 -57.5 191t-139.5 139.5t-191 57.5v0z" />
    <glyph glyph-name="arrowtop" unicode="&#xe690;" 
d="M460 550l-394 -322l39 -47l403 330l411 -333l39 47l-450 365z" />
    <glyph glyph-name="gaitianzaishuo" unicode="&#xe624;" 
d="M293 384q0 -46 -32.5 -78.5t-78.5 -32.5t-79 32.5t-33 78.5t33 78.5t79 32.5t78.5 -32.5t32.5 -78.5v0zM512 495q-46 0 -78.5 -32.5t-32.5 -78.5t32.5 -78.5t78.5 -32.5t78.5 32.5t32.5 78.5t-32.5 78.5t-78.5 32.5v0zM842 495q-46 0 -78.5 -32.5t-32.5 -78.5t32.5 -78.5
t78.5 -32.5t79 32.5t33 78.5t-33 78.5t-79 32.5v0z" />
    <glyph glyph-name="ktv" unicode="&#xe628;" 
d="M911 722q-36 51 -92 80t-119 29q-82 0 -148 -47q-88 -61 -106 -166q-4 -20 -4 -41l-278 -221q-24 -17 -31 -45q-8 -31 9 -55l70 -99q17 -25 48 -28h7q25 0 46 15l303 186q41 -14 84 -14q81 0 148 47q87 61 105.5 166t-42.5 193zM286 187q-1 0 -1 -1q-10 -7 -20 -6
q-8 1 -12 6l-69 99q-4 5 -2 13q3 10 12 17q1 0 1 1l253 201q11 -50 41 -92q29 -41 72 -69zM903.5 538q-14.5 -84 -84.5 -133q-3 -3 -7 -5q-55 4 -109.5 42t-91.5 100q-8 13 -21 5t-5 -21q40 -68 101 -110q38 -27 79 -38q-32 -11 -65 -11q-51 0 -95.5 23.5t-73.5 64.5
q-40 58 -37.5 125.5t43.5 120.5q-2 -29 4 -61q2 -13 15 -13h3q6 1 9.5 6.5t2.5 11.5q-9 50 4 93q3 3 6 5q54 37 119 37q50 0 95 -23t74 -65q49 -70 34.5 -154zM572 586zM557 586q0 6 4 10.5t10.5 4.5t11 -4.5t4.5 -10.5t-4.5 -10.5t-11 -4.5t-10.5 4.5t-4 10.5zM478 173
q-32 6 -69 -7q-38 -13 -74 -46q-32 -29 -68.5 -43.5t-67.5 -12.5q-33 3 -50 25q-24 31 -1 56q8 8 7 18.5t-8.5 18t-18 7t-18.5 -8.5q-19 -21 -23 -47q-7 -39 22 -76q31 -39 86 -44h13q84 0 161 69q55 49 99 40q21 -4 29 -21q13 -28 2 -55q-16 -38 -75 -61
q-10 -4 -14.5 -13.5t-0.5 -19.5q7 -17 24 -17q5 0 9 2q81 31 105 90q19 48 -3 95q-19 41 -66 51z" />
    <glyph glyph-name="jiaoyu" unicode="&#xe629;" 
d="M850 119v312l96 62q11 8 11 21.5t-11 21.5l-422 275q-14 9 -28 0l-211 -137l-211 -138q-16 -10 -10 -29q2 -9 10 -14l96 -62v-314v-3v-6v-2q6 -70 107 -116q97 -44 233 -44t233 44q52 24 79.5 55.5t27.5 68.5v4v1zM510 759l375 -244l-375 -245l-375 245q244 158 375 244z
M722 37q-87 -39 -212 -39t-212 39q-73 33 -77 73v287l275 -179q6 -4 14 -4t14 4l275 179v-278v-4v-1q0 -42 -77 -77zM935.5 440q-10.5 0 -18 -7.5t-7.5 -18.5v-338q0 -11 7.5 -18.5t18 -7.5t18 7.5t7.5 18.5v338q0 11 -7.5 18.5t-18 7.5zM396 434q-103 42 -105 81
q0 16 14.5 30t28.5 21t7 21t-21 7q-3 -2 -7.5 -4.5t-14.5 -10.5t-18 -16.5t-14 -21.5t-5 -27q1 -29 30 -55q30 -28 93 -53q3 -1 6 -1q10 0 14 9q3 6 0.5 12t-8.5 8z" />
    <glyph glyph-name="qinzi" unicode="&#xe62a;" 
d="M793 500q23 30 23 68v49q0 49 -36.5 84t-87.5 35h-87v8q0 37 -27.5 63t-65.5 26t-65.5 -26t-27.5 -63v-8h-87q-51 0 -87.5 -35t-36.5 -84v-49q0 -38 23 -68q-36 -3 -60.5 -30t-24.5 -64v-374q0 -39 27 -66.5t65 -27.5h548q38 0 65 27.5t27 66.5v374q0 37 -24.5 64
t-60.5 30zM260 617q0 28 21 48t51 20h113q11 0 18 7.5t7 17.5v34q0 16 12.5 27t29.5 11t29.5 -11t12.5 -27v-34q0 -10 7 -17.5t18 -7.5h113q30 0 51 -20t21 -48v-49q0 -28 -21 -48t-51 -20h-360q-30 0 -51 20t-21 48v49zM826 32q0 -18 -11.5 -30.5t-28.5 -12.5h-548
q-17 0 -28.5 12.5t-11.5 30.5v374q0 18 11.5 30.5t28.5 12.5h94h360h94q17 0 28.5 -12.5t11.5 -30.5v-374zM487 234h-210q-6 0 -10.5 -4.5t-4.5 -10.5t4.5 -10.5t10.5 -4.5h210q7 0 11.5 4.5t4.5 10.5t-4.5 10.5t-11.5 4.5zM277 317h131q6 0 10.5 4.5t4.5 11t-4.5 11
t-10.5 4.5h-131q-6 0 -10.5 -4.5t-4.5 -11t4.5 -11t10.5 -4.5zM408 121h-131q-6 0 -10.5 -4.5t-4.5 -11t4.5 -11t10.5 -4.5h131q6 0 10.5 4.5t4.5 11t-4.5 11t-10.5 4.5z" />
    <glyph glyph-name="shuma" unicode="&#xe62c;" 
d="M819 689h-84l-63 123q-7 14 -23 14h-274q-16 0 -23 -14l-63 -123h-84q-58 0 -98.5 -41t-40.5 -98v-373q0 -58 40.5 -99t98.5 -41q11 0 18.5 7.5t7.5 18.5t-7.5 18.5t-18.5 7.5q-36 0 -62 25.5t-26 62.5v373q0 36 26 62t62 26h614q36 0 62 -26t26 -62v-373
q0 -37 -26 -62.5t-62 -25.5q-11 0 -18.5 -7.5t-7.5 -18.5t7.5 -18.5t18.5 -7.5q58 0 98.5 41t40.5 99v373q0 57 -40.5 98t-98.5 41zM390 775h244l44 -86h-332zM729 466q-90 90 -217 90t-217 -90t-90 -217t90 -217t217 -90t217 90t90 217t-90 217zM512 -7q-106 0 -181 75
t-75 181t75 181t181 75t181 -75t75 -181t-75 -181t-181 -75zM512 463q-52 0 -99 -24q-44 -23 -74 -64q-9 -12 3 -21q4 -3 9 -3q8 0 13 6q26 36 65 56t83 20q6 0 10.5 4.5t4.5 10.5t-4.5 10.5t-10.5 4.5zM322 312zM308 312q0 6 4 10t10 4t10.5 -4t4.5 -10t-4.5 -10.5
t-10.5 -4.5t-10 4.5t-4 10.5z" />
    <glyph glyph-name="yundong" unicode="&#xe643;" 
d="M348 604q3 0 6 2q65 29 136.5 30t137.5 -26q6 -3 11.5 -0.5t8 8.5t0.5 11.5t-8 8.5q-72 30 -150 29t-149 -33q-5 -3 -7.5 -9t0.5 -12q4 -9 14 -9zM918 356q-20 20 -46 31q3 80 -26 154t-86 131q-54 55 -126 84q-69 28 -143.5 28t-143.5 -28q-71 -29 -126 -84t-84 -126
q-28 -69 -28 -143.5t28 -143.5q11 -27 26 -51l-76 -76q-28 -28 -28 -67t28 -66.5t67 -27.5t66 28l76 75q25 -14 51 -25q69 -28 143.5 -28t143.5 28q62 25 111 69q32 -16 68 -16q61 0 104.5 43.5t43.5 105t-43 105.5zM257 636q97 97 233.5 97t233.5 -97q47 -47 72.5 -108.5
t24.5 -128.5h-8q-62 0 -105.5 -43.5t-43.5 -104.5q0 -59 39 -101q-25 -22 -55 -38l-448 448q23 42 57 76zM184 35q-12 -13 -30 -13t-30.5 12.5t-12.5 30.5t12 31l69 69q14 -17 29 -32.5t32 -28.5zM257 169q-68 68 -88.5 161.5t9.5 178.5l420 -419q-86 -31 -179.5 -10
t-161.5 89zM881.5 181.5q-28.5 -28.5 -69 -28.5t-69 28.5t-28.5 69t28.5 69t69 28.5t69 -28.5t28.5 -69t-28.5 -69zM679 596zM665 596.5q0 5.5 4 9.5t10 4t10 -4t4 -9.5t-4 -9.5t-10 -4t-10 4t-4 9.5z" />
    <glyph glyph-name="jiudian" unicode="&#xe649;" 
d="M939 -1h-37v379q0 41 -28 69.5t-68 28.5h-101v246q0 41 -28 69.5t-67 28.5h-392q-40 0 -68 -28.5t-28 -69.5v-723h-37q-11 0 -18.5 -7.5t-7.5 -18t7.5 -18t18.5 -7.5h854q11 0 18.5 7.5t7.5 18t-7.5 18t-18.5 7.5zM806 425q19 0 31.5 -13.5t12.5 -33.5v-379h-145v426h101
zM174 722q0 19 12.5 33t31.5 14h392q18 0 31 -14t13 -33v-723h-480v723zM773 381h18q8 0 8 -10v-67q0 -6 4.5 -10.5t11 -4.5t11 4.5t4.5 10.5v67q0 17 -11.5 29t-27.5 12h-18q-6 0 -10.5 -4.5t-4.5 -11t4.5 -11t10.5 -4.5zM441 622h-54q-10 0 -17.5 -7.5t-7.5 -17.5v-52
q0 -11 7.5 -18t17.5 -7h54q10 0 17.5 7t7.5 18v52q0 10 -7.5 17.5t-17.5 7.5zM435 550h-42v41h42v-41zM312 622h-53q-11 0 -18 -7.5t-7 -17.5v-52q0 -11 7 -18t18 -7h53q11 0 18 7t7 18v52q0 10 -7 17.5t-18 7.5zM307 550h-43v41h43v-41zM569 622h-54q-10 0 -17.5 -7.5
t-7.5 -17.5v-52q0 -11 7.5 -18t17.5 -7h54q10 0 17.5 7t7.5 18v52q0 10 -7.5 17.5t-17.5 7.5zM563 550h-42v41h42v-41zM441 425h-54q-10 0 -17.5 -7.5t-7.5 -17.5v-52q0 -11 7.5 -18t17.5 -7h54q10 0 17.5 7t7.5 18v52q0 10 -7.5 17.5t-17.5 7.5zM435 353h-42v41h42v-41z
M312 425h-53q-11 0 -18 -7.5t-7 -17.5v-52q0 -11 7 -18t18 -7h53q11 0 18 7t7 18v52q0 10 -7 17.5t-18 7.5zM307 353h-43v41h43v-41zM569 425h-54q-10 0 -17.5 -7.5t-7.5 -17.5v-52q0 -11 7.5 -18t17.5 -7h54q10 0 17.5 7t7.5 18v52q0 10 -7.5 17.5t-17.5 7.5zM563 353h-42
v41h42v-41zM441 228h-54q-10 0 -17.5 -7.5t-7.5 -17.5v-53q0 -10 7.5 -17.5t17.5 -7.5h54q10 0 17.5 7.5t7.5 17.5v53q0 10 -7.5 17.5t-17.5 7.5zM435 156h-42v41h42v-41zM312 228h-53q-11 0 -18 -7.5t-7 -17.5v-53q0 -10 7 -17.5t18 -7.5h53q11 0 18 7.5t7 17.5v53
q0 10 -7 17.5t-18 7.5zM307 156h-43v41h43v-41zM569 228h-54q-10 0 -17.5 -7.5t-7.5 -17.5v-53q0 -10 7.5 -17.5t17.5 -7.5h54q10 0 17.5 7.5t7.5 17.5v53q0 10 -7.5 17.5t-17.5 7.5zM563 156h-42v41h42v-41zM815 258zM799 258q0 6 4.5 11t11 5t11 -5t4.5 -11t-4.5 -10.5
t-11 -4.5t-11 4.5t-4.5 10.5z" />
    <glyph glyph-name="xiuxianyule" unicode="&#xe64a;" 
d="M824 611h-80l-9 55q-1 23 -17 39t-38 16h-2l33 80q3 6 0.5 11.5t-8.5 8t-12 0t-8 -7.5l-38 -92h-301q-22 0 -38 -16t-17 -39l-9 -55h-80q-11 0 -18.5 -7.5t-7.5 -18t7.5 -18t18.5 -7.5h68l38 -553q0 -28 17.5 -47.5t42.5 -19.5h293q25 0 42.5 19.5t17.5 47.5l37 553h68
q11 0 18.5 7.5t7.5 18t-7.5 18t-18.5 7.5zM680 670q4 0 4 -7v-4l8 -48h-60l25 59h23zM340 659v4q0 7 4 7h279l-24 -59h-267zM320 560h257l-222 -529zM668 9v-1q0 -7 -3 -12t-6 -5h-287l238 569h94zM644 203.5q-6 0.5 -11 -3.5t-6 -11q-6 -78 -22 -118q-6 -13 -24.5 -19
t-32 -4t-16.5 1q-6 1 -11 -3t-6 -10t2.5 -11.5t10.5 -5.5q8 -2 20 -2q67 0 85 43q18 44 25 127q1 6 -3.5 11t-10.5 5.5zM647 245zM631 245.5q0 6.5 4.5 10.5t11 4t11 -4t4.5 -10.5t-4.5 -11t-11 -4.5t-11 4.5t-4.5 11z" />
    <glyph glyph-name="liren" unicode="&#xe64b;" 
d="M393 -34h-1q-10 0 -17.5 8t-6.5 18q2 74 -5.5 123.5t-16 65t-17.5 22.5q-9 6 -17 4l-1 -1q-27 -9 -61 -14q-72 -10 -115 17q-47 29 -42 122q1 27 6 57q-25 15 -41 42q-8 11 -2 23.5t20 14.5q32 5 56 32q6 7 11 16q-8 23 -11 47q-9 70 32 117q8 11 19.5 23t44 31t69.5 26
q116 21 255 -70q49 52 108 57q69 6 133 -56q85 -83 86 -201q0 -58 -16 -101q-1 -1 -1 -2q-6 -12 -10.5 -28.5t-6.5 -39.5t9 -36q18 -30 83 -29v0q10 0 17.5 -7t8.5 -17q2 -41 -36.5 -83.5t-92.5 -58.5q-48 -14 -90 1q-48 17 -79 69q-21 36 -29 66t-3.5 56t11 41t20.5 41
q13 23 19 36.5t11.5 39t4.5 53.5q-4 52 -26 63t-64 -10q9 -35 15 -67q19 -99 1 -142q-24 -55 -91 -84q7 -56 72 -102q9 -6 10.5 -16.5t-4.5 -19.5t-16.5 -10.5t-19.5 4.5q-29 21 -50 46t-28.5 44.5t-12.5 37.5t-3 26.5t1 11.5q2 17 19 21q2 1 6 2t15 6.5t20 12t19 17
t16 23.5q12 29 -4 112q-8 45 -20 81q-5 18 10 29q18 12 42 21q52 20 89 2q49 -24 55 -106q2 -34 -5 -66.5t-14.5 -48.5t-21.5 -42q-13 -22 -18 -34t-8 -31t4 -40t22 -48q40 -68 110 -47q29 9 52 28t34 39q-67 8 -95 51q-25 41 -12 103q6 27 17 50q13 37 12 84q-1 95 -70 162
q-46 46 -92 42q-23 -2 -45.5 -17t-30.5 -23.5t-12 -14.5q-6 -8 -16.5 -10t-18.5 4q-132 93 -234 75q-43 -8 -77 -34q-17 -14 -26 -26q-1 -2 -2 -3q-12 -13 -17 -31t-4.5 -32t4 -29t5.5 -20.5t4 -8.5q5 -10 0 -21q-2 -6 -7 -15t-22.5 -28.5t-39.5 -30.5q5 -3 10 -4
q10 -3 15 -12t2 -19q-8 -33 -9 -69q-3 -61 19 -75q16 -10 44.5 -11t49.5 3.5t37 9.5q32 13 62 -8q33 -22 48 -78q18 -65 15 -177q-1 -11 -8 -18t-18 -7zM257 592q-3 0 -5 2q-6 2 -8.5 8t-0.5 12q9 19 30 35q42 29 107 13q6 -2 9.5 -7.5t2 -11.5t-7 -9t-11.5 -2
q-23 7 -41 4.5t-29 -6t-18.5 -12t-10 -11.5t-2.5 -5q-4 -10 -15 -10zM431 635zM414 635q0 7 5 12t12 5t12 -5t5 -12t-5 -12t-12 -5t-12 5t-5 12z" />
    <glyph glyph-name="shenghuobaihuo" unicode="&#xe64e;" 
d="M816 654h-21q-10 0 -17.5 -7.5t-7.5 -18t7.5 -18t17.5 -7.5h21q30 0 51.5 -21t21.5 -50l-5 -59h-151v13q0 128 -62 220q-30 45 -69 70q-43 26 -90 26t-90 -26q-39 -25 -69 -70q-62 -92 -62 -220v-13h-152l-4 59q0 29 21.5 50t51.5 21h21q10 0 17.5 7.5t7.5 18t-7.5 18
t-17.5 7.5h-21q-52 0 -88 -36t-36 -87v-2l33 -420q1 -52 35 -89.5t81 -37.5h557q48 0 82 37.5t34 89.5l34 420v2q0 51 -36 87t-88 36zM342 486q0 113 53 191q50 74 117 74t117 -74q53 -78 53 -191q0 -6 -1 -13h-338q-1 7 -1 13zM855 112v-2q0 -31 -19 -53.5t-46 -22.5h-557
q-27 0 -45.5 22.5t-18.5 53.5q0 1 -1 2l-24 310h562v0v0h174zM737 333h-450q-6 0 -10.5 -4.5t-4.5 -10.5t4.5 -10.5t10.5 -4.5h450q6 0 10.5 4.5t4.5 10.5t-4.5 10.5t-10.5 4.5zM737 182h-450q-6 0 -10.5 -4.5t-4.5 -11t4.5 -11t10.5 -4.5h450q6 0 10.5 4.5t4.5 11t-4.5 11
t-10.5 4.5zM574 654h-124q-11 0 -18.5 -7.5t-7.5 -18t7.5 -18t18.5 -7.5h124q11 0 18.5 7.5t7.5 18t-7.5 18t-18.5 7.5z" />
    <glyph glyph-name="shengxianshuiguo" unicode="&#xe642;" 
d="M874 432q-27 27 -59 46q86 40 114 108q9 22 11.5 46.5t0 41.5t-7.5 34.5t-8 24t-5 10.5q-8 14 -24 13q-105 -6 -150 -74q-32 -47 -31 -117q-94 109 -171 179q-1 1 -3 2q-68 62 -115 84q-10 4 -20 0.5t-14.5 -13t-1 -19.5t13.5 -14q36 -17 87 -62l-178 -237q-27 8 -55 8
q-81 0 -138.5 -57.5t-57.5 -138.5t57.5 -138.5t138.5 -57.5q53 0 99 27q17 10 32 23q20 -74 75 -128q85 -85 205 -85t205 85t85 205t-85 204zM788 654q28 41 93 49q19 -53 1 -98q-24 -57 -110 -90q-4 18 -5 34q-5 66 21 105zM529 688q72 -69 160 -171h-20q-120 0 -205 -85
q-19 -19 -34 -41q-18 33 -47 57q-10 9 -22 16zM258 152q-60 0 -102.5 42.5t-42.5 102.5t42.5 102.5t102.5 42.5q50 0 89.5 -31t51.5 -79q-20 -50 -20 -104v-10q-20 -31 -52 -48.5t-69 -17.5zM669 -11q-99 0 -169 70t-70 168.5t70 168.5t169 70t168.5 -70t69.5 -168.5
t-69.5 -168.5t-168.5 -70zM669 74q-64 0 -109 45t-45 109q0 6 -4.5 10.5t-11 4.5t-11 -4.5t-4.5 -10.5q0 -77 54.5 -131t130.5 -54q6 0 10.5 4.5t4.5 11t-4.5 11t-10.5 4.5zM732 68zM718 68q0 6 4 10.5t10 4.5t10.5 -4.5t4.5 -10.5t-4.5 -10.5t-10.5 -4.5t-10 4.5t-4 10.5z
" />
    <glyph glyph-name="shenghuofuwu" unicode="&#xe64d;" 
d="M953 371l-423 429v0v0v1h-1l-0.5 0.5l-0.5 0.5l-0.5 0.5l-0.5 0.5l-0.5 0.5l-0.5 0.5h-0.5h-0.5l-0.5 0.5l-0.5 0.5h-0.5t-0.5 0.5t-0.5 0.5h-1h-0.5h-0.5t-1 0.5l-0.5 0.5h-0.5h-0.5h-0.5h-0.5l-0.5 0.5t-1 0.5h-0.5h-0.5h-1h-0.5v0h-1h-1v0h-0.5h-1h-0.5h-1v-1h-1h-0.5
h-0.5h-0.5h-0.5l-0.5 -0.5t-1 -0.5h-0.5h-0.5h-1t-0.5 -0.5t-0.5 -0.5h-0.5l-0.5 -0.5l-0.5 -0.5h-0.5t-0.5 -0.5t-0.5 -0.5h-0.5l-0.5 -0.5l-0.5 -0.5l-0.5 -0.5l-0.5 -0.5h-1v-1v0v0l-423 -429v0q-1 0 -1 -0.5t-0.5 -0.5t-0.5 -0.5t-0.5 -0.5t-0.5 -0.5v-0.5v-1h-1v-1v0
l-1 -1v0v-1l-0.5 -0.5l-0.5 -0.5v-0.5v-0.5v-1v0l-1 -1v-1v0v-1v0v-1v-0.5v-0.5l-0.5 -0.5t-0.5 -1.5v0v-1v0v-1v0l1 -1v-4v0v-1h1v-1v0v-1v-1l0.5 -0.5l0.5 -0.5v0q0 -1 1 -1v0v-1v0l1 -1v0l2 -2v-1v0l1 -1v0v0l2 -2v0q1 0 2 -1v0q1 -1 2 -1v0q1 -1 2 -1h1q1 -1 2 -1v0
q1 -1 2 -1v0h3v0h2v0v0v0h83v-214q0 -67 47.5 -114.5t113.5 -47.5h133h92q49 0 83.5 34.5t34.5 82.5v145q0 48 -34.5 82t-83.5 34h-92q-49 0 -83.5 -34t-34.5 -82v-103q0 -11 7.5 -18.5t18 -7.5t18 7.5t7.5 18.5v103q0 27 19.5 46t47.5 19h92q28 0 47.5 -19t19.5 -46v-145
q0 -27 -19.5 -46.5t-47.5 -19.5h-92h-133q-45 0 -77.5 32.5t-32.5 78.5v239q0 11 -7.5 18.5t-18.5 7.5h-47l362 367l362 -367h-47q-11 0 -18.5 -7.5t-7.5 -18.5v-239q0 -29 -14 -54.5t-40 -40.5q-9 -5 -11.5 -15.5t3.5 -19.5q7 -12 22 -12q7 0 13 3q36 22 57 58q21 38 21 81
v214h83q17 0 23.5 15.5t-5.5 27.5z" />
    <glyph glyph-name="ktv1" unicode="&#xe64c;" 
d="M906 719q-35 50 -90 78.5t-116 28.5q-80 0 -145 -46q-86 -60 -104 -163q-4 -21 -4 -42l-280 -223q-23 -16 -29 -43q-8 -28 8 -50l70 -99q16 -23 44 -25q4 -1 7 -1q23 0 43 14l305 188q41 -15 85 -15q80 0 145 46q86 60 104 163t-43 189zM289 183q-1 -1 -2 -1
q-11 -8 -23 -7q-10 1 -15 8l-69 99q-5 7 -3 17q3 12 14 20q1 0 1 1l260 206q10 -53 41 -98q31 -44 78 -72zM908 537.5q-15 -86.5 -87 -137.5q-3 -2 -7 -5q-57 3 -113 42t-94 102q-6 9 -14.5 3.5t-3.5 -13.5q40 -67 100 -109q45 -32 93 -41q-39 -17 -82 -17q-52 0 -98 24
t-75 66q-44 63 -38.5 137t55.5 128q-5 -36 2 -76q2 -9 10 -9h2q10 2 8 12q-9 53 4 97l8 6q55 38 122 38q51 0 97 -23.5t76 -66.5q50 -71 35 -157.5zM571 581zM560 581.5q0 4.5 3 7.5t7.5 3t8 -3t3.5 -7.5t-3.5 -7.5t-8 -3t-7.5 3t-3 7.5zM477 168q-31 6 -66 -7
q-37 -13 -73 -45q-32 -29 -69.5 -44.5t-69.5 -12.5q-35 3 -54 27q-27 34 0 63q5 6 4.5 14.5t-6.5 14t-14.5 5.5t-14.5 -7q-18 -20 -22 -44q-6 -37 21 -72q29 -37 82 -42q41 -3 86.5 14.5t83.5 52.5q58 52 104 42q24 -4 33 -24q14 -30 2 -59q-17 -40 -78 -64
q-8 -3 -11.5 -10.5t-0.5 -15.5q5 -14 19 -14q4 0 7 2q79 30 102 87q18 46 -3 91q-18 39 -62 48z" />
    <glyph glyph-name="qinzi1" unicode="&#xe64f;" 
d="M786 495h-3q27 31 27 73v49q0 47 -34.5 80.5t-83.5 33.5h-92v13q0 35 -26 59.5t-62 24.5t-62 -24.5t-26 -59.5v-13h-92q-49 0 -83.5 -33.5t-34.5 -80.5v-49q0 -42 27 -73h-3q-36 0 -61 -26t-25 -63v-374q0 -37 25 -63t61 -26h548q36 0 61 26t25 63v374q0 37 -25 63
t-61 26zM254 568v49q0 30 23 51.5t55 21.5h113q8 0 14 6t6 14v34q0 18 14 30.5t33 12.5t33 -12.5t14 -30.5v-34q0 -8 6 -14t14 -6h113q32 0 55 -21.5t23 -51.5v-49q0 -31 -23 -52t-55 -21h-360q-32 0 -55 21t-23 52zM832 32q0 -20 -13.5 -34t-32.5 -14h-548q-19 0 -32.5 14
t-13.5 34v374q0 20 13.5 34t32.5 14h94h360h94q19 0 32.5 -14t13.5 -34v-374zM487 229h-210q-4 0 -7 -3t-3 -7t3 -7t7 -3h210q5 0 8 3t3 7t-3 7t-8 3zM277 322h131q4 0 7 3t3 7.5t-3 7.5t-7 3h-131q-4 0 -7 -3t-3 -7.5t3 -7.5t7 -3zM408 116h-131q-4 0 -7 -3t-3 -7.5t3 -7.5
t7 -3h131q4 0 7 3t3 7.5t-3 7.5t-7 3z" />
    <glyph glyph-name="shenghuobaihuo1" unicode="&#xe650;" 
d="M816 649h-21q-8 0 -14 -6t-6 -14.5t6 -14.5t14 -6h21q32 0 55 -22.5t23 -53.5l-5 -64h-162q1 10 1 18q0 127 -61 217q-29 44 -68 68q-41 26 -87 26t-87 -26q-39 -24 -68 -68q-61 -90 -61 -217q0 -8 1 -18h-162l-5 64q0 31 23 53.5t55 22.5h21q8 0 14 6t6 14.5t-6 14.5
t-14 6h-21q-50 0 -84.5 -34.5t-34.5 -83.5v-2l33 -419q1 -51 33.5 -86.5t77.5 -35.5h557q46 0 78.5 35.5t32.5 86.5l34 419v2q0 49 -35 83.5t-84 34.5zM337 486q0 114 54 194q51 76 121 76t121 -76q54 -80 54 -194q0 -9 -1 -18h-348q-1 9 -1 18zM860 112v-2q0 -33 -20.5 -57
t-49.5 -24h-557q-29 0 -49.5 24t-20.5 57v2l-25 315h568v0v0h180zM737 328h-450q-4 0 -7 -3t-3 -7t3 -7t7 -3h450q4 0 7 3t3 7t-3 7t-7 3zM737 176h-450q-4 0 -7 -3t-3 -7t3 -7t7 -3h450q4 0 7 3t3 7t-3 7t-7 3zM574 649h-124q-9 0 -15 -6t-6 -14.5t6 -14.5t15 -6h124
q9 0 15 6t6 14.5t-6 14.5t-15 6z" />
    <glyph glyph-name="shenghuofuwu1" unicode="&#xe651;" 
d="M950 368l-423 429h-1v0v0v0l-1 1l-1 0.5l-1 0.5l-0.5 0.5t-1 0.5t-1 0.5l-0.5 0.5l-1 0.5l-1 0.5h-1h-1l-1 0.5l-1 0.5h-1h-1h-1h-1l-1 -0.5l-1 -0.5h-1h-1l-1 -0.5l-1 -0.5l-0.5 -0.5t-1 -0.5t-1 -0.5l-0.5 -0.5l-1 -0.5l-1 -0.5l-1 -1v0v0v0h-1l-423 -429v-0.5v-0.5
q-1 0 -1 -1l-0.5 -0.5t-0.5 -1t-0.5 -1l-0.5 -0.5l-0.5 -1l-0.5 -1v-1t-0.5 -1t-0.5 -1v-1v-1v-1v-1v-0.5v-0.5v0v-1v-1v-2v-1v-0.5t0.5 -0.5t0.5 -1v-1l0.5 -0.5t0.5 -1v-0.5v0l1 -1q0 -1 1 -1v-1q1 -1 2 -1v0v-0.5v-0.5q1 0 1 -0.5t1 -1l1 -0.5l0.5 -0.5t1 -0.5t1 -0.5
l0.5 -0.5h1h1l1 -0.5l1 -0.5h1h0.5h0.5h2v0v0h88v-219q0 -65 46 -111t110 -46h133h92q47 0 80 33t33 79v145q0 46 -33 78.5t-80 32.5h-92q-47 0 -80 -32.5t-33 -78.5v-103q0 -9 6 -15t14.5 -6t14.5 6t6 15v103q0 29 21 49.5t51 20.5h92q30 0 51 -20.5t21 -49.5v-145
q0 -29 -21 -50t-51 -21h-92h-133q-47 0 -81 34t-34 82v239q0 9 -6 15t-15 6h-59l374 379l374 -379h-59q-9 0 -15 -6t-6 -15v-239q0 -31 -15 -57t-41 -42q-7 -5 -9 -13t2 -15q6 -10 18 -10q5 0 10 3q35 21 55 56q21 36 21 78v219h88q14 0 19 12.5t-4 22.5z" />
    <glyph glyph-name="shengxianshuiguo1" unicode="&#xe652;" 
d="M870 429q-30 30 -67 49q92 40 121 110q9 21 11.5 44.5t0 40.5t-7.5 34t-7.5 23t-4.5 10q-7 12 -20 11q-102 -6 -146 -72q-34 -50 -29 -129q-100 117 -181 191h-1q-69 62 -116 84q-7 4 -15 1t-11.5 -10.5t-1 -15.5t10.5 -12q37 -17 92 -65l-183 -243v-0.5v-0.5
q-28 9 -57 9q-79 0 -135 -56t-56 -135t56 -135t135 -56q52 0 97 26q20 12 37 29q19 -78 76 -135q83 -83 201 -83t201 83.5t83 201t-83 201.5zM784 656q30 45 101 53q21 -57 1 -105q-25 -62 -118 -96q-21 95 16 148zM528 695q78 -73 173 -185q-16 2 -32 2q-118 0 -201 -83
q-22 -22 -39 -48q-18 37 -49 63q-13 10 -26 18zM258 147q-62 0 -106 44t-44 106t44 106t106 44q52 0 93 -32.5t53 -82.5q-20 -50 -20 -104q0 -6 1 -12q-21 -32 -55 -50.5t-72 -18.5zM669 -16q-101 0 -172.5 71.5t-71.5 172t71.5 172t172.5 71.5t172 -71.5t71 -172t-71 -172
t-172 -71.5zM669 68q-66 0 -112.5 47t-46.5 113q0 4 -3 7t-7.5 3t-7.5 -3t-3 -7q0 -75 53 -127.5t127 -52.5q4 0 7 3t3 7t-3 7t-7 3zM733 69zM722 68.5q0 4.5 3 7.5t7.5 3t7.5 -3t3 -7.5t-3 -7.5t-7.5 -3t-7.5 3t-3 7.5z" />
    <glyph glyph-name="shuma1" unicode="&#xe653;" 
d="M819 684h-87l-65 126q-5 11 -18 11h-274q-13 0 -18 -11l-65 -126h-87q-55 0 -94.5 -39.5t-39.5 -94.5v-373q0 -56 39.5 -95t94.5 -39q9 0 14.5 5.5t5.5 14t-5.5 14.5t-14.5 6q-38 0 -65.5 27.5t-27.5 66.5v373q0 38 27.5 65.5t65.5 27.5h614q38 0 65.5 -27.5t27.5 -65.5
v-373q0 -39 -27.5 -66.5t-65.5 -27.5q-9 0 -14.5 -6t-5.5 -14.5t5.5 -14t14.5 -5.5q55 0 94.5 39t39.5 95v373q0 55 -39.5 94.5t-94.5 39.5zM387 780h250l49 -96h-348zM725.5 462.5q-88.5 88.5 -213.5 88.5t-213.5 -88.5t-88.5 -213.5t88.5 -213.5t213.5 -88.5t213.5 88.5
t88.5 213.5t-88.5 213.5zM512 -12q-108 0 -184.5 76.5t-76.5 184.5t76.5 184.5t184.5 76.5t184.5 -76.5t76.5 -184.5t-76.5 -184.5t-184.5 -76.5zM512 458q-51 0 -96 -23q-44 -23 -73 -63q-6 -8 2 -14q3 -2 6 -2q5 0 9 4q26 37 66.5 57.5t85.5 20.5q4 0 7 3t3 7t-3 7t-7 3z
M323 323zM312 322.5q0 4.5 3 7.5t7.5 3t7.5 -3t3 -7.5t-3 -7.5t-7.5 -3t-7.5 3t-3 7.5z" />
    <glyph glyph-name="xiuxianyule1" unicode="&#xe654;" 
d="M824 606h-84l-10 59q-1 22 -15.5 36.5t-34.5 14.5h-10l37 87q4 9 -5.5 13t-13.5 -5l-40 -95h-304q-20 0 -34.5 -14.5t-15.5 -36.5l-10 -59h-84q-9 0 -15 -6t-6 -14.5t6 -14.5t15 -6h73l38 -558q0 -26 16 -44t39 -18h293q22 0 38.5 18t16.5 44l37 558h73q9 0 15 6t6 14.5
t-6 14.5t-15 6zM680 675q3 0 6 -3.5t3 -8.5v-3l9 -54h-74l29 69h27zM335 660v3q0 5 3 8.5t6 3.5h287l-29 -69h-276zM314 565h271l-233 -556zM673 9v-1q0 -10 -4.5 -16t-9.5 -6h-293h-2l243 579h103zM531 44q-10 1 -11.5 -9t8.5 -11q9 -2 20 -2q64 0 80 40q18 43 25 125
q1 11 -9.5 11.5t-10.5 -9.5q-7 -79 -24 -120q-6 -15 -26 -21.5t-34 -4.5t-18 1zM650 247zM640 246.5q0 4.5 3 7.5t7.5 3t7.5 -3t3 -7.5t-3 -7.5t-7.5 -3t-7.5 3t-3 7.5z" />
    <glyph glyph-name="yundong1" unicode="&#xe655;" 
d="M348 610q2 0 4 1q66 29 138.5 30t139.5 -27q9 -4 13 5.5t-5 13.5q-71 30 -148 29t-147 -33q-9 -4 -5 -13q3 -6 10 -6zM914 352q-21 21 -47 32q3 80 -25.5 154t-84.5 130q-54 54 -125 83q-68 28 -141.5 28t-141.5 -28q-70 -29 -124 -83t-83 -124q-28 -68 -28 -141.5
t28 -141.5q11 -28 27 -54l-78 -79q-27 -26 -27 -63t26.5 -63t63.5 -26t63 26l78 79q26 -16 54 -27q68 -28 141.5 -28t141.5 28q62 25 112 70q32 -17 69 -17q59 0 101 42t42 101.5t-42 101.5zM254 639q98 99 237 99t237 -99q49 -49 74.5 -112.5t23.5 -132.5h-13
q-60 0 -102 -42t-42 -101q0 -60 42 -102q-30 -25 -64 -43l-453 453q24 44 60 80zM188 31q-14 -14 -34 -14t-34.5 14t-14.5 34t15 34l73 74q14 -20 31.5 -37t36.5 -32zM253.5 165.5q-70.5 70.5 -91 167.5t13.5 186l431 -431q-88 -34 -185.5 -13.5t-168 91zM885 178
q-30 -30 -72.5 -30t-72.5 30t-30 72.5t30 72.5t72.5 30t72.5 -30t30 -72.5t-30 -72.5zM689 587zM679 586.5q0 4.5 3 7.5t7.5 3t7.5 -3t3 -7.5t-3 -7.5t-7.5 -3t-7.5 3t-3 7.5z" />
    <glyph glyph-name="zizhucan" unicode="&#xe656;" 
d="M484 508q-79 -16 -147.5 -59t-117.5 -108q-6 -8 2 -14q3 -2 6 -2q5 0 8 4q47 62 112 102.5t141 56.5q10 1 8 11.5t-12 8.5zM543 508zM532 508q0 4 3 7t7.5 3t7.5 -3t3 -7t-3 -7t-7.5 -3t-7.5 3t-3 7zM933 43h-46q0 8 -1 16l28 -7q3 -1 5 -1q16 0 20 16q42 161 -32 311
q-33 68 -87 120.5t-121 85.5l4 17q9 35 -9 65.5t-52 39.5q-11 3 -22 3q-29 0 -52 -18t-31 -47l-4 -17q-89 5 -173 -23q-69 -24 -127 -68q-59 -45 -100 -106q-42 -63 -62 -138q-2 -8 2.5 -15.5t12.5 -9.5l117 -30q-28 -41 -45 -87q-18 -52 -21 -107h-46q-8 0 -14 -6t-6 -14.5
t6 -14.5t14 -6h842q8 0 14 6t6 14.5t-6 14.5t-14 6zM505 587q21 0 41 -2q18 -2 22 15l9 34q4 15 16 24.5t27 9.5q6 0 12 -2q18 -5 27 -21t5 -33l-9 -35q-5 -17 12 -24q87 -37 148 -109t84.5 -163.5t4.5 -183.5l-788 205q40 127 147.5 206t241.5 79zM224 231l641 -166
q1 -11 1 -22h-708q5 104 66 188z" />
    <glyph glyph-name="jiaoyu1" unicode="&#xe657;" 
d="M845 119v314l98 64q9 7 9 18t-9 17l-422 275q-11 7 -22 0l-422 -275q-9 -6 -9 -17t9 -18l98 -64v-316v-3v-7v-1q6 -67 104 -111q96 -44 231 -44t231 44q50 23 77 53.5t27 65.5q0 1 -1 3q1 1 1 2zM510 765l384 -250l-384 -251l-384 251zM724 32q-88 -40 -214 -40t-214 40
q-76 34 -80 78v297l283 -185q5 -3 11 -3t11 3l283 185v-288v-3v-2q0 -22 -21 -43.5t-59 -38.5zM935.5 435q-8.5 0 -14.5 -6t-6 -15v-338q0 -9 6 -15t14.5 -6t14.5 6t6 15v338q0 9 -6 15t-14.5 6zM394 429q-106 43 -108 86q0 14 12.5 28.5t20 19.5t13.5 8q9 4 4.5 13.5
t-14.5 4.5q-2 -1 -6.5 -3.5t-14.5 -10t-17 -15.5t-13 -20.5t-5 -24.5q1 -27 28 -52q30 -27 92 -53h4q7 0 9 6q4 10 -5 13z" />
    <glyph glyph-name="jiudian1" unicode="&#xe658;" 
d="M939 -6h-43v384q0 39 -26 66t-64 27h-106v251q0 38 -26.5 65.5t-63.5 27.5h-392q-38 0 -64 -27.5t-26 -65.5v-728h-43q-9 0 -15 -6t-6 -14.5t6 -14.5t15 -6h854q9 0 15 6t6 14.5t-6 14.5t-15 6zM806 430q21 0 35 -15t14 -37v-384h-155v436h106zM169 722q0 21 14 36.5
t35 15.5h392q20 0 34.5 -15.5t14.5 -36.5v-728h-490v728zM773 386h18q6 0 9.5 -4.5t3.5 -10.5v-67q0 -4 3 -7t7.5 -3t7.5 3t3 7v67q0 15 -10 25t-24 10h-18q-4 0 -7 -3t-3 -7t3 -7t7 -3zM441 617h-54q-8 0 -14 -6t-6 -14v-52q0 -8 6 -14t14 -6h54q8 0 14 6t6 14v52
q0 8 -6 14t-14 6zM440 545h-52v52h52v-52zM312 617h-53q-8 0 -14 -6t-6 -14v-52q0 -8 6 -14t14 -6h53q9 0 14.5 6t5.5 14v52q0 8 -5.5 14t-14.5 6zM312 545h-53v52h53v-52zM569 617h-54q-8 0 -14 -6t-6 -14v-52q0 -8 6 -14t14 -6h54q8 0 14 6t6 14v52q0 8 -6 14t-14 6z
M568 545h-52v52h52v-52zM441 420h-54q-8 0 -14 -6t-6 -14v-52q0 -9 6 -14.5t14 -5.5h54q8 0 14 5.5t6 14.5v52q0 8 -6 14t-14 6zM440 348h-52v51h52v-51zM312 420h-53q-8 0 -14 -6t-6 -14v-52q0 -9 6 -14.5t14 -5.5h53q9 0 14.5 5.5t5.5 14.5v52q0 8 -5.5 14t-14.5 6z
M312 348h-53v51h53v-51zM569 420h-54q-8 0 -14 -6t-6 -14v-52q0 -9 6 -14.5t14 -5.5h54q8 0 14 5.5t6 14.5v52q0 8 -6 14t-14 6zM568 348h-52v51h52v-51zM441 223h-54q-8 0 -14 -6t-6 -14v-53q0 -8 6 -13.5t14 -5.5h54q8 0 14 5.5t6 13.5v53q0 8 -6 14t-14 6zM440 151h-52
v51h52v-51zM312 223h-53q-8 0 -14 -6t-6 -14v-53q0 -8 6 -13.5t14 -5.5h53q9 0 14.5 5.5t5.5 13.5v53q0 8 -5.5 14t-14.5 6zM312 151h-53v51h53v-51zM569 223h-54q-8 0 -14 -6t-6 -14v-53q0 -8 6 -13.5t14 -5.5h54q8 0 14 5.5t6 13.5v53q0 8 -6 14t-14 6zM568 151h-52v51h52
v-51zM815 262zM804 262.5q0 4.5 3 7.5t7.5 3t8 -3t3.5 -7.5t-3.5 -8t-8 -3.5t-7.5 3.5t-3 8z" />
    <glyph glyph-name="liren1" unicode="&#xe659;" 
d="M957 229q0 9 -6 14.5t-14 5.5h-3q-65 0 -85 31q-11 15 -9 39t6.5 41t10.5 29q1 1 1 2q16 42 16 99q-2 116 -84 197q-63 61 -130 55q-59 -5 -107 -59q-140 93 -255 72q-36 -7 -68 -25.5t-43.5 -30.5t-18.5 -22q-40 -45 -31 -113q3 -25 12 -49q-25 -44 -73 -52
q-11 -1 -15.5 -11t1.5 -20q17 -27 43 -42q-6 -31 -7 -60q-4 -89 40 -117q41 -26 111 -16q34 5 60 14q1 0 2 1q8 3 20 -4q7 -5 13.5 -15.5t14.5 -33t12 -66t2 -101.5q-1 -8 5 -14.5t15 -6.5v0q8 0 14 6t7 14q3 111 -15 176q-15 54 -45 75q-29 19 -59 7q-16 -5 -37.5 -9.5
t-51 -3.5t-46.5 12q-15 9 -19.5 38.5t-1.5 58t9 52.5q2 8 -2 15.5t-12 9.5q-9 2 -18 10q24 11 42.5 30t24 29t8.5 16q3 9 -1 17q-1 3 -3.5 8.5t-6 21.5t-4 30.5t4.5 33t18 33.5l2 2q3 5 11 14t35 25.5t59 22.5q104 19 239 -76q6 -5 14.5 -3.5t13.5 8.5q4 6 12 15t31.5 24.5
t47.5 17.5q48 5 97 -43q70 -69 72 -167q0 -47 -13 -85q-4 -8 -8 -20.5t-9.5 -35.5t-3 -47.5t15.5 -44.5q27 -44 98 -49q-7 -17 -22 -33q-31 -32 -70 -44q-75 -22 -116 49q-16 28 -23 50t-3.5 42t8.5 32t17 34q14 26 21.5 42t14.5 47.5t5 65.5q-6 79 -52 101q-35 17 -85 -2
q-23 -8 -41 -20q-12 -9 -8 -23q12 -38 20 -82q16 -85 4 -115q-6 -13 -16.5 -24.5t-20.5 -18.5t-21 -12t-15.5 -6.5t-6.5 -2.5q-13 -3 -15 -17q1 -3 -1 -11t3 -25.5t12.5 -36.5t27.5 -43t49 -45q7 -5 15.5 -3.5t13.5 8.5t3.5 15.5t-8.5 13.5q-52 37 -68 83q-5 14 -6 27
q67 27 91 82q18 41 -1 139q-6 34 -16 70q46 25 72 13q25 -13 29 -68q2 -28 -4 -54t-12.5 -40t-19.5 -38q-28 -50 -31 -82q-5 -51 33 -116q29 -51 76 -68q40 -14 86 0q51 15 88 55q40 42 37 81zM276 644q-20 -14 -28 -32q-4 -10 5 -14h4q7 0 10 6q1 3 3.5 6.5t10.5 12
t19.5 12.5t30.5 7t43 -5q10 -2 12.5 7.5t-7.5 12.5q-63 16 -103 -13zM425 637zM414 637.5q0 4.5 3 7.5t7.5 3t7.5 -3t3 -7.5t-3 -7.5t-7.5 -3t-7.5 3t-3 7.5z" />
    <glyph glyph-name="meishi" unicode="&#xe65a;" 
d="M948 622q-3 11 -15 14q-76 15 -141 -3q-34 -10 -65 -29q6 36 2.5 69t-7 53t-11.5 37.5t-11 23t-6 8.5q-8 11 -21 7q-35 -10 -66 -32.5t-52.5 -51.5t-34 -50t-21.5 -42q-13 2 -26 2q-38 0 -74 -14q-9 35 -38.5 58.5t-67.5 23.5q-43 0 -75 -30t-34 -73q-3 1 -5 2
q-53 22 -101 19q-9 0 -15 -6.5t-5 -14.5q7 -113 53 -177q5 -7 11 -14q-3 -5 -3 -10q-1 -15 -1 -31q0 -80 31 -153q30 -71 84.5 -125.5t125.5 -84.5q73 -31 153 -31t153 31q71 30 125.5 84.5t84.5 125.5q31 73 31 153q0 16 -1 31q0 8 -6 13.5t-14 5.5h-9q22 19 38 41
q27 37 36 81q11 50 -2 89zM669 757q7 -14 12 -34q17 -66 0 -156q-19 -19 -34 -40q-16 28 -40 50q6 48 28 78q6 9 -2 15t-14 -2q-23 -31 -31 -76q-22 15 -48 25q51 109 129 140zM633 427q0 -8 -1 -16h-39q-11 40 -44.5 65t-75.5 25q-41 0 -74.5 -25t-45.5 -64q0 -1 -1 -1h-38
q-1 8 -1 16q0 66 47 113t113 47t113 -47t47 -113zM375 411q10 31 37.5 50.5t61 19.5t60.5 -19.5t38 -50.5h-197zM224 586q0 28 20.5 48.5t48.5 20.5q26 0 45.5 -17.5t22.5 -43.5q-51 -35 -74 -92q-23 40 -61 67q-2 8 -2 17zM101 573q33 -4 63 -16q18 -7 33 -17q1 -1 2 -1
q56 -39 74 -114v-14h-38q-23 69 -56 96q-8 6 -14.5 -2t1.5 -14q27 -21 47 -80h-39q-17 10 -32 32q-32 48 -41 130zM512 8q-96 0 -177.5 47.5t-128.5 129t-47 176.5v9h138v0v0h513v0v0h55v-9q0 -95 -47 -176.5t-128.5 -129t-177.5 -47.5zM910 541q-16 -79 -105 -130h-76
q36 83 86 109q9 5 4 14t-14 4q-59 -32 -99 -127h-33q1 8 1 16q0 28 -8 54q22 40 58 70q78 65 188 47q4 -28 -2 -57zM255 233zM244 232.5q0 4.5 3.5 8t7.5 3.5t7.5 -3.5t3.5 -8t-3.5 -7.5t-7.5 -3t-7.5 3t-3.5 7.5zM605 119q-45 -15 -94 -15q-64 0 -121.5 27t-99.5 76
q-7 8 -14.5 1t-1.5 -14q45 -53 107 -81.5t130 -28.5q52 0 100 16q10 3 6.5 13t-12.5 6z" />
    <glyph glyph-name="touxiang" unicode="&#xe65c;" 
d="M801.5 261.5q18.5 29.5 28.5 63.5h4q38 0 65 30.5t27 73.5t-27 74t-65 31h-4q-1 5 -2 9q27 16 48 38.5t27 32t9 16.5q3 8 -2.5 16t-14.5 6q-24 -3 -47.5 8t-38.5 24t-43 42q-24 24 -38.5 38t-41 34t-55 33t-61.5 20q-116 24 -202 -40q-37 -28 -59 -65q-76 -27 -106 -90
q-25 -52 -15 -123q-36 -2 -61 -32t-25 -72q0 -43 26.5 -73.5t64.5 -30.5q12 0 24 3q12 -27 28.5 -52.5t40.5 -53.5t59.5 -50t76.5 -33v-15q-28 -5 -59.5 -14.5t-85.5 -38.5t-98 -71q-12 -11 -1 -23q5 -5 12 -5t11 5q56 52 128 84q15 -66 68 -109t121 -43q71 0 124.5 44.5
t66.5 112.5q76 -30 136 -86q5 -4 11 -4q7 0 12 5q11 12 -1 23q-44 41 -96.5 69t-82.5 37t-57 13v14q16 5 33.5 12.5t43 21.5t50.5 37.5t43.5 53zM893 429q0 -28 -16 -48.5t-39 -22.5q13 65 -1 143q23 -1 39.5 -22t16.5 -50zM613 93q26 -2 65 -15q-10 -59 -55 -97.5
t-105 -38.5q-58 0 -102.5 37t-55.5 94q47 17 80 20q6 0 10.5 5t4.5 11v42q0 10 -10 15q-3 1 -5 2q-48 11 -87.5 40.5t-61.5 59t-38.5 64.5t-20.5 49t-6 22q-1 7 -6.5 10.5t-12.5 2t-10.5 -7t-2.5 -12.5q4 -15 11 -37q-6 -1 -12 -1q-24 0 -41 21t-17 50.5t17 50.5t41 21h0.5
h0.5q4 -15 7 -24q4 -11 15 -11q3 0 6 1q7 3 9.5 9t0.5 12q-5 12 -8 30l-1 1v0q-15 72 10 123q25 53 92 75q7 2 10 8q0 2 2 5t8 11t13.5 16.5t19 18.5t24.5 18t31 15.5t37 11.5t43 3.5t50 -5.5q38 -8 74.5 -29t55 -38t49.5 -49q26 -26 40 -39t38 -27t47 -17q-34 -45 -93 -65
q-153 -52 -408 88q-8 4 -15.5 -0.5t-8.5 -12.5q0 -3 -1 -7.5t-5.5 -17t-11 -24t-19 -25t-29.5 -22.5q-6 -3 -8 -9.5t1.5 -12.5t10 -8t12.5 1q58 32 78 98q254 -134 415 -79q6 2 12 5q24 -97 8 -172q-4 -3 -6 -8q-1 -5 1 -11q-9 -32 -26 -59q-16 -25 -39 -46.5t-42.5 -32.5
t-40.5 -20t-28.5 -11t-12.5 -3q-13 -2 -13 -16v-41q0 -6 4.5 -11t10.5 -5z" />
    <glyph glyph-name="shipinjiushui" unicode="&#xe623;" 
d="M486 389q-20 5 -41.5 23t-29 27.5t-11.5 16.5q-5 7 -13 8.5t-15.5 -3t-9 -12.5t2.5 -15q6 -9 15.5 -21.5t37 -34.5t55.5 -29q2 -1 5 -1q16 0 20 16q2 8 -2.5 15.5t-13.5 9.5zM714 321q79 79 79 190v289v1q0 10 -7.5 17.5t-18.5 7.5h-510q-11 0 -18.5 -7.5t-7.5 -17.5v-1
v-289q0 -111 79 -190q71 -71 171 -78v-236h-174q-13 0 -22 -9t-9 -21.5t9 -21.5t22 -9h410q13 0 22 9t9 21.5t-9 21.5t-22 9h-174v236q100 7 171 78zM281 754q0 8 6 14.5t15 6.5h420q9 0 15 -6.5t6 -14.5v-1v-167q-78 -40 -181 -1q-133 49 -225 6q-31 -14 -56 -38v200v1z
M282 489q26 44 72 65q77 36 193 -7q68 -26 129 -21q35 2 67 15v-26q0 -91 -64.5 -156t-155.5 -65h-22q-91 0 -155 65q-55 54 -64 130z" />
    <glyph glyph-name="qicheyongpin" unicode="&#xe625;" 
d="M727 411.5q6 7.5 4 17.5l-30 124q0 2 -1 3q-10 26 -32.5 41t-49.5 15h-212q-27 0 -49.5 -15t-32.5 -41q-1 -1 -1 -3l-30 -124q-2 -10 4 -17.5t16 -7.5h398q10 0 16 7.5zM339 444l23 98q13 29 44 29h212q31 0 44 -29l23 -98h-346zM267 263zM221 263q0 19 13.5 32.5
t32.5 13.5t32.5 -13.5t13.5 -32.5t-13.5 -32.5t-32.5 -13.5t-32.5 13.5t-13.5 32.5zM757 263zM711 263q0 19 13.5 32.5t32.5 13.5t32.5 -13.5t13.5 -32.5t-13.5 -32.5t-32.5 -13.5t-32.5 13.5t-13.5 32.5zM926 412q-26 30 -64 40l-47 201q-1 2 -2 3q-16 40 -50.5 63.5
t-76.5 23.5h-348q-42 0 -76.5 -23.5t-50.5 -63.5q-1 -1 -2 -3l-47 -201q-39 -10 -65 -41q-32 -37 -32 -86v-102q0 -44 27 -79.5t69 -47.5q6 -34 33 -56.5t62 -22.5q34 0 60.5 21t34.5 53h322q8 -32 34.5 -53t60.5 -21q35 0 62 22.5t33 56.5q42 12 69 47.5t27 79.5v102
q0 50 -33 87zM908 223q0 -31 -20.5 -54t-51.5 -26q-10 -1 -16.5 -9t-5.5 -19v-2q0 -18 -13.5 -31.5t-32.5 -13.5t-32.5 13.5t-13.5 31.5v2v2q0 10 -7.5 17.5t-18.5 7.5h-368q-11 0 -18.5 -7.5t-7.5 -17.5v-2v-2q0 -18 -13.5 -31.5t-32.5 -13.5t-32.5 13.5t-13.5 31.5v2v1.5
t1 0.5q0 10 -6.5 17.5t-16.5 8.5q-31 3 -51.5 26t-20.5 54v102q0 30 19 52t48 28q9 0 16 5.5t9 13.5l51 215q10 24 31.5 38t47.5 14h348q26 0 47.5 -14t31.5 -38l51 -214v0v-1v0l1 -1q5 -18 24 -18v0q29 -6 48 -28.5t19 -51.5v-102z" />
    <glyph glyph-name="pijuxiangbao" unicode="&#xe626;" 
d="M1211 356zM472 415h80q9 0 15 6t6 14.5t-6 14.5t-15 6h-80q-9 0 -15 -6t-6 -14.5t6 -14.5t15 -6zM915 484q-1 53 -37 89.5t-86 36.5h-51q-4 89 -67 152q-67 67 -162 67t-162 -67q-63 -63 -67 -152h-51q-50 0 -86 -36.5t-37 -89.5l-45 -416v-1q0 -53 39.5 -90.5
t95.5 -37.5h626q56 0 95.5 37.5t39.5 90.5v1zM512 778q71 0 122.5 -48.5t55.5 -119.5h-356q4 71 55.5 119.5t122.5 48.5zM263 567h498q45 0 77 -32t33 -78v-1l-359 -152l-359 152v1q1 46 33 78t77 32zM911 93q0 -45 -35.5 -78t-84.5 -33h-558q-49 0 -84.5 33t-35.5 78v2
l34 307l355 -149q5 -2 10 -2t10 2l355 149l34 -307v-2z" />
    <glyph glyph-name="nvzhuangnvxie" unicode="&#xe627;" 
d="M925 32v1q-4 73 -130 258q-53 78 -114 157l66 174q4 10 -1 19q-4 9 -9.5 25t-13 58t-2.5 76q2 12 -5.5 20.5t-19.5 8.5h-99q-10 0 -17 -6.5t-8 -16.5v-2q0 -31 -17.5 -53t-42.5 -22t-42.5 22t-17.5 53q0 10 -7.5 17.5t-17.5 7.5h-99q-12 0 -19 -9l-2 -2q-6 -8 -4 -18
q5 -34 -2.5 -76t-13 -58t-9.5 -25q-5 -9 -1 -19l66 -174q-61 -79 -114 -157q-126 -185 -130 -258v-1q0 -31 23 -55q36 -38 99 -38q22 0 41.5 9.5t28 18t22.5 24.5q16 20 26.5 27.5t26.5 7.5t27 -7.5t27 -27.5q13 -16 22 -24.5t28.5 -18t41.5 -9.5v0v0q22 0 41.5 9.5t28.5 18
t22 24.5q16 20 27 27.5t27 7.5t26.5 -7.5t26.5 -27.5q14 -16 22.5 -24.5t28 -18t41.5 -9.5q63 0 99 38q23 24 23 55zM356 778h48v0v-4v0q1 -2 1 -4v-1q1 -2 1 -3v-0.5v-0.5l2 -4v0v0q0 -2 1 -4v0v0q1 -2 1 -4l1 -1q0 -1 1 -3v0v0l2 -4v0v-1l2 -2v-1v0l2 -4v0v0q1 -2 2 -3v0
v-1q1 -1 2 -3v0v0q1 -2 2 -3l1 -1q1 -2 2 -3v0q1 -2 2 -3l1 -1q1 -2 2 -3q28 -33 69 -38h11q47 0 80 38q22 26 28 62h48q-2 -72 28 -148l-62 -162h-122h-122l-62 162q30 76 28 148zM865 12q-21 -22 -62 -22q-16 0 -26.5 7.5t-26.5 26.5q-13 17 -22 25.5t-28.5 18t-42 9.5
t-41.5 -9.5t-28 -18t-23 -25.5q-16 -19 -26.5 -26.5t-26.5 -7.5v0v0q-16 0 -26.5 7.5t-26.5 26.5q-14 17 -23 25.5t-28 18t-41.5 9.5t-42 -9.5t-28.5 -18t-22 -25.5q-16 -19 -26.5 -26.5t-26.5 -7.5q-41 0 -62 22q-9 9 -8 19q2 58 120 231q52 77 113 155h128h128
q61 -78 113 -155q118 -173 120 -231q1 -10 -8 -19zM444.5 320.5q-7.5 3.5 -15.5 0.5t-12 -10q-47 -101 -53 -134q-2 -9 3 -16t13 -8q2 -1 4 -1q17 0 20 17q5 28 50 124q4 8 1 16t-10.5 11.5zM607 311q-4 7 -12 10t-15.5 -0.5t-10.5 -11.5t1 -16q45 -96 50 -124q3 -17 20 -17
q2 0 4 1q8 1 13 8t3 16q-6 32 -53 134z" />
    <glyph glyph-name="nanzhuangnanxie" unicode="&#xe63f;" 
d="M953 591q-7 33 -38 53l-201 162h-1v0l-1 1h-0.5t-1 0.5l-0.5 0.5l-0.5 0.5l-0.5 0.5h-0.5t-1 0.5t-1 0.5h-0.5h-0.5t-1 0.5l-0.5 0.5h-0.5h-1h-1t-0.5 0.5t-0.5 0.5h-1h-1h-0.5h-0.5h-1h-0.5h-1v0h-1h-0.5h-0.5h-1h-1v0q-5 -1 -9 -3h-0.5h-0.5v0q-4 -2 -8 -6v0l-0.5 -0.5
l-0.5 -0.5l-0.5 -0.5l-0.5 -0.5v0l-1 -1v-0.5t-0.5 -0.5t-0.5 -0.5t-0.5 -1l-0.5 -0.5v-0.5t-0.5 -0.5t-0.5 -0.5v-1t-0.5 -0.5t-0.5 -0.5v-1t-0.5 -1l-0.5 -0.5v-0.5v-1v-1t-0.5 -0.5t-0.5 -0.5v-1v-1v-0.5v-1v-0.5v-0.5v-1v0q0 -32 -39 -57q-46 -29 -113 -29v0v0v0v0v0v0
h-1v0q-66 0 -112 29q-39 25 -39 57v0v1v0.5v1t-0.5 1l-0.5 0.5v0.5v1v1v0.5v0.5t-0.5 1l-0.5 0.5v0.5v1t-0.5 0.5t-0.5 0.5v1t-0.5 1l-0.5 0.5v0.5t-0.5 1l-0.5 0.5l-0.5 0.5t-0.5 1v0.5h-1v1v0l-0.5 0.5l-0.5 0.5l-0.5 0.5l-0.5 0.5v0q-4 4 -8 6h-1v0q-4 2 -9 3h-1h-0.5
h-0.5h-0.5h-1.5v0v0h-1h-0.5h-1h-1h-1h-0.5h-0.5t-1 -0.5t-1 -0.5h-0.5h-0.5h-1t-1 -0.5l-0.5 -0.5h-0.5h-1t-0.5 -0.5t-0.5 -0.5h-1t-0.5 -0.5t-0.5 -0.5t-1 -0.5l-0.5 -0.5l-0.5 -0.5l-0.5 -0.5h-1v0l-202 -162q-30 -20 -38 -53q-7 -31 12 -62q2 -2 4 -5l133 -138
q9 -9 22 -9q7 0 13 2v-299q0 -39 27 -66.5t66 -27.5h164h1v0v0v0h1h164q38 0 65.5 27.5t27.5 66.5v299q6 -2 12 -2q13 0 23 9l133 138q2 3 4 5q18 31 11 62zM891 564l-110 -114l-11 10v65l-54 -54v-352q0 -31 -21.5 -52.5t-51.5 -21.5h-130h-1v0v0v0h-1h-130
q-31 0 -52.5 21.5t-21.5 52.5v352l-53 54v-65l-11 -10l-110 114q-5 10 -1 18q4 7 11 11q1 1 3 2l166 134l6 -10q17 -26 48 -45q61 -39 145 -39h1v0q85 0 146 39q30 19 48 45q3 5 5 10l167 -134q1 -1 3 -2q6 -4 10 -11q5 -8 0 -18z" />
    <glyph glyph-name="meizhuanghufu" unicode="&#xe641;" 
d="M373 510q5 40 2 77q-4 80 -41 144q-19 32 -46 58t-39 33t-20 11q-16 8 -29 -5q-46 -46 -68 -129q-17 -64 -19 -148q-1 -25 0 -52q-38 -28 -38 -74v-3v-42v-354q0 -39 27.5 -66t65.5 -27h168q39 0 66 27t27 66v399q0 28 -15.5 51t-40.5 34zM161 541q-1 23 0 45q2 53 12 93
q14 53 43 82q9 8 19 3q5 -2 12.5 -6.5t24.5 -21t29 -36.5q23 -41 26 -92q2 -31 -4 -67q-2 -9 -7 -23h-148h-1zM379 282v-109v-117q0 -28 -19.5 -47.5t-47.5 -19.5h-120q-28 0 -47.5 19.5t-19.5 47.5v117v109v50v67q0 28 19.5 47.5t47.5 19.5h120q25 0 43 -15t23 -38
q1 -7 1 -14v-117zM943 716q-33 41 -104 65q-69 23 -153.5 23t-154.5 -23q-71 -24 -104 -65q-10 -13 -3 -27l116 -230q7 -14 23 -14h18l-23 -469q0 -16 12 -27.5t29 -11.5h172q17 0 29 11.5t12 27.5l-23 469h18q16 0 23 14l116 230q8 14 -3 27zM766 24q-1 -14 -8.5 -24
t-18.5 -10l-110 1q-11 0 -18.5 10t-7.5 24l18 420h64h68zM887 674l-89 -178q-6 -11 -18 -11h-48l21 99q1 9 -3.5 16t-13 8.5t-15.5 -3t-8 -12.5l-23 -108h-5h-5l-22 108q-2 8 -9 12.5t-15.5 3t-13 -8.5t-2.5 -16l20 -99h-48q-12 0 -17 11l-90 178q-6 11 2 21q26 32 81 51
q54 18 119.5 18t118.5 -18q55 -19 81 -51q8 -10 2 -21z" />
    <glyph glyph-name="jiayongdianqi" unicode="&#xe644;" 
d="M944 497h-42v59q0 69 -48 117t-117 48h-99q-9 45 -44.5 74.5t-81.5 29.5t-81.5 -29.5t-44.5 -74.5h-99q-69 0 -117 -48t-48 -117v-59h-42q-10 0 -17.5 -7.5t-7.5 -18t7.5 -18t17.5 -7.5h42v-340q0 -69 48 -117t117 -48h450q69 0 117 48t48 117v340h42q10 0 17.5 7.5
t7.5 18t-7.5 18t-17.5 7.5zM512 774q25 0 45 -15t28 -38h-146q8 23 28 38t45 15zM170 528q0 60 42.5 102.5t102.5 42.5h394q60 0 102.5 -42.5t42.5 -102.5v-31h-684v31zM854 134q0 -60 -42.5 -102.5t-102.5 -42.5h-394q-60 0 -102.5 42.5t-42.5 102.5v312h684v-312zM512 324
zM485 324q0 11 8 19t19 8t19 -8t8 -19t-8 -19t-19 -8t-19 8t-8 19zM512 183zM485 182.5q0 11.5 8 19.5t19 8t19 -8t8 -19.5t-8 -19t-19 -7.5t-19 7.5t-8 19z" />
    <glyph glyph-name="zhubaoshoushi" unicode="&#xe645;" 
d="M1211 356zM770 519q-7 8 -17.5 9t-18.5 -6t-9 -17.5t6 -18.5q68 -80 68 -185q0 -119 -84 -203t-203 -84t-203 84t-84 203q0 105 68 185q7 8 6 18.5t-9 17.5t-18.5 6t-17.5 -9q-80 -94 -80 -218q0 -69 27 -132q25 -60 72 -107t107 -72q63 -27 132 -27t132 27q60 25 107 72
t72 107q27 63 27 132q0 124 -80 218zM494 358q2 -1 4 -3q6 -4 14 -4q11 0 18 7l259 259q15 16 3 33l-99 141q-7 11 -21 11h-158h-4h-158q-14 0 -21 -11l-99 -141q-12 -17 3 -33q75 -74 259 -259zM300 608h54l71 -120q-66 63 -125 120zM724 608l-126 -121l71 121h55zM622 608
l-110 -186l-110 186h220zM414 649l98 102l98 -102h-196zM659 754l77 -105h-69l-109 113h84q11 0 17 -8zM365 754q6 8 17 8h84l-108 -113h-70z" />
    <glyph glyph-name="tushuyinxiang" unicode="&#xe646;" 
d="M512 422q47 0 80.5 33.5t33.5 80.5t-33.5 80.5t-80.5 33.5t-80.5 -33.5t-33.5 -80.5t33.5 -80.5t80.5 -33.5zM512 598q26 0 44.5 -18t18.5 -44t-18.5 -44.5t-44.5 -18.5t-44.5 18.5t-18.5 44.5t18.5 44t44.5 18zM803 561q-9 106 -85 181q-85 86 -206 86t-206 -86
q-76 -75 -85 -181q-46 -3 -77.5 -36.5t-31.5 -79.5v-398q0 -49 34 -83t83 -34h566q49 0 83 34t34 83v398q0 46 -31.5 79.5t-77.5 36.5zM865 404h-92q22 45 29 94q28 -12 45 -37.5t18 -56.5zM512 777q100 0 170.5 -71t70.5 -170q0 -72 -39 -132h-404q-39 60 -39 132
q0 99 70.5 170t170.5 71zM222 498q7 -50 29 -94h-92q1 31 18 56.5t45 37.5zM865 215v-132q0 -42 -30.5 -72t-72.5 -30h-500q-42 0 -72.5 30t-30.5 72v189v0v81h706v-138v0z" />
    <glyph glyph-name="shoujishuma" unicode="&#xe647;" 
d="M369 691h-133q-9 0 -15 6t-6 14.5t6 14.5t15 6h133q8 0 14 -6t6 -14.5t-6 -14.5t-14 -6zM66 770v-772q0 -25 17.5 -43t42.5 -18h109h206h109q25 0 42.5 18t17.5 43v772q0 25 -17.5 43t-42.5 18h-109h-206h-109q-25 0 -42.5 -18t-17.5 -43zM237 786h202v0h2v0h67
q22 0 38 -16t16 -39v-694q0 -23 -16 -39t-38 -16h-72h-196h-5h-67q-22 0 -38 16t-16 39v694q0 23 16 39t38 16h67v0h2v0zM338 98zM297 98q0 17 12 29t29 12t29 -12t12 -29t-12 -29t-29 -12t-29 12t-12 29zM420 712zM400 711.5q0 8.5 6 14t14 5.5t14 -5.5t6 -14t-6 -14
t-14 -5.5t-14 5.5t-6 14zM838.5 150q-8.5 0 -14.5 6t-6 15v133q0 8 6 14t14.5 6t14.5 -6t6 -14v-133q0 -9 -6 -15t-14.5 -6zM897 484h-235v-48h196q23 0 39 -16t16 -39v-66v0v-2v0v-203v0v-2v0v-66q0 -22 -16 -38t-39 -16h-196v-49h235q25 0 43 18t18 43v108v207v109
q0 25 -18 42.5t-43 17.5z" />
    <glyph glyph-name="jujiashenghuo" unicode="&#xe648;" 
d="M904 319q0 4 -2 9l-135 395q-8 25 -26 50q-40 52 -99 52h-2h-256h-2q-59 0 -99 -52q-18 -25 -26 -50l-135 -395q-2 -5 -2 -9q0 -48 34 -82t83 -34h188v-116q-30 -4 -58 -14q-92 -34 -128 -113q-5 -13 2.5 -24.5t21.5 -11.5h249h249q14 0 21.5 11.5t2.5 24.5
q-36 79 -128 113q-28 10 -58 14v116h178v-70q-16 -11 -16 -30q0 -15 11 -25.5t26 -10.5t25.5 10.5t10.5 25.5q0 19 -16 30v74q38 10 62 41.5t24 70.5zM572 38q32 -1 69 -14q47 -17 74 -49h-203h-203q27 32 74 49q37 13 68 14q11 1 18.5 8t7.5 18v139h70v-139q0 -11 7.5 -18
t17.5 -8zM283 255q-40 0 -68.5 28.5t-28.5 68.5q0 4 1 7l113 329q6 21 22 41q32 44 82 44h1h214h1q50 0 82 -44q16 -20 22 -41l113 -329q1 -3 1 -7q0 -40 -28.5 -68.5t-68.5 -28.5h-458z" />
    <glyph glyph-name="muyingyongpin" unicode="&#xe65d;" 
d="M934 713h-185q-16 0 -23 -15l-111 -226h-436q-21 0 -36 -15t-15 -36q0 -78 30 -150q29 -68 82 -122q18 -17 38 -33q-30 -31 -30 -74t31 -74t75 -31q43 0 73.5 30t31.5 74q26 -4 53 -4t53 4q1 -44 31.5 -74t73.5 -30q44 0 75 31t31 74t-30 74q20 16 38 33q53 54 82 122
q30 72 30 149v1q0 21 -15 36t-36 15v0h-173l93 189h169q10 0 17.5 7.5t7.5 18.5t-7.5 18.5t-17.5 7.5zM408 42q0 -22 -16 -38t-38.5 -16t-38.5 16t-16 38q0 29 24 45q19 -11 39 -20q22 -9 45 -16q1 -4 1 -9zM725 42q0 -22 -16 -38t-38.5 -16t-38.5 16t-16 38q0 5 1 9
q23 7 45 16q20 9 39 20q24 -16 24 -45zM789 419q18 0 30.5 -11t12.5 -27v-1q0 -58 -25 -111q-24 -51 -68.5 -90.5t-101.5 -61.5q-60 -22 -125 -22t-125 22q-57 22 -101.5 61.5t-68.5 90.5q-25 54 -25 112q0 16 12.5 27t30.5 11h554v0zM166 505h379v0q11 0 18.5 7.5t7.5 18.5
q0 8 -5 14l-168 278q-5 9 -14.5 11.5t-18.5 -1.5q-87 -44 -146 -122q-60 -78 -78 -175q-2 -12 5.5 -21.5t19.5 -9.5zM222 575q11 60 48 109q37 48 90 75q14 6 21 -6l104 -172q3 -4 3 -9q0 -7 -5 -11.5t-11 -4.5v0h-235q-7 0 -12 5.5t-3 13.5z" />
    <glyph glyph-name="41" unicode="&#xe65e;" 
d="M960 397q-68 119 -186 188q-121 72 -262 72t-262 -72q-118 -69 -186 -188q-7 -13 0 -26q68 -119 186 -188q121 -72 262 -72t262 72q118 69 186 188q7 13 0 26zM513.5 208q-69.5 0 -118.5 49t-49 118.5t49 118.5t118.5 49t118.5 -49t49 -118.5t-49 -118.5t-118.5 -49z" />
    <glyph glyph-name="42" unicode="&#xe65f;" 
d="M261 77q-8 0 -14 6t-6 14.5t5 14.5l539 559q6 7 14.5 7t14.5 -6t6.5 -14.5t-5.5 -14.5l-539 -560q-6 -6 -15 -6zM283 164l101 105q-38 47 -38 107q0 69 49 118t119 49q56 0 101 -34l102 106q-98 42 -205 42q-141 0 -262 -72q-118 -69 -186 -188q-7 -13 0 -26
q68 -119 186 -188q16 -10 33 -19zM960 397q-68 119 -186 188v0.5v0.5l-118 -122q25 -41 25 -88q0 -70 -49 -119t-118 -49q-45 0 -83 22l-87 -91q81 -28 168 -28q141 0 262 72q118 69 186 188q7 13 0 26z" />
    <glyph glyph-name="1" unicode="&#xe660;" 
d="M751 831h-481q-26 0 -45 -18.5t-19 -44.5v-776q0 -26 19 -44.5t45 -18.5h481q26 0 44.5 18.5t18.5 44.5v776q0 26 -18.5 44.5t-44.5 18.5zM270 790h481q9 0 15.5 -6.5t6.5 -15.5v-598h-526v598q0 9 7 15.5t16 6.5zM751 -30h-481q-9 0 -16 6.5t-7 15.5v137h526v-137
q0 -9 -6.5 -15.5t-15.5 -6.5zM429 693h162q9 0 15 6t6 14.5t-6 14.5t-15 6h-162q-8 0 -14 -6t-6 -14.5t6 -14.5t14 -6zM512 48zM485 48.5q0 11.5 8 19t19 7.5t19 -7.5t8 -19t-8 -19t-19 -7.5t-19 7.5t-8 19z" />
    <glyph glyph-name="2" unicode="&#xe661;" 
d="M726 -67h-481q-26 0 -44.5 18.5t-18.5 44.5v776q0 26 18.5 44.5t44.5 18.5h481q27 0 45.5 -18.5t18.5 -44.5v-329q0 -9 -6 -15t-14.5 -6t-14.5 6t-6 15v329q0 9 -6.5 15.5t-16.5 6.5h-481q-9 0 -15.5 -6.5t-6.5 -15.5v-776q0 -9 6.5 -15.5t15.5 -6.5h481q10 0 16.5 6.5
t6.5 15.5v86q0 9 6 15t14.5 6t14.5 -6t6 -15v-86q0 -26 -18.5 -44.5t-45.5 -18.5zM567 697h-162q-8 0 -14 5.5t-6 14t6 14.5t14 6h162q8 0 14 -6t6 -14.5t-6 -14t-14 -5.5zM693 156q-8 0 -14 5l-125 118q-6 6 -6.5 14.5t5.5 14.5t14.5 6.5t14.5 -5.5l111 -104l208 206
q6 6 14.5 6t14.5 -6t6 -14.5t-6 -14.5l-222 -220q-6 -6 -15 -6z" />
    <glyph glyph-name="3" unicode="&#xe662;" 
d="M828 404h-576v130q0 106 75 181t181 75h8q106 0 181 -75t75 -181q0 -9 6 -15t14.5 -6t14.5 6t6 15q0 123 -87 210t-210 87h-8q-123 0 -210 -87t-87 -210v-130h-15q-34 0 -57.5 -23.5t-23.5 -56.5v-307q0 -33 23.5 -56.5t57.5 -23.5h632q34 0 57.5 23.5t23.5 56.5v307
q0 33 -23.5 56.5t-57.5 23.5zM868 17q0 -16 -11.5 -28t-28.5 -12h-632q-17 0 -28.5 12t-11.5 28v307q0 16 11.5 28t28.5 12h632q17 0 28.5 -12t11.5 -28v-307zM512 284q-20 0 -34 -14t-14 -34q0 -29 27 -42v-134h42v134q27 13 27 42q0 20 -14 34t-34 14z" />
    <glyph glyph-name="gouwuchekong500500" unicode="&#xe663;" 
d="M475 831q39 12 57 23q8 -50 36 -79q-29 -8 -62 -26q0 1 -2.5 10.5t-10.5 30t-18 41.5zM358 740q15 -7 23 -9q-1 -1 -3 -4.5t-5 -12t-3 -15.5q-10 6 -25 9l1 1.5t2.5 4.5t3 6.5t3.5 9t3 10.5zM768 751q17 -18 28 -25q-25 -17 -33 -39q-12 13 -30 26l4.5 4t13.5 14t17 20z
M890 603.5q-2 3.5 -7 3.5h-504q-8 0 -8 -8t8 -8h491l-26 -55h-357q-8 0 -8 -8.5t8 -8.5h349l-95 -201h-379q-112 356 -129 410q-6 17 -16.5 29.5t-21 18t-22.5 8t-16.5 2.5h-6.5q-9 -1 -8 -9t9 -7q1 -1 6 -0.5t13.5 -2t17 -6.5t17 -14t12.5 -24q22 -69 131 -415q0 -2 2 -4
l-30 -84v-3q0 -17 9.5 -28.5t23.5 -11.5h411q8 0 8 8.5t-8 8.5h-411q-7 0 -12 6t-5 16l31 86h380q5 0 7 5l102 214q2 3 2 6l33 69q1 4 -1 7.5zM457 101q0 20 -14.5 34t-34 14t-34 -14t-14.5 -34t14.5 -34t34 -14t34 14t14.5 34zM377 101q0 13 9 22t22.5 9t22.5 -9t9 -22
t-9 -22.5t-22.5 -9.5t-22.5 9.5t-9 22.5zM729 101q0 20 -14 34t-34 14t-34 -14t-14 -34t14 -34t34 -14t34 14t14 34zM649 101q0 13 9.5 22t22.5 9t22.5 -9t9.5 -22t-9.5 -22.5t-22.5 -9.5t-22.5 9.5t-9.5 22.5zM317 591h31q8 0 8 8t-8 8h-31q-8 0 -8 -8t8 -8zM565 24
q0 3 4.5 3t4.5 -3t-4.5 -3t-4.5 3zM553 30h-332q-5 0 -5 -5q0 -3 1.5 -4.5t3.5 -1.5h332q5 0 5 6q0 2 -1.5 3.5t-3.5 1.5zM803 30h-217q-5 0 -5 -5q0 -3 1.5 -4.5t3.5 -1.5h217q5 0 5 5.5t-5 5.5z" />
    <glyph glyph-name="shaixuan" unicode="&#xe692;" 
d="M91 833l306 -401v-305l229 -191v496l305 401h-840zM587 451v-419l-152 133v286l-267 344h687z" />
    <glyph glyph-name="shezhi" unicode="&#xe666;" 
d="M579 66q-33 -7 -67 -7q-88 0 -163 43.5t-118.5 118.5t-43.5 163q0 96 52.5 177t140.5 120q9 5 13 14.5t-0.5 19.5t-14.5 13.5t-19 -0.5q-41 -18 -76 -45l-36 35q-7 7 -17.5 7t-17.5 -7l-33 -33q-7 -7 -7 -17t7 -17l36 -36q-9 -11 -17 -24q-48 -72 -59 -157h-50
q-10 0 -17.5 -7.5t-7.5 -17.5v-46q0 -10 7.5 -17.5t17.5 -7.5h49q7 -52 27 -101q19 -44 48 -82l-35 -34q-7 -7 -7 -17.5t7 -17.5l33 -33q7 -7 17.5 -7t17.5 7l34 34q39 -30 85 -50q47 -20 98 -26v-48q0 -10 7 -17.5t17 -7.5h47q10 0 17 7.5t7 17.5v47q16 2 31 5
q11 3 16.5 11.5t3.5 19t-11 16.5t-19 4zM295 384q0 -90 63.5 -153.5t153.5 -63.5t153.5 63.5t63.5 153.5t-63.5 153.5t-153.5 63.5t-153.5 -63.5t-63.5 -153.5zM512 560q73 0 124.5 -51.5t51.5 -124.5t-51.5 -124.5t-124.5 -51.5t-124.5 51.5t-51.5 124.5t51.5 124.5
t124.5 51.5zM958 408q0 10 -7 17t-17 7h-49q-6 51 -26 99q-19 45 -50 84l35 35q7 7 7 17t-7 17l-33 33q-7 7 -17 7t-17 -7l-35 -35q-39 30 -83 49q-48 20 -99 26v50q0 11 -7.5 18t-17.5 7h-46q-10 0 -17.5 -7t-7.5 -18v-50q-19 -2 -37 -6q-10 -3 -16 -12t-3.5 -19
t11.5 -15.5t19 -3.5q37 8 74 8q88 0 163 -43.5t118.5 -118.5t43.5 -163q0 -97 -53 -178t-141 -120q-10 -4 -14 -14t1 -20q6 -15 23 -15q5 0 10 2q43 19 79 47l34 -34q7 -7 17 -7t17 7l33 33q7 7 7 17.5t-7 17.5l-33 33q63 82 76 184h48q10 0 17 7t7 17v47z" />
    <glyph glyph-name="11" unicode="&#xe8b7;" 
d="M902 833h-340q-24 0 -42 -18l-440 -440q-17 -17 -17 -42t17 -42l338 -338q18 -18 42.5 -18t42.5 18l440 439q18 18 18 43v338q0 25 -17.5 42.5t-41.5 17.5zM607 262q-5 -8 -13 -15q-9 -10 -17 -15l-83 83l-38 -37l83 -84q-5 -7 -13 -15q-10 -9 -17 -15l-83 84l-68 -68
l-12 10t-12 11l-11 11q-4 7 -9 13l68 67v0l-79 80q3 7 13 17q4 3 8 7q5 3 9 6l79 -80l38 38l-79 80q4 7 13 16q5 4 9 8q4 2 8 6l62 -63l62 220q7 -5 14 -12q6 -6 13 -12q6 -7 12 -13q6 -7 10 -13l-61 -201l201 60q6 -6 13 -11q6 -5 12 -11q5 -7 12 -13q5 -6 9 -12l-219 -61z
M829 639q-25 0 -42.5 17.5t-17.5 42.5t17.5 42.5t42.5 17.5t42.5 -17.5t17.5 -42.5t-17.5 -42.5t-42.5 -17.5z" />
    <glyph glyph-name="shezhi1" unicode="&#xe8ba;" 
d="M512 542q-61 0 -104.5 -43.5t-43.5 -105t43.5 -105t104.5 -43.5q9 0 15 6t6 14.5t-6 14.5t-15 6q-44 0 -75.5 31.5t-31.5 75.5t31.5 75.5t75.5 31.5t75.5 -31.5t31.5 -75.5q0 -29 -14 -54q-5 -7 -2.5 -15.5t9.5 -12.5t15.5 -2t12.5 10q20 34 20 74q0 62 -43.5 105.5
t-104.5 43.5zM929 536q-2 4 -3 10l-40 70v0l-1 2v0l-33 58h-1l-0.5 0.5t-0.5 1t-0.5 1l-0.5 0.5l-0.5 0.5t-0.5 1.5h-1l-1 1v0q-1 0 -2 1v0l-1 1h-1v0q-1 0 -1 1h-0.5h-0.5h-1h-0.5h-0.5l-1 1h-0.5h-0.5h-1h-1h-0.5h-0.5h-1h-1v0v0q-15 0 -30 -3q-62 0 -112.5 36.5
t-69.5 95.5q-1 0 -1 1v1q-1 1 -1 2q-1 0 -1 0.5v0.5q-1 1 -1 2h-1v0q0 1 -0.5 1t-1 0.5l-0.5 0.5l-1 1h-1v1h-2v1h-1h-1q-1 1 -3 1h-1l-1 1h-1h-1h-174v0v0v0h-1v0q-1 0 -1.5 -0.5l-0.5 -0.5h-1h-1h-0.5t-1 -0.5t-1.5 -0.5h-1v0v-1h-2l-0.5 -0.5l-1 -1l-0.5 -0.5l-0.5 -0.5
t-1 -0.5t-1 -0.5l-0.5 -0.5q0 -1 -1 -2v0q-1 -1 -1 -2l-0.5 -1l-0.5 -1l-1 -1v0q-26 -79 -102 -114q-10 -3 -20 -8h-1q-30 0 -59 -10q-15 3 -29 3h-1v0h-1h-1h-1h-1v0h-1h-0.5h-0.5l-1 -0.5l-1 -0.5h-1h-1q0 -1 -1 -1v0h-1l-1 -1v0q-1 0 -2 -1v0q0 -1 -1 -1h-1v-1l-0.5 -0.5
l-0.5 -0.5l-0.5 -0.5t-0.5 -1t-0.5 -1l-0.5 -0.5h-1l-33 -58v0l-40 -69v-1l-1 -2q-1 -5 -3 -10q-1 -5 2 -10q2 -2 3 -4q40 -46 47 -106.5t-23 -114.5v0v0v0v-1h-1v0q0 -1 -1 -2q-9 -11 -16 -24q-1 -6 -5 -10q2 -4 2 -8v-3q0 -2 1 -3l34 -59v0v0l40 -70v0h1h4q12 0 18 -10
q3 0 7 1q59 10 113.5 -16t84.5 -78q6 -24 19 -45v0v0q7 -4 9 -12v0q6 0 11 -3h134v0q6 3 12 3q2 8 8 12v0v0v0q5 12 9 24q6 10 10 21q9 11 16 23v0v0q32 41 79.5 60t98.5 12q6 -1 11 -2q6 10 18 10h4h1v0l40 70v0l34 59q1 1 1 3v0q0 4 2 8q-2 4 -2 8v0q-2 2 -3 5
q-7 13 -16 24l-1 1q-3 7 -7 14v0v1v0h-1q-23 51 -15 108t46 100v0q0 8 5 14zM866 278v0v0v0v-1q3 -4 6 -9v0v0q3 -4 6 -9l-27 -45v0l-1 -2v0l-11 -19l-22 -39q-71 9 -135 -22t-100 -93q-5 -14 -13 -27v0q-2 -7 -5 -13h-104q-11 19 -18 40h-1q-37 11 -78 42.5t-60 65.5
q-16 -2 -32 -2q-32 0 -64 9l-34 60v0l-27 45q6 10 12 18q36 63 31 133.5t-49 127.5l10 16l24 41v0l27 48q12 -1 22 -1h4h4h1q4 1 8 1h0.5h0.5q4 0 8 1h1q3 0 7 1h0.5h1.5q3 0 7 1h1q5 1 9 2t7 2h1l8 2v0.5v0.5l8 2v0q5 2 8 3v0q4 2 8 3v0q4 2 7 4h0.5h0.5q4 2 7 4h0.5h0.5
l6 4h0.5h0.5q4 2 7 4l1 1l6 4h1q3 2 6 5h1q3 3 6 5h1q3 3 6 5v1q3 2 6 5v0l6 6h0.5h0.5q2 3 5 5q0 1 0.5 1h0.5q2 3 5 6l1 1q2 2 4 5l1 1q5 7 10 13l1 1l4 6v1q2 4 5 7v0q2 4 4 7v1q2 4 4 7v0l4 8v0q1 4 3 8v0v0h146v0v0q2 -4 3 -8v0l4 -8v0q2 -3 4 -7v-1q2 -3 4 -7v0v0
q3 -3 5 -7v-1l4 -6l1 -1q5 -6 10 -13l1 -1q2 -3 4 -5l1 -1v0q3 -3 5 -6h0.5t0.5 -1q3 -2 5 -5h1l6 -6v0q3 -3 6 -5v-1q3 -2 6 -5h1q3 -3 6 -5v0h1q7 -5 13 -9l1 -1l8 -4l6 -4h0.5h0.5q4 -2 7 -4h0.5h0.5q3 -2 7 -4v0q4 -1 8 -3v0q3 -1 8 -3v0l8 -2v-0.5v-0.5l8 -2h1l8 -2
q8 -1 16 -3h1.5h0.5q4 -1 7 -1h1q4 -1 8 -1h0.5h0.5q4 -1 8 -1h1h8h11q5 1 11 1l27 -48v0l34 -57q-44 -56 -49 -127t31 -133z" />
    <glyph glyph-name="xiaoxi1" unicode="&#xe8bc;" 
d="M513 370l-253 162q-8 5 -16.5 3t-13.5 -9.5t-3 -16.5t9 -14l264 -169q5 -3 12 -3q6 0 11 3l434 252v0v0q1 0 1.5 0.5l0.5 0.5q4 3 6 7l1 2v0q1 1 1 3v1l1 2l-2 -5q2 3 2 7v-2v1v1v1v111q0 34 -24 58t-58 24h-729q-34 0 -58 -24t-24 -58v-613q0 -34 24 -58t58 -24h729
q34 0 58 24t24 58v274q0 9 -6.5 15.5t-15.5 6.5t-15.5 -6.5t-6.5 -15.5v-274q0 -15 -11.5 -26.5t-26.5 -11.5h-729q-16 0 -27 11.5t-11 26.5v613q0 15 11 26.5t27 11.5h729q15 0 26.5 -11.5t11.5 -26.5v-99z" />
    </font>
</defs>
</svg>
